<?xml version="1.0" standalone="no"?>
<!DOCTYPE svg PUBLIC "-//W3C//DTD SVG 20010904//EN"
 "http://www.w3.org/TR/2001/REC-SVG-20010904/DTD/svg10.dtd">
<svg version="1.0" xmlns="http://www.w3.org/2000/svg"
 width="1024.000000pt" height="1024.000000pt" viewBox="0 0 1024.000000 1024.000000"
 preserveAspectRatio="xMidYMid meet">
<metadata>
Created by potrace 1.16, written by Peter Selinger 2001-2019
</metadata>
<g transform="translate(0.000000,1024.000000) scale(0.100000,-0.100000)"
fill="#000000" stroke="none">
<path d="M5169 9751 c-42 -14 -71 -31 -139 -86 -36 -28 -121 -96 -190 -150
-69 -55 -150 -120 -180 -145 -182 -154 -905 -756 -978 -815 -48 -38 -148 -122
-222 -185 -440 -377 -841 -719 -945 -805 -66 -55 -163 -138 -215 -185 -52 -47
-124 -110 -160 -140 -36 -30 -88 -75 -115 -100 -28 -25 -107 -93 -175 -151
-69 -59 -151 -131 -182 -162 -51 -49 -58 -60 -58 -94 1 -21 6 -48 13 -61 20
-35 439 -472 468 -487 21 -11 30 -11 55 1 29 14 193 142 246 192 15 14 30 24
32 21 4 -4 9 -1672 7 -2191 l-1 -228 -202 0 -201 0 -43 -45 c-55 -57 -64 -98
-35 -159 12 -24 34 -53 49 -63 26 -17 138 -18 3207 -16 2464 2 3185 5 3203 14
32 18 75 111 68 147 -10 44 -62 100 -104 112 -20 5 -110 10 -198 10 l-161 0
-8 313 c-8 367 -3 2067 7 2067 3 0 52 -38 108 -85 57 -47 112 -90 122 -96 45
-24 105 19 250 181 52 58 139 150 195 206 110 109 128 144 103 204 -15 37
-102 119 -295 279 -83 69 -193 163 -245 211 -52 47 -133 119 -180 159 -47 41
-132 117 -190 171 -58 53 -132 119 -165 145 -33 27 -92 77 -131 111 -40 34
-81 67 -93 73 l-21 12 0 575 c0 631 1 617 -60 649 -25 13 -95 15 -470 15 -496
0 -489 1 -537 -71 -21 -32 -26 -54 -31 -128 l-5 -90 -81 62 c-73 55 -268 210
-461 366 -38 31 -122 101 -185 156 -165 145 -289 244 -332 266 -44 22 -104 31
-139 20z m121 -370 c30 -26 80 -65 110 -87 30 -23 126 -102 213 -177 87 -75
197 -165 244 -199 47 -35 104 -78 127 -97 22 -19 93 -74 158 -122 64 -49 147
-116 185 -149 37 -34 120 -100 183 -148 63 -48 172 -137 241 -198 70 -62 174
-149 231 -195 56 -46 162 -135 233 -199 72 -64 213 -189 315 -279 246 -218
241 -213 355 -316 55 -50 141 -124 190 -165 50 -41 135 -115 190 -165 55 -49
123 -109 150 -132 l50 -43 -87 -87 c-86 -86 -88 -87 -112 -73 -28 17 -287 233
-485 404 -69 59 -182 157 -251 216 -69 59 -183 156 -255 216 -71 59 -166 140
-210 179 -44 39 -120 105 -170 145 -49 41 -121 102 -160 136 -38 33 -122 101
-185 149 -63 49 -207 168 -320 265 -113 97 -243 205 -289 240 -156 120 -198
155 -410 332 -216 182 -242 200 -299 213 -45 9 -63 -2 -309 -206 -115 -96
-270 -222 -344 -281 -229 -183 -480 -388 -630 -513 -146 -122 -435 -363 -609
-508 -52 -44 -147 -123 -210 -176 -63 -53 -146 -120 -185 -150 -144 -111 -410
-337 -667 -568 l-137 -122 -91 94 c-50 52 -90 101 -88 108 4 16 196 192 358
328 214 180 433 363 471 394 135 111 713 596 795 667 34 29 94 80 135 113 40
33 152 128 249 210 96 83 211 179 255 215 44 35 125 103 180 150 55 47 147
124 205 170 58 46 152 125 210 175 58 50 141 118 185 150 44 33 104 81 134
107 62 54 61 54 151 -21z m1872 -769 c2 -142 1 -284 -2 -316 l-5 -57 -170 135
c-175 140 -242 193 -285 225 -24 18 -25 24 -28 145 l-4 126 245 0 245 0 4
-258z m-1882 32 c25 -25 95 -85 155 -132 61 -47 170 -137 244 -201 168 -145
255 -218 362 -302 46 -37 116 -95 154 -129 39 -34 108 -92 155 -128 47 -36
128 -102 180 -147 90 -77 398 -330 608 -498 53 -44 149 -123 212 -177 180
-153 231 -196 296 -247 l60 -48 3 -1322 2 -1323 -829 0 c-748 0 -830 2 -836
16 -3 9 -6 584 -6 1278 l0 1263 -23 34 c-13 20 -45 44 -77 60 l-55 27 -320 -8
c-176 -4 -478 -5 -670 -2 -396 6 -377 9 -458 -74 l-47 -47 0 -1276 0 -1276
-830 -3 -830 -4 -1 1014 c0 557 -2 1160 -5 1341 -3 218 -1 327 6 327 5 0 33
21 62 48 29 26 118 100 198 165 80 64 170 138 201 165 30 26 109 89 175 140
65 51 160 127 210 170 172 146 425 357 573 477 81 66 183 152 227 190 43 39
117 99 164 135 47 35 123 96 168 134 46 39 109 91 140 115 144 112 251 199
300 243 30 26 61 48 71 48 9 0 37 -21 61 -46z m446 -2278 c1 0 4 -535 8 -1188
l6 -1188 -525 0 -525 0 0 163 c-1 89 -2 297 -2 462 -1 165 -1 629 0 1030 l2
730 518 -3 c284 -2 518 -5 518 -6z"/>
<path d="M5139 7752 c-49 -32 -100 -86 -124 -133 -44 -84 67 -202 191 -203 44
-1 60 5 109 39 32 22 66 53 76 70 36 58 16 137 -53 202 -63 61 -129 69 -199
25z"/>
<path d="M3183 6629 c-23 -11 -58 -35 -79 -53 l-39 -34 -3 -538 c-2 -297 -4
-559 -4 -584 -1 -62 41 -142 92 -176 l39 -26 381 -4 c367 -4 382 -3 420 16 47
24 96 87 110 141 7 24 10 238 8 593 l-3 554 -31 38 c-61 76 -62 76 -452 80
-191 3 -359 6 -373 9 -14 2 -44 -5 -66 -16z m317 -368 c0 -59 -3 -129 -6 -154
l-7 -47 -81 3 -81 3 -3 152 -3 152 91 0 90 0 0 -109z m340 -41 l0 -150 -80 0
-80 0 0 150 0 150 80 0 80 0 0 -150z m-345 -575 l0 -140 -82 -3 -83 -3 0 146
0 146 83 -3 82 -3 0 -140z m345 0 l0 -145 -75 0 -75 0 0 99 c0 54 -3 119 -6
145 l-7 46 82 0 81 0 0 -145z"/>
<path d="M6810 6640 c-397 -6 -385 -4 -453 -80 l-37 -41 2 -578 3 -578 30 -49
c19 -30 47 -58 71 -71 39 -22 47 -22 428 -23 l387 -2 40 26 c21 14 49 45 61
69 21 39 23 57 26 267 6 338 5 402 -5 695 -7 227 -12 275 -27 303 -21 40 -85
72 -136 70 -19 -2 -195 -5 -390 -8z m96 -281 c8 -7 14 -6 19 1 3 5 41 10 86
10 l80 0 -3 -147 -3 -148 -85 0 c-47 0 -120 3 -163 6 -42 4 -80 3 -83 -2 -3
-5 -43 -9 -90 -9 l-84 0 0 73 c0 41 3 108 6 150 l7 76 66 4 c92 6 233 -2 247
-14z m-176 -703 l0 -133 -31 -7 c-17 -3 -49 -6 -70 -6 l-39 0 0 103 c0 56 3
119 6 140 l7 37 63 0 64 0 0 -134z m360 -11 l0 -145 -80 0 -80 0 0 145 0 145
80 0 80 0 0 -145z"/>
<path d="M6765 4813 c-29 -7 -44 -22 -66 -64 -22 -44 -25 -84 -6 -76 8 3 13
-3 13 -17 -1 -11 3 -22 8 -23 5 -1 12 -7 17 -15 8 -13 29 -18 81 -19 35 0 80
47 72 75 -4 11 -2 16 4 12 5 -3 12 3 15 14 3 11 0 23 -5 27 -7 3 -8 1 -4 -5 4
-7 2 -12 -3 -12 -13 0 -14 10 -2 29 26 40 -59 90 -124 74z"/>
<path d="M5314 5756 c-49 -22 -103 -75 -113 -111 -14 -53 2 -102 51 -152 78
-81 127 -91 217 -47 129 64 147 201 38 288 -31 25 -48 31 -100 33 -38 2 -74
-2 -93 -11z"/>
<path d="M3225 3360 c-80 -16 -149 -131 -125 -206 19 -57 59 -76 157 -72 71 3
85 6 108 28 66 61 87 174 43 224 -18 19 -36 26 -83 29 -33 3 -78 2 -100 -3z"/>
<path d="M6413 3360 c-97 -20 -128 -54 -144 -162 -14 -96 1 -145 51 -171 28
-15 55 -17 138 -15 l104 3 35 39 35 38 -4 87 c-8 168 -60 211 -215 181z"/>
<path d="M7115 3355 c-22 -8 -50 -25 -62 -39 -27 -32 -46 -122 -38 -181 14
-88 66 -120 188 -113 122 6 197 72 197 172 0 60 -35 125 -84 155 -40 25 -139
28 -201 6z"/>
<path d="M4413 3353 c-82 -16 -138 -236 -77 -304 62 -70 262 -65 326 7 33 38
48 154 28 226 -15 54 -71 78 -176 77 -43 -1 -89 -4 -101 -6z"/>
<path d="M3768 3303 c-47 -36 -68 -81 -68 -147 0 -93 55 -136 175 -136 114 0
165 43 165 142 0 66 -16 113 -50 143 -18 16 -39 21 -104 23 -75 2 -84 0 -118
-25z"/>
<path d="M5100 3308 c-38 -20 -75 -102 -75 -169 0 -69 21 -104 78 -130 120
-54 267 20 267 135 0 51 -35 122 -73 150 -35 25 -158 34 -197 14z"/>
<path d="M5723 3229 c-47 -14 -76 -61 -81 -131 -4 -54 -2 -60 26 -87 35 -32
68 -41 154 -41 66 0 113 18 149 56 18 19 23 36 23 79 1 48 -3 58 -30 86 -45
44 -157 62 -241 38z"/>
</g>
</svg>
