<?xml version="1.0" standalone="no"?>
<!DOCTYPE svg PUBLIC "-//W3C//DTD SVG 20010904//EN"
 "http://www.w3.org/TR/2001/REC-SVG-20010904/DTD/svg10.dtd">
<svg version="1.0" xmlns="http://www.w3.org/2000/svg"
 width="1200.000000pt" height="1200.000000pt" viewBox="0 0 1200.000000 1200.000000"
 preserveAspectRatio="xMidYMid meet">
<metadata>
Created by potrace 1.16, written by Peter Selinger 2001-2019
</metadata>
<g transform="translate(0.000000,1200.000000) scale(0.100000,-0.100000)"
fill="#000000" stroke="none">
<path d="M5451 9769 c-74 -14 -168 -65 -230 -124 -89 -84 -131 -176 -146 -313
-6 -55 -10 -64 -34 -76 -40 -21 -110 -101 -132 -151 -28 -64 -35 -151 -16
-216 43 -147 166 -241 317 -241 113 -1 212 51 271 142 l31 47 76 6 c52 3 97
14 138 32 l62 27 51 -26 c66 -34 152 -56 216 -56 102 0 230 49 305 116 l39 35
38 -19 c59 -30 142 -52 197 -52 111 0 229 53 302 133 185 206 125 521 -124
644 -73 36 -80 38 -176 38 -90 0 -108 -3 -161 -28 -33 -15 -67 -34 -75 -42
-14 -13 -22 -10 -68 25 -88 65 -150 84 -277 85 -98 0 -117 -3 -176 -28 l-66
-27 -64 30 c-101 47 -196 59 -298 39z"/>
<path d="M2610 8370 l0 -380 955 0 955 0 0 380 0 380 -955 0 -955 0 0 -380z"/>
<path d="M2612 7790 l3 -60 953 -3 952 -2 0 63 0 62 -955 0 -956 0 3 -60z"/>
<path d="M2617 7583 c-4 -3 -7 -33 -7 -65 l0 -58 955 0 955 0 0 65 0 65 -948
0 c-522 0 -952 -3 -955 -7z"/>
<path d="M2610 7260 l0 -60 955 0 955 0 0 60 0 60 -955 0 -955 0 0 -60z"/>
<path d="M2617 7053 c-4 -3 -7 -1005 -7 -2225 l0 -2218 3373 0 3372 0 0 900 0
900 -3137 0 c-3125 0 -3138 0 -3158 20 -28 28 -27 84 2 104 20 14 336 16 3155
16 l3133 0 2 665 c2 366 0 665 -5 665 -4 0 -60 -42 -125 -93 -64 -51 -261
-205 -437 -342 -176 -137 -455 -355 -620 -484 -165 -129 -312 -241 -326 -248
-35 -17 -76 -2 -89 32 -6 16 -10 242 -10 581 0 305 -2 554 -5 554 -3 0 -75
-55 -161 -122 -87 -68 -223 -174 -303 -237 -80 -63 -175 -137 -211 -165 -36
-27 -231 -181 -435 -340 -203 -159 -382 -296 -396 -303 -32 -16 -72 -4 -88 26
-8 13 -11 206 -11 586 l0 567 -47 -40 c-27 -21 -212 -167 -413 -323 -201 -157
-502 -392 -670 -523 -168 -132 -322 -253 -344 -269 -47 -37 -91 -40 -118 -8
-17 22 -18 71 -18 1177 l0 1154 -948 0 c-522 0 -952 -3 -955 -7z m2657 -3275
c13 -18 16 -56 16 -200 0 -165 -2 -180 -20 -198 -20 -20 -33 -20 -780 -20
-747 0 -760 0 -780 20 -18 18 -20 33 -20 198 0 144 3 182 16 200 l15 22 769 0
769 0 15 -22z m1786 2 c19 -19 20 -33 20 -200 0 -167 -1 -181 -20 -200 -20
-20 -33 -20 -780 -20 -747 0 -760 0 -780 20 -19 19 -20 33 -20 200 0 167 1
181 20 200 20 20 33 20 780 20 747 0 760 0 780 -20z m1794 -2 c13 -18 16 -56
16 -200 0 -165 -2 -180 -20 -198 -20 -20 -33 -20 -780 -20 -747 0 -760 0 -780
20 -18 18 -20 33 -20 198 0 144 3 182 16 200 l15 22 769 0 769 0 15 -22z
m-3584 -618 c18 -18 20 -33 20 -198 0 -144 -3 -182 -16 -200 l-15 -22 -769 0
-769 0 -15 22 c-13 18 -16 56 -16 200 0 165 2 180 20 198 20 20 33 20 780 20
747 0 760 0 780 -20z m1790 0 c18 -18 20 -33 20 -198 0 -144 -3 -182 -16 -200
l-15 -22 -765 0 c-751 0 -764 0 -784 20 -19 19 -20 33 -20 200 0 167 1 181 20
200 20 20 33 20 780 20 747 0 760 0 780 -20z m1790 0 c19 -19 20 -33 20 -202
0 -155 -2 -184 -17 -200 -15 -17 -53 -18 -784 -18 l-768 0 -15 22 c-13 18 -16
56 -16 200 0 165 2 180 20 198 20 20 33 20 780 20 747 0 760 0 780 -20z"/>
<path d="M3830 3580 l0 -80 660 0 660 0 0 80 0 80 -660 0 -660 0 0 -80z"/>
<path d="M5620 3580 l0 -80 660 0 660 0 0 80 0 80 -660 0 -660 0 0 -80z"/>
<path d="M7410 3583 l0 -83 660 0 660 0 0 83 0 82 -660 0 -660 0 0 -82z"/>
<path d="M3830 2955 l0 -85 660 0 660 0 0 85 0 85 -660 0 -660 0 0 -85z"/>
<path d="M5620 2955 l0 -84 660 -1 660 0 0 85 0 85 -660 0 -660 0 0 -85z"/>
<path d="M7412 2958 l3 -83 615 -1 c338 -1 634 0 658 3 l42 5 0 79 0 79 -660
0 -661 0 3 -82z"/>
<path d="M1900 2350 l0 -130 4100 0 4100 0 0 130 0 130 -4100 0 -4100 0 0
-130z"/>
</g>
</svg>
