<?xml version="1.0" standalone="no"?>
<!DOCTYPE svg PUBLIC "-//W3C//DTD SVG 20010904//EN"
 "http://www.w3.org/TR/2001/REC-SVG-20010904/DTD/svg10.dtd">
<svg version="1.0" xmlns="http://www.w3.org/2000/svg"
 width="204.000000pt" height="192.000000pt" viewBox="0 0 204.000000 192.000000"
 preserveAspectRatio="xMidYMid meet">
<metadata>
Created by potrace 1.16, written by Peter Selinger 2001-2019
</metadata>
<g transform="translate(0.000000,192.000000) scale(0.100000,-0.100000)"
fill="#000000" stroke="none">
<path d="M694 1700 c-23 -12 -50 -31 -62 -43 -21 -22 -195 -318 -190 -322 2
-1 35 -20 73 -42 39 -22 119 -68 178 -102 60 -35 113 -59 117 -55 5 5 43 70
86 144 42 74 83 143 89 153 12 17 19 8 70 -82 31 -56 53 -105 50 -111 -3 -5
-34 -25 -68 -44 l-62 -36 150 1 c83 1 181 4 218 8 l68 6 104 175 c57 96 102
176 101 178 -2 1 -32 -14 -66 -35 -73 -43 -64 -48 -132 74 -22 40 -54 85 -71
99 -61 52 -77 54 -354 54 -239 0 -261 -1 -299 -20z"/>
<path d="M1642 1130 c-18 -11 -92 -54 -165 -96 -73 -42 -136 -80 -141 -84 -5
-5 7 -35 27 -67 57 -94 147 -252 147 -258 0 -3 -54 -5 -120 -5 l-119 0 -3 76
-3 76 -72 -134 c-40 -73 -86 -155 -101 -183 l-29 -50 101 -182 101 -181 3 73
3 73 122 3 c111 4 126 6 168 31 54 32 63 45 205 293 l109 190 0 70 c0 70 0 71
-87 220 -48 83 -93 151 -100 153 -7 1 -28 -7 -46 -18z"/>
<path d="M173 1124 c4 -4 36 -24 69 -44 34 -19 61 -39 60 -45 -1 -5 -25 -53
-54 -105 -49 -87 -53 -100 -53 -160 0 -65 0 -65 121 -273 180 -311 165 -301
427 -305 l187 -4 0 216 0 216 -184 2 -184 3 54 98 c31 53 60 97 65 97 6 0 37
-16 70 -35 32 -19 59 -31 59 -28 0 4 -48 87 -106 185 l-107 178 -197 0 c-109
0 -207 3 -217 7 -10 3 -14 2 -10 -3z"/>
</g>
</svg>
