<?xml version="1.0" standalone="no"?>
<!DOCTYPE svg PUBLIC "-//W3C//DTD SVG 20010904//EN"
 "http://www.w3.org/TR/2001/REC-SVG-20010904/DTD/svg10.dtd">
<svg version="1.0" xmlns="http://www.w3.org/2000/svg"
 width="1024.000000pt" height="1024.000000pt" viewBox="0 0 1024.000000 1024.000000"
 preserveAspectRatio="xMidYMid meet">
<metadata>
Created by potrace 1.16, written by Peter Selinger 2001-2019
</metadata>
<g transform="translate(0.000000,1024.000000) scale(0.100000,-0.100000)"
fill="#000000" stroke="none">
<path d="M7793 9496 c-37 -17 -53 -43 -53 -85 l0 -30 -501 -3 -501 -3 -30 -34
c-27 -30 -29 -38 -24 -80 9 -67 12 -1571 4 -1571 -24 0 -48 -43 -48 -84 0 -67
29 -86 131 -86 l78 0 6 -37 c18 -109 90 -207 183 -248 44 -20 55 -35 24 -35
-10 0 -50 -20 -89 -44 -39 -25 -94 -56 -122 -70 -28 -15 -58 -37 -66 -50 -14
-21 -28 -27 -103 -42 -30 -6 -109 29 -147 65 -16 16 -55 44 -85 64 -71 46
-172 114 -187 127 -16 13 -63 13 -63 0 0 -6 -15 -19 -32 -30 -40 -25 -98 -24
-150 2 -21 10 -43 18 -50 18 -30 0 -120 -52 -171 -98 -31 -28 -66 -56 -79 -63
-50 -26 -127 -92 -153 -128 -33 -48 -32 -101 3 -116 20 -9 22 -16 22 -92 0
-77 1 -82 22 -85 l23 -3 -4 -245 c-1 -135 0 -267 4 -293 7 -43 10 -47 35 -47
l28 0 1 287 c1 157 2 287 4 289 1 1 15 4 31 6 l28 3 5 -291 c2 -160 7 -304 12
-320 5 -21 14 -30 33 -32 22 -3 29 5 54 57 22 46 33 59 44 54 15 -7 75 -9 135
-5 17 2 59 -2 95 -8 36 -6 82 -9 103 -5 l37 5 0 -38 c0 -44 14 -62 47 -62 27
0 43 32 43 88 0 61 9 79 41 86 l29 5 -21 36 c-22 36 -22 37 0 150 28 149 30
167 21 190 -5 14 -21 27 -35 31 -15 4 -25 13 -25 24 0 14 11 20 45 26 68 10
75 4 76 -68 1 -35 3 -74 4 -88 1 -14 -1 -90 -5 -169 -8 -169 1 -231 35 -231
19 0 23 7 29 53 3 28 6 157 6 285 l0 232 73 0 c39 0 78 -4 86 -9 12 -8 13 -51
7 -268 -3 -142 -7 -267 -9 -278 -3 -27 37 -33 48 -8 4 10 11 92 16 183 6 91
13 210 17 265 l7 100 50 5 c28 3 60 3 73 1 28 -4 30 -36 3 -51 -32 -17 -51
-40 -51 -63 0 -38 21 -98 40 -117 17 -17 19 -35 19 -167 0 -98 4 -163 13 -193
12 -40 17 -45 43 -45 23 0 31 5 33 21 2 14 -3 23 -17 27 -19 5 -20 17 -25 338
-3 184 -8 369 -12 412 -4 62 -2 83 10 103 l16 24 220 0 c120 0 230 -4 243 -9
l25 -10 -2 -420 c0 -231 -5 -423 -9 -427 -4 -4 -10 -5 -13 -2 -3 3 -5 191 -5
418 -1 379 -2 411 -17 408 -14 -3 -17 -19 -20 -98 l-3 -95 -179 -2 -180 -2 0
100 c0 90 -2 100 -17 97 -17 -3 -18 -26 -18 -308 0 -168 -4 -326 -9 -353 -11
-61 1 -164 17 -148 6 6 35 11 63 11 71 0 103 14 117 50 14 38 23 38 42 0 17
-33 38 -41 121 -43 53 -2 57 -4 60 -27 8 -53 14 -68 33 -73 39 -10 61 29 64
117 2 58 4 66 25 71 18 4 22 12 22 48 0 24 -4 47 -9 53 -5 5 -5 18 -1 29 l9
20 2 -20 c2 -28 17 65 24 155 7 82 4 90 -40 111 -18 9 -31 23 -33 37 -3 22 -2
23 75 20 l78 -3 1 -285 c0 -157 2 -291 2 -297 1 -7 13 -13 26 -13 l25 0 3 294
c3 263 5 296 21 313 13 15 17 37 17 96 0 72 1 77 21 77 12 0 27 7 33 14 9 13
15 13 44 1 32 -14 32 -14 32 -85 0 -63 3 -74 25 -94 l25 -23 0 -250 c0 -290 3
-313 36 -313 l24 0 2 288 3 287 78 3 77 3 0 -29 c0 -20 -8 -35 -24 -45 -45
-30 -42 -113 6 -164 20 -21 21 -30 15 -155 -3 -85 -1 -157 6 -198 l12 -65 35
0 35 0 10 65 c6 38 14 60 18 53 10 -16 97 -17 130 -2 14 6 30 22 36 35 13 29
27 31 36 5 12 -38 53 -54 121 -48 l62 6 7 -54 c5 -46 9 -54 32 -60 14 -3 30
-2 34 2 16 16 30 107 39 258 5 83 15 170 23 195 18 59 11 113 -19 141 -13 12
-24 31 -24 41 0 17 7 19 63 16 l62 -3 7 -85 c3 -47 6 -181 7 -297 1 -205 2
-213 21 -213 40 0 43 29 37 322 -4 227 -3 278 8 278 19 0 25 24 25 104 0 68 2
74 25 84 31 14 33 52 5 97 -23 37 -145 145 -164 145 -7 0 -51 25 -99 55 -47
30 -91 55 -96 55 -28 0 -15 24 44 81 36 34 65 66 65 71 0 10 -30 11 -30 1 -1
-23 -85 -97 -128 -112 -28 -10 -51 -26 -59 -40 -16 -33 -31 -41 -86 -41 -49 0
-97 22 -97 45 0 8 -17 19 -37 25 -24 7 -59 34 -94 71 -54 57 -79 72 -79 48 0
-7 29 -39 64 -72 l64 -61 -72 -36 c-39 -20 -120 -66 -180 -103 -60 -37 -112
-67 -115 -67 -27 0 -36 128 -32 423 l1 99 113 -4 112 -3 0 66 c0 53 7 78 33
131 58 119 159 180 297 181 79 0 184 -25 230 -55 l30 -20 -29 26 c-35 29 -162
66 -227 66 -61 -1 -152 -24 -193 -49 -42 -26 -97 -86 -127 -139 -17 -28 -32
-42 -53 -46 -15 -3 -138 -6 -272 -6 -230 0 -243 1 -249 19 -15 50 -88 143
-132 172 -71 45 -173 73 -242 66 -132 -12 -253 -92 -307 -202 l-25 -53 -62 2
-62 1 -6 41 c-7 54 -1 1419 6 1462 l6 32 1113 0 1113 0 6 -97 c4 -54 7 -144 7
-200 0 -94 2 -104 25 -131 28 -34 32 -73 10 -92 -12 -10 -16 -31 -14 -90 1
-65 -2 -82 -20 -107 -31 -42 -32 -133 -2 -192 21 -40 22 -51 15 -157 -4 -63
-8 -114 -11 -114 -11 0 -135 68 -183 100 -94 63 -287 160 -304 154 -19 -7 -36
-35 -36 -58 0 -9 16 -33 35 -55 19 -21 35 -42 35 -46 0 -4 -9 -18 -20 -32 -50
-63 2 -150 93 -156 20 -1 68 -25 122 -59 50 -31 121 -70 158 -87 54 -24 71
-37 82 -63 7 -18 10 -36 7 -40 -4 -4 -39 -10 -79 -14 l-71 -7 -20 44 c-11 24
-34 58 -52 74 l-33 30 25 -35 c14 -19 31 -45 37 -58 18 -33 33 -128 31 -194
-1 -45 2 -58 14 -58 8 0 16 10 18 23 3 21 9 22 95 27 116 7 133 19 133 97 0
49 2 53 23 53 l24 0 8 -387 c10 -457 10 -459 19 -588 l8 -100 -70 -70 c-74
-76 -91 -116 -68 -165 21 -46 47 -52 211 -45 83 3 166 10 186 16 47 12 51 33
37 157 -10 89 -7 229 10 407 8 86 7 88 31 -40 6 -27 19 -84 31 -125 28 -101
35 -196 21 -257 -19 -78 -17 -112 8 -136 20 -21 31 -22 154 -21 73 0 149 4
169 8 33 6 39 11 48 47 15 54 5 90 -41 156 -29 42 -42 76 -58 146 -21 99 -68
524 -58 533 3 3 17 -12 31 -34 30 -48 55 -58 93 -38 47 24 75 61 80 108 5 44
-44 239 -88 350 -11 28 -17 58 -14 66 8 22 -68 171 -115 225 -46 52 -132 107
-167 107 -34 0 -28 14 13 29 20 7 53 31 75 53 34 36 44 40 90 42 47 1 54 5 96
50 l46 48 -6 58 c-5 39 -2 72 7 99 36 99 28 206 -21 277 -14 21 -26 50 -28 65
-6 43 -30 82 -81 133 -53 52 -119 86 -210 110 -87 22 -140 20 -286 -11 -125
-27 -128 -29 -128 -54 0 -32 -10 -36 -77 -31 l-53 4 0 167 c0 133 3 175 16
200 20 40 11 80 -25 115 l-29 27 -511 -3 -511 -3 0 22 c0 33 -20 71 -46 88
-34 22 -94 27 -131 11z m1195 -165 c6 -1 12 -7 12 -15 0 -8 -6 -16 -12 -18 -7
-2 -478 -3 -1045 -2 -867 1 -1033 -1 -1033 -12 0 -10 -14 -13 -52 -12 -29 1
-45 3 -35 6 9 2 17 8 17 14 0 14 -81 0 -101 -18 -8 -8 -19 -14 -22 -14 -14 0
-6 38 11 53 17 15 111 17 1103 19 596 2 1098 2 1114 1 17 -1 36 -2 43 -2z
m592 -413 c52 -17 33 -23 -65 -20 -59 3 -132 -2 -192 -13 -97 -16 -119 -24
-95 -32 6 -3 12 -15 12 -28 0 -18 -8 -25 -44 -34 -25 -6 -52 -11 -61 -11 -26
0 -83 30 -89 46 -5 12 7 14 62 12 l67 -3 3 32 c3 34 6 35 161 64 55 9 199 2
241 -13z m-462 -170 c-34 -94 -41 -119 -35 -124 13 -13 34 17 30 44 -3 25 -3
26 6 5 8 -17 19 -23 43 -24 28 0 30 -2 13 -9 -16 -7 -11 -9 21 -9 22 -1 76
-10 120 -22 65 -17 96 -19 174 -14 52 3 109 8 126 11 31 6 31 5 37 -44 3 -28
15 -69 27 -92 11 -22 18 -45 15 -50 -11 -18 -53 -11 -60 10 -9 30 -53 79 -86
95 -39 21 -108 19 -142 -3 -15 -10 -41 -38 -58 -61 l-31 -42 -32 47 c-46 71
-75 88 -146 89 -45 0 -61 4 -64 15 -2 8 -9 43 -16 77 -11 55 -11 66 4 88 17
25 62 36 54 13z m107 -263 c42 -43 51 -82 31 -129 -25 -60 -58 -86 -110 -86
-61 0 -70 18 -64 131 5 103 15 119 71 119 32 0 46 -6 72 -35z m315 0 c38 -20
60 -63 60 -119 0 -36 -6 -52 -31 -81 -40 -46 -67 -52 -117 -26 -59 30 -82 64
-82 123 0 43 4 54 34 84 39 39 86 45 136 19z m-177 -219 c18 -23 42 -38 81
-50 55 -18 57 -17 101 4 47 23 81 67 91 119 4 17 8 31 9 31 1 0 19 -7 39 -15
31 -13 43 -14 70 -4 40 14 79 6 107 -22 18 -18 20 -30 17 -70 -3 -28 -13 -58
-23 -69 -26 -29 -87 -43 -119 -29 -24 11 -29 8 -72 -40 -34 -38 -58 -54 -92
-64 -46 -14 -47 -15 -50 -60 -2 -36 -9 -51 -29 -67 -31 -24 -89 -26 -121 -4
-24 17 -30 62 -10 82 17 17 -5 32 -47 32 -38 1 -100 29 -144 66 -33 28 -91
100 -91 114 0 4 30 10 66 13 81 6 110 25 144 94 l25 51 11 -39 c7 -22 23 -54
37 -73z m-749 -68 c39 -23 103 -63 141 -89 39 -26 106 -64 150 -85 44 -22 82
-40 84 -41 5 -3 -17 -142 -24 -153 -6 -9 -161 72 -225 117 -47 33 -123 59
-141 47 -15 -9 -49 26 -49 51 0 25 24 50 39 41 6 -4 15 3 21 14 13 25 4 44
-44 88 -33 30 -46 52 -29 52 4 0 39 -19 77 -42z m469 -40 c33 -57 74 -95 134
-124 l48 -24 -110 3 -110 2 -3 40 c-3 39 6 145 13 145 2 0 14 -19 28 -42z
m225 -216 c15 -48 39 -71 84 -78 55 -9 114 12 157 58 l40 41 44 -26 c62 -37
122 -102 160 -174 31 -61 32 -62 12 -77 -29 -22 -134 -60 -143 -52 -4 4 -13
26 -19 49 l-13 42 6 -60 c3 -33 16 -87 29 -120 34 -88 62 -266 47 -299 l-12
-26 -250 -2 c-137 -1 -258 -2 -267 -2 -17 -1 -18 18 -20 249 0 138 -1 255 -2
260 -1 6 -18 9 -41 7 -22 -2 -51 -1 -65 2 -24 6 -25 10 -25 84 0 42 3 94 6
114 l7 37 96 4 c53 1 110 4 127 5 28 2 32 -2 42 -36z m-2050 -48 c38 -11 24
-21 -37 -27 -153 -16 -284 -110 -182 -130 33 -7 39 -24 21 -58 -17 -30 -37
-23 -64 23 l-25 42 -12 -29 c-27 -69 -39 -121 -39 -171 0 -61 11 -94 47 -147
18 -26 23 -41 16 -48 -34 -34 -93 68 -101 174 -9 124 42 243 133 313 66 50
175 76 243 58z m860 -261 c-3 -15 -29 -17 -248 -17 -233 -1 -245 -2 -242 -20
2 -11 -1 -15 -7 -11 -12 7 -15 48 -4 58 4 4 119 7 255 7 225 -1 249 -3 246
-17z m1740 -40 c23 -53 92 -316 92 -349 0 -34 -35 -66 -79 -71 -52 -6 -64 12
-95 153 -13 60 -35 139 -49 177 l-25 67 62 35 c33 19 64 35 67 35 4 0 16 -21
27 -47z m-2086 -325 c2 -145 2 -265 1 -267 -1 -2 -23 15 -50 37 -26 22 -75 53
-108 69 -33 17 -87 44 -120 61 -33 18 -72 32 -87 32 -18 0 -28 5 -28 15 0 8 9
15 20 15 11 0 44 22 74 49 30 27 63 54 74 60 11 6 22 20 25 32 l6 21 -22 -20
c-22 -19 -47 -20 -47 0 0 16 61 89 70 83 9 -6 20 18 20 45 0 19 20 24 127 28
l42 2 3 -262z m-1783 -92 c21 -17 159 -12 214 7 45 16 50 16 80 1 18 -9 72
-57 121 -106 81 -81 88 -91 78 -112 -17 -37 -48 -39 -85 -4 -18 16 -41 34 -51
40 -18 10 -17 8 2 -17 33 -41 27 -49 -15 -20 l-38 25 -241 0 -242 0 -36 -42
-35 -43 -80 -3 c-75 -4 -81 -3 -81 15 0 22 21 43 98 96 59 42 67 44 81 20 9
-16 12 -16 21 -3 5 8 10 23 10 32 0 24 103 126 132 130 27 4 47 -1 67 -16z
m2388 -26 c60 -47 142 -48 222 -4 24 13 49 24 55 24 20 0 126 -90 126 -106 0
-12 6 -15 21 -11 12 3 32 1 45 -5 19 -9 24 -19 24 -48 0 -49 -18 -64 -70 -55
-39 7 -68 35 -56 54 3 5 -1 14 -9 21 -13 10 -15 9 -15 -11 l0 -24 -220 4 -220
3 -49 -26 c-31 -16 -52 -22 -56 -16 -4 6 -9 34 -12 63 -6 64 13 93 89 131 62
31 91 33 125 6z m-1240 -11 c49 -31 144 -31 201 -1 23 12 52 22 63 22 33 0 82
-29 122 -73 32 -36 37 -48 37 -90 l0 -48 -28 19 c-35 26 -21 25 -283 23 -224
-1 -227 -1 -263 -26 -20 -14 -39 -25 -43 -25 -6 0 5 122 13 152 5 17 60 47
109 59 17 4 32 7 34 8 2 1 19 -9 38 -20z m508 -87 c12 -9 27 -29 34 -44 8 -15
19 -24 27 -21 21 8 83 -17 94 -37 19 -35 11 -48 -40 -65 -54 -18 -183 -18
-172 0 10 16 10 49 1 61 -5 7 -6 37 -3 68 7 61 21 70 59 38z m244 -38 c41 -12
59 -13 86 -4 43 14 50 10 74 -44 18 -41 22 -44 69 -51 28 -4 53 -13 56 -20 3
-8 -2 -14 -12 -13 -9 0 -55 -3 -102 -7 -47 -4 -92 -7 -100 -6 -8 1 -34 2 -57
2 -39 1 -43 4 -43 26 0 14 -13 37 -30 55 -34 34 -41 78 -12 78 10 0 42 -7 71
-16z m-1269 -23 c34 -20 45 -34 45 -52 0 -22 -5 -25 -80 -36 -170 -27 -185
-27 -185 -9 0 12 9 16 38 16 48 0 79 22 99 71 8 21 20 39 27 38 6 0 31 -13 56
-28z m2383 -26 c27 -28 37 -65 16 -65 -5 0 -8 -4 -5 -9 8 -13 -48 -21 -81 -12
-15 4 -34 6 -42 3 -8 -3 -11 0 -7 7 5 7 -1 11 -13 11 -27 0 -27 3 9 38 17 17
30 39 30 50 0 10 3 21 6 25 9 9 55 -17 87 -48z m-2691 -43 c17 -17 24 -170 9
-185 -6 -6 -11 -19 -11 -29 0 -10 -5 -18 -10 -18 -7 0 -8 27 -4 79 7 87 1 131
-20 131 -17 0 -26 -44 -26 -134 l0 -71 -170 0 c-141 0 -172 3 -180 15 -5 8
-10 52 -10 98 0 75 -2 82 -20 82 -19 0 -20 -7 -22 -97 -1 -54 -2 -123 -2 -153
-1 -30 -2 -179 -4 -330 -1 -212 -5 -271 -14 -262 -12 12 -14 74 -20 640 -3
198 -1 234 12 243 24 15 476 7 492 -9z m2409 -3 c21 -21 22 -43 7 -271 -8
-125 -18 -83 -18 78 0 151 -8 202 -25 174 -4 -6 -10 -53 -14 -103 -4 -64 -10
-92 -18 -91 -7 1 -87 2 -178 3 l-165 1 0 73 c0 84 -7 117 -25 117 -21 0 -22
-14 -16 -205 3 -99 5 -202 5 -230 0 -57 -15 -332 -20 -355 -1 -8 -3 -19 -4
-25 0 -5 -5 -3 -10 6 -5 9 -6 68 -1 145 9 137 8 228 -4 499 -7 154 -6 172 9
188 15 15 43 17 237 17 208 0 220 -1 240 -21z m-2033 -160 c3 -55 -11 -88 -24
-55 -4 10 -12 13 -27 7 -12 -4 -74 -7 -137 -7 l-115 1 3 25 c1 14 5 40 8 58
l5 33 141 -3 142 -3 4 -56z m174 46 l67 -7 7 -34 c3 -19 5 -36 3 -38 -2 -2
-45 -8 -96 -13 l-91 -9 -6 36 c-12 70 -9 80 22 75 15 -2 57 -7 94 -10z m863 3
c3 -2 6 -27 7 -54 l3 -49 -94 -3 -94 -3 7 32 c3 17 6 45 6 62 l0 30 80 -5 c44
-3 82 -7 85 -10z m446 -15 c5 -13 9 -39 9 -56 l0 -32 -105 0 -105 0 0 58 0 58
96 -2 c91 -2 96 -3 105 -26z m789 -37 l0 -53 -72 4 c-95 6 -98 7 -98 42 0 57
5 61 91 61 l79 0 0 -54z m833 -78 c8 -43 12 -80 9 -83 -9 -9 -201 -5 -207 4
-4 8 -24 173 -21 178 1 1 44 5 96 10 110 9 100 18 123 -109z m-388 -3 l0 -100
-84 3 c-132 5 -131 5 -131 112 l0 91 108 -3 107 -3 0 -100z m-989 -312 c12
-49 19 -91 17 -95 -2 -5 -32 -8 -67 -8 l-63 0 -6 82 c-4 45 -4 84 -2 87 3 2
24 8 48 12 23 3 44 7 47 8 3 0 15 -38 26 -86z m-1237 -14 c12 -50 21 -92 21
-95 0 -2 -32 -4 -71 -4 l-72 0 7 83 c7 89 18 107 67 107 26 0 28 -4 48 -91z
m-1125 70 c7 -7 24 -143 19 -151 -2 -5 -42 -8 -88 -8 l-83 0 -4 81 c-2 44 -1
83 1 85 5 5 150 -1 155 -7z m1370 -26 c3 -21 7 -58 8 -83 l3 -45 -63 -3 c-55
-3 -62 -1 -62 16 0 23 20 135 27 145 2 4 22 7 43 7 37 0 38 -2 44 -37z m-1178
11 c-3 -9 -6 -45 -6 -80 l0 -64 -60 0 c-59 0 -60 0 -60 29 0 15 3 49 6 74 7
50 13 54 83 56 35 1 42 -2 37 -15z m2434 -63 c0 -44 -3 -82 -7 -84 -5 -3 -34
-2 -66 1 l-59 5 7 61 c10 98 9 96 71 96 l54 0 0 -79z m1172 64 c60 6 79 -4 58
-30 -10 -12 -40 -15 -139 -15 -141 0 -201 12 -201 38 0 16 10 17 113 9 61 -4
137 -5 169 -2z m-422 -11 c0 -28 -31 -34 -176 -36 -159 -2 -194 4 -194 30 0
15 18 17 185 17 131 0 185 -3 185 -11z"/>
<path d="M955 9001 c-95 -7 -135 -26 -173 -83 l-27 -42 0 -315 c0 -303 1 -318
22 -363 11 -25 31 -51 43 -58 16 -9 19 -15 10 -25 -8 -10 -8 -30 0 -78 11 -59
10 -68 -10 -108 -12 -23 -33 -72 -47 -108 -13 -36 -38 -80 -55 -98 -28 -29
-31 -40 -35 -105 -5 -89 15 -137 67 -154 l32 -11 5 -369 5 -369 -47 64 c-65
88 -183 205 -234 231 -86 43 -131 14 -131 -85 1 -129 41 -256 112 -349 36 -49
31 -26 -16 71 -36 74 -56 166 -56 261 0 105 11 112 93 56 83 -57 143 -122 203
-216 67 -106 75 -145 73 -362 l-2 -150 -29 65 c-16 35 -40 100 -54 144 -59
186 -125 334 -168 374 l-26 24 0 -23 c0 -13 9 -42 19 -64 44 -93 64 -145 87
-216 13 -41 24 -78 24 -82 0 -14 -29 -8 -134 27 -127 42 -209 47 -227 14 -41
-78 96 -239 323 -377 76 -47 87 -50 189 -61 4 -1 9 -23 11 -50 6 -61 26 -93
80 -129 l41 -27 371 -7 c406 -9 545 -4 586 17 39 20 78 70 89 113 12 46 20
465 21 1042 l0 436 32 9 c48 15 69 59 69 143 0 64 -5 80 -69 218 l-69 149 2
88 c2 76 6 91 23 103 11 7 28 33 38 56 15 36 18 85 23 313 4 149 3 290 -2 315
-8 51 -48 106 -98 135 -33 19 -53 20 -469 21 -239 1 -471 -2 -515 -5z m967
-63 c64 -29 69 -52 68 -281 -1 -202 -3 -237 -15 -312 -3 -22 -6 -47 -6 -55 -1
-43 -24 -75 -51 -71 -5 0 -8 -4 -8 -9 0 -6 -7 -10 -15 -10 -18 0 -20 31 -3 48
17 17 33 15 19 -2 -9 -11 -6 -12 14 -8 18 3 24 9 21 19 -4 9 -2 11 6 7 8 -5 9
-1 4 12 -16 40 -19 50 -8 36 7 -11 10 -11 15 2 4 9 2 16 -2 16 -5 0 -12 7 -15
16 -4 12 -2 15 9 10 19 -7 19 1 -1 21 -13 14 -17 14 -25 2 -7 -10 -9 -8 -9 11
-2 90 -11 305 -16 356 -7 81 -29 102 -116 114 -35 5 -125 8 -200 7 -75 -1
-134 1 -132 5 3 5 -2 8 -10 8 -8 0 -18 -5 -21 -10 -5 -8 -11 -8 -19 -1 -7 6
-15 8 -18 5 -11 -10 -67 -13 -73 -3 -4 6 -13 6 -24 0 -10 -6 -71 -8 -137 -6
-176 6 -216 0 -257 -42 -32 -32 -55 -83 -36 -83 4 0 10 10 12 23 4 19 4 18 6
-5 1 -18 -4 -28 -13 -28 -8 0 -12 -7 -10 -17 2 -10 6 -65 7 -123 2 -58 7 -113
11 -123 6 -13 5 -16 -6 -12 -11 4 -15 -2 -15 -25 0 -24 4 -30 16 -25 11 3 9 0
-4 -11 -19 -15 -19 -16 10 -10 17 3 87 8 157 11 l127 5 21 -66 c24 -79 24 -74
5 -74 -14 0 -30 43 -37 100 -2 18 -8 24 -23 22 -11 -1 -58 -6 -104 -10 l-85
-7 3 -103 c2 -87 0 -103 -14 -108 -9 -4 -18 -4 -21 -2 -3 3 -10 52 -17 109 -9
80 -15 104 -27 104 -8 0 -18 4 -22 10 -4 5 -10 6 -14 2 -4 -4 0 -13 9 -20 11
-9 16 -30 17 -77 2 -98 2 -98 -19 -72 -23 27 -28 81 -37 395 -5 220 -5 229 16
272 23 47 43 63 95 76 17 4 244 7 505 6 420 -2 479 -4 512 -19z m-621 -169
c299 0 329 -2 329 -21 0 -7 -5 -6 -15 2 -8 7 -26 9 -44 5 -17 -4 -34 -6 -37
-5 -4 1 -11 -4 -15 -12 -7 -10 -9 -10 -9 0 0 6 -12 12 -27 12 -21 0 -24 -3
-13 -9 8 -6 18 -7 22 -5 4 3 8 0 8 -7 0 -7 -10 -9 -30 -5 -30 5 -35 0 -30 -33
1 -8 -4 -18 -12 -22 -10 -7 -10 -9 0 -9 6 0 12 -7 12 -15 0 -8 5 -15 10 -15
22 0 8 -19 -21 -29 -18 -6 -28 -15 -24 -21 5 -8 12 -6 24 4 10 9 22 16 28 16
6 0 16 7 23 15 12 15 30 12 30 -5 0 -10 -60 -32 -60 -22 0 4 -4 3 -8 -3 -20
-28 -42 -38 -57 -25 -20 17 -32 5 -15 -15 14 -17 41 -20 56 -6 5 5 20 12 34
16 22 7 23 6 11 -9 -11 -13 -11 -22 -3 -39 34 -72 7 -206 -42 -207 -6 0 -2 6
8 13 11 8 16 20 13 28 -4 10 -6 9 -6 -3 -1 -12 -9 -18 -23 -18 -12 0 -18 3
-15 7 4 3 2 12 -3 18 -8 10 -21 10 -52 2 -30 -7 -46 -7 -59 1 -10 7 -26 12
-34 12 -8 0 -15 5 -15 11 0 5 -5 7 -11 3 -8 -5 -10 0 -6 17 6 25 -8 53 -31 60
-9 3 -9 9 3 27 20 28 39 28 53 0 9 -20 12 -18 12 7 0 3 9 14 20 25 11 11 20
26 20 34 0 8 9 18 20 21 11 4 18 11 14 16 -3 6 -16 4 -31 -6 -14 -9 -26 -15
-27 -13 -4 4 -36 71 -36 74 0 1 8 0 18 -2 9 -3 25 1 35 8 18 13 17 14 -2 14
-11 0 -17 -4 -14 -9 8 -13 -51 -3 -66 11 -12 12 -12 15 0 24 11 7 11 11 1 15
-6 2 -10 9 -6 14 3 5 -2 9 -10 9 -9 0 -16 -6 -16 -14 0 -8 -4 -18 -10 -21 -5
-3 -10 3 -10 15 0 12 9 24 23 30 20 8 21 9 2 10 l-20 1 20 9 c13 6 -13 9 -80
9 -144 0 -147 0 -140 11 4 6 15 8 24 5 10 -3 150 -6 312 -6z m457 -245 c14 -4
17 -121 3 -144 -7 -10 -36 -15 -106 -18 -82 -4 -96 -7 -93 -21 3 -13 21 -16
113 -19 105 -3 155 -15 104 -26 -13 -3 -46 -10 -74 -15 -27 -6 -75 -12 -105
-15 -47 -3 -56 -7 -61 -27 -4 -13 -8 -22 -9 -19 -2 3 -4 76 -5 163 l-3 157
112 -6 c61 -3 117 -7 124 -10z m-650 -176 c7 -7 12 -31 12 -54 0 -44 -10 -54
-54 -54 -32 0 -86 -20 -86 -32 0 -5 5 -6 10 -3 6 3 10 1 10 -5 0 -6 -10 -10
-22 -8 -20 3 -23 10 -26 56 -2 30 -1 65 3 79 5 22 9 24 40 19 22 -4 35 -3 35
4 0 14 63 13 78 -2z m344 -194 c-10 -79 -23 -203 -29 -278 -7 -101 -17 -92
-28 24 -3 41 -13 113 -21 159 -19 113 -20 109 24 114 51 5 57 3 54 -19z m385
-10 c8 -11 28 -18 55 -20 43 -2 43 -2 42 -41 0 -21 -4 -64 -8 -97 l-8 -58
-196 6 c-109 4 -205 10 -214 12 -23 7 -31 53 -23 137 4 40 9 74 10 77 2 3 76
4 166 3 143 -1 165 -4 176 -19z m-518 -16 c11 -31 35 -221 29 -238 -5 -15 5
-14 -166 -30 -73 -7 -148 -10 -166 -7 -25 4 -36 1 -40 -10 -11 -28 -6 -35 22
-29 15 3 56 8 92 11 36 3 107 10 159 15 52 6 96 8 98 6 3 -2 5 -26 6 -53 l2
-48 -222 -3 -223 -2 -4 22 c-22 120 -48 319 -43 331 7 18 39 24 232 38 83 6
152 13 154 15 2 2 17 4 33 4 20 0 31 -6 37 -22z m261 -223 c0 -6 55 -10 144
-11 78 -1 155 -4 170 -8 27 -7 28 -8 23 -74 l-4 -67 -209 3 c-115 2 -213 8
-218 12 -5 5 -2 29 7 57 14 42 14 50 1 64 -24 27 -16 34 36 34 27 0 50 -4 50
-10z m457 -229 c10 -9 -12 -139 -25 -152 -12 -13 -36 -14 -131 -9 -68 3 -118
10 -120 17 -2 6 -7 5 -12 -3 -8 -12 -11 -11 -19 1 -5 8 -10 10 -10 4 0 -7 -9
-14 -20 -17 -22 -6 -25 7 -14 62 7 33 25 40 46 18 7 -8 19 -12 28 -10 8 2 26
0 40 -6 24 -9 24 -10 -7 -10 -18 -1 -33 -6 -33 -12 0 -5 4 -8 9 -5 5 4 34 7
65 7 31 1 59 6 62 11 3 5 11 5 18 -1 7 -6 17 -6 26 -1 12 8 11 10 -5 11 -11 0
-15 3 -8 5 7 3 9 12 6 21 -3 8 0 19 8 24 11 7 11 9 1 9 -7 0 -10 5 -7 10 3 6
-1 10 -10 10 -8 0 -18 -7 -21 -15 -7 -17 -45 -20 -60 -5 -12 12 -294 19 -294
8 0 -5 10 -8 23 -9 45 -1 100 -8 106 -15 3 -3 -14 -5 -39 -4 -62 3 -66 2 -52
-12 7 -7 12 -16 12 -22 0 -5 -8 0 -17 11 -22 24 -63 39 -63 23 0 -7 -8 -9 -19
-5 -18 5 -18 3 -4 -39 10 -29 20 -43 28 -40 7 3 16 1 20 -5 3 -6 3 -11 -2 -12
-4 0 -28 -3 -51 -5 -32 -4 -42 -2 -37 6 5 8 1 10 -11 6 -22 -6 -455 -8 -556
-2 -38 2 -68 1 -68 -3 0 -4 -15 -8 -33 -9 -27 -2 -36 2 -45 23 -17 37 -15 107
4 133 l16 23 636 -5 c350 -4 637 -8 639 -10z m-1151 -239 c-13 -9 -16 -20 -11
-40 l7 -27 513 0 513 0 -3 -202 c-2 -112 -7 -318 -10 -458 -4 -140 -6 -285 -5
-322 0 -37 -4 -102 -9 -145 -6 -43 -13 -98 -15 -123 -9 -86 -19 -130 -27 -130
-5 0 -9 -7 -9 -15 0 -18 -30 -20 -31 -2 0 6 -5 2 -11 -10 -9 -18 -20 -23 -52
-24 -23 -1 -174 -3 -336 -4 -350 -4 -396 -7 -235 -15 l120 -6 -173 -2 c-130
-1 -171 1 -166 10 5 8 2 9 -11 4 -10 -4 -28 0 -41 9 -51 33 -51 34 -58 590 -3
286 -9 611 -12 723 l-6 202 43 0 c37 0 41 -2 25 -13z m-463 -966 c83 -29 192
-89 227 -125 37 -37 76 -114 95 -185 l13 -51 -26 6 c-107 26 -356 210 -400
296 -41 79 -15 95 91 59z"/>
<path d="M2277 8996 c-45 -16 -82 -48 -105 -91 -15 -26 -17 -68 -16 -330 1
-197 6 -315 14 -344 13 -49 58 -98 93 -103 20 -3 22 -9 25 -75 3 -68 1 -74
-33 -122 -20 -27 -47 -78 -61 -113 -14 -35 -38 -79 -52 -98 -20 -26 -27 -49
-30 -97 -5 -76 9 -114 54 -151 l33 -28 6 -709 c4 -424 10 -729 17 -757 11 -52
65 -111 115 -125 16 -5 231 -8 478 -8 l450 0 37 23 c54 33 78 73 88 144 5 33
10 373 11 754 l2 694 22 0 c47 0 85 69 85 156 0 46 -5 62 -35 105 -19 28 -35
56 -35 61 0 26 -64 166 -87 190 -22 23 -24 31 -18 69 6 34 18 54 55 89 74 71
78 97 82 456 l3 300 -27 41 c-53 80 -36 78 -618 80 -418 2 -522 0 -553 -11z
m1058 -44 c35 -12 56 -27 73 -51 22 -34 23 -40 21 -260 -2 -299 -10 -391 -38
-433 l-22 -33 6 66 c6 63 5 67 -20 83 l-26 17 3 230 3 231 -32 28 -32 29 -461
-4 -462 -3 -24 -23 -24 -22 5 -271 c3 -149 8 -287 11 -306 7 -49 -7 -67 -42
-55 -69 25 -83 92 -83 425 -1 222 6 265 47 311 51 57 62 58 577 58 417 0 476
-2 520 -17z m-82 -165 c16 -11 17 -28 8 -211 -6 -109 -13 -201 -16 -204 -3 -3
-43 6 -88 20 -70 23 -164 44 -282 64 -73 12 -155 34 -220 59 -71 27 -171 40
-181 24 -3 -5 -9 -7 -13 -5 -4 3 -13 -4 -20 -16 -7 -11 -8 -17 -2 -13 6 3 11
2 11 -4 0 -5 -5 -13 -11 -17 -8 -4 -8 -9 0 -17 7 -7 16 -5 30 7 13 11 20 13
23 6 6 -19 78 -17 93 3 7 9 16 17 20 17 17 0 -1 -89 -111 -545 -19 -82 -39
-163 -42 -180 -6 -24 -15 -31 -45 -38 -25 -6 -42 -5 -51 2 -8 7 -17 59 -25
143 -14 144 -11 172 33 373 13 60 22 113 20 117 -4 7 -10 98 -18 300 l-5 106
397 0 c228 0 412 5 432 10 19 6 38 10 41 11 3 1 13 -5 22 -12z m-550 -343 c13
-5 17 -18 17 -61 0 -53 1 -54 27 -51 23 2 29 10 36 41 10 39 31 57 48 40 5 -5
13 -29 17 -54 11 -62 35 -64 64 -5 14 30 28 46 41 46 16 0 18 -7 16 -52 -3
-45 0 -52 20 -59 19 -8 24 -4 37 26 8 19 14 42 14 50 0 11 7 15 23 13 19 -3
22 -9 24 -58 2 -39 7 -58 20 -68 30 -22 47 -10 57 41 7 40 12 47 32 47 21 0
23 -4 26 -62 4 -79 22 -86 50 -19 19 46 35 61 50 45 3 -3 2 -22 -3 -42 -5 -20
-18 -82 -29 -136 -12 -55 -24 -105 -28 -110 -4 -6 -7 -13 -8 -16 -1 -3 -5 -21
-10 -40 -7 -32 -8 -33 -14 -11 -3 13 5 65 17 115 26 104 28 129 11 124 -13 -5
-23 -38 -73 -238 -39 -156 -47 -184 -58 -197 -11 -16 -137 -18 -137 -3 0 6 -6
10 -14 10 -8 0 -18 4 -21 10 -4 6 1 7 12 3 15 -5 16 -3 6 8 -7 7 -13 24 -13
37 0 15 -5 22 -12 19 -7 -2 -11 -11 -9 -18 2 -8 5 -26 7 -41 4 -31 -12 -39
-19 -10 -4 13 -5 11 -6 -5 -1 -22 -5 -23 -95 -23 -86 0 -95 2 -101 20 -7 24
-30 26 -39 5 -3 -10 -19 -15 -42 -15 -33 0 -36 2 -29 23 8 25 17 172 10 165
-3 -2 -11 -42 -19 -87 -8 -45 -20 -89 -27 -97 -6 -8 -27 -14 -45 -14 -32 0
-34 2 -28 28 3 15 10 40 15 57 16 50 116 486 130 563 8 45 16 71 23 67 6 -3
19 -8 29 -11z m745 -762 c20 -13 22 -76 4 -122 l-18 -45 -154 -6 c-85 -3 -366
-4 -625 -2 -519 3 -486 -1 -499 68 -4 19 -2 53 4 75 l11 40 633 -1 c348 0 638
-4 644 -7z m-698 -232 c312 -1 450 -4 450 -12 0 -7 4 -7 13 -1 6 5 40 10 75
12 l63 2 -6 -298 c-4 -164 -7 -325 -7 -358 0 -33 -6 -63 -12 -67 -8 -6 -7 -8
1 -8 15 0 16 -8 15 -265 0 -262 -11 -439 -26 -461 -11 -15 -13 -12 -12 22 1
72 -4 197 -8 193 -2 -2 -9 -56 -15 -119 -6 -63 -14 -126 -18 -139 l-6 -23 29
18 29 18 -19 -22 c-10 -11 -32 -26 -50 -31 -38 -13 -893 -12 -918 1 -10 4 -29
29 -44 53 l-26 46 -9 437 c-4 240 -8 567 -9 726 l0 289 30 -7 c17 -3 233 -6
480 -6z"/>
<path d="M3752 8999 c-67 -9 -125 -46 -154 -102 -22 -41 -23 -49 -22 -327 1
-317 6 -351 58 -404 28 -27 36 -45 46 -105 11 -67 11 -74 -7 -94 -32 -37 -51
-71 -103 -193 -39 -92 -50 -128 -50 -171 0 -70 21 -118 59 -138 l31 -16 0
-682 c1 -375 3 -707 7 -737 6 -68 23 -101 66 -134 73 -56 72 -56 529 -56 272
0 437 4 463 11 61 16 113 72 120 128 11 80 12 81 58 81 88 0 264 106 377 227
96 101 130 181 94 217 -43 44 -230 -14 -325 -101 l-27 -25 18 64 c10 35 25 83
34 107 9 24 16 51 16 60 0 9 12 43 26 76 14 33 29 79 33 103 7 36 5 42 -8 40
-25 -5 -59 -78 -105 -225 -24 -76 -60 -178 -81 -228 -20 -49 -46 -114 -57
-142 -12 -29 -25 -53 -29 -53 -12 0 -11 366 1 430 7 39 28 80 76 151 87 129
130 177 199 218 75 46 83 37 79 -92 -3 -105 -23 -175 -83 -299 l-38 -78 29 18
c69 40 126 215 130 396 1 83 -15 116 -56 116 -34 0 -118 -54 -165 -106 -24
-27 -56 -63 -71 -79 -15 -17 -46 -57 -69 -90 -22 -32 -41 -54 -42 -49 -1 11 3
677 5 719 1 25 6 31 28 33 53 6 83 80 72 178 -5 39 -14 61 -30 77 -13 12 -24
25 -24 30 0 4 -20 48 -45 99 -32 65 -43 99 -39 117 14 64 49 162 82 230 l36
74 8 261 c5 144 6 277 2 296 -11 67 -43 119 -92 148 l-47 27 -480 0 c-264 0
-504 -3 -533 -6z m1016 -60 c85 -42 95 -92 84 -434 -6 -174 -11 -217 -26 -247
-28 -58 -68 -42 -46 18 17 43 12 75 -14 95 l-25 19 6 203 c5 193 5 203 -15
227 l-20 25 -454 5 c-412 5 -456 3 -489 -12 -22 -10 -40 -28 -47 -45 -6 -16
-12 -131 -15 -260 -4 -204 -7 -235 -23 -264 -51 -87 -63 -33 -66 302 l-3 277
31 38 c60 77 40 74 588 74 480 0 491 0 534 -21z m-86 -161 c7 -21 -12 -332
-21 -341 -4 -4 -22 -1 -40 6 -47 20 -90 10 -110 -25 -11 -19 -32 -34 -63 -46
-33 -11 -50 -24 -57 -42 -13 -37 -33 -60 -56 -64 -35 -6 -118 -16 -173 -21
-52 -4 -53 -3 -78 36 -13 22 -40 56 -58 77 -18 20 -39 54 -47 75 -24 69 -37
73 -119 37 -40 -16 -74 -29 -76 -28 -1 2 -4 77 -5 168 l-3 165 395 5 c217 3
419 6 450 8 38 1 58 -2 61 -10z m-762 -349 c23 -42 10 -58 -83 -95 -98 -40
-118 -39 -111 3 7 39 19 50 72 68 26 9 58 22 72 30 33 19 37 19 50 -6z m62
-126 c7 -10 22 -23 33 -29 20 -11 27 -31 38 -99 6 -37 4 -41 -15 -42 -12 -1
-24 -6 -27 -10 -7 -11 -131 -63 -148 -63 -7 0 -13 -2 -13 -4 0 -2 -3 -11 -6
-20 -11 -29 51 -18 132 24 42 22 80 37 84 35 4 -3 15 -40 24 -82 10 -43 26
-116 38 -161 12 -51 17 -87 11 -93 -11 -11 -168 -14 -244 -4 -56 7 -57 8 -63
44 -3 20 -12 68 -20 106 -12 61 -12 75 0 105 10 23 11 36 4 38 -5 2 -10 9 -10
16 0 6 -10 12 -21 13 -19 2 -21 -2 -16 -35 6 -39 42 -228 53 -274 9 -41 -22
-37 -35 5 -22 68 -51 209 -61 298 -6 52 -13 108 -15 125 -5 29 -2 32 52 57 74
35 162 65 190 66 12 1 28 -7 35 -16z m624 -54 c134 -64 168 -87 156 -102 -12
-16 -32 -79 -37 -116 -7 -52 -25 -111 -35 -111 -6 0 -10 8 -11 18 0 12 -3 10
-12 -8 -14 -30 -32 -50 -45 -50 -6 0 -13 -13 -17 -30 -9 -40 -25 -48 -25 -13
0 75 -87 134 -140 95 -14 -10 -44 -56 -68 -103 l-42 -84 -46 -2 c-42 -2 -45
-1 -39 20 4 12 9 31 12 42 26 106 147 460 170 499 10 16 70 -2 179 -55z m-276
-82 c0 -1 -14 -38 -31 -82 -35 -89 -74 -208 -84 -256 -9 -38 -18 -29 -38 36
-13 39 -57 266 -57 289 0 3 39 7 88 9 48 1 95 4 105 5 9 1 17 1 17 -1z m180
-265 c23 -19 38 -81 32 -134 l-3 -28 -90 0 c-49 0 -89 2 -89 5 0 8 81 139 98
158 19 21 24 21 52 -1z m258 -218 l92 -7 0 -62 c0 -45 -5 -69 -17 -84 -18 -20
-23 -20 -631 -22 -553 -2 -615 0 -630 14 -20 21 -29 131 -12 152 11 13 86 15
560 15 301 0 588 -3 638 -6z m-526 -248 c6 -8 8 -7 8 3 0 8 6 11 18 6 9 -3 68
-6 130 -6 69 1 112 -3 112 -9 0 -5 -5 -10 -11 -10 -5 0 -8 -4 -4 -10 7 -12 35
-1 32 13 -2 12 -2 12 142 21 l94 5 -6 -162 c-3 -89 -8 -411 -11 -715 -3 -376
-8 -557 -15 -566 -6 -7 -9 -16 -6 -19 3 -4 2 -4 -2 -1 -5 3 -8 22 -9 42 0 20
-2 64 -2 96 -1 33 -4 57 -6 55 -2 -2 -9 -58 -15 -123 -9 -88 -9 -121 -1 -126
26 -16 -42 -20 -464 -27 l-443 -6 -41 23 c-70 40 -75 60 -83 345 -4 138 -8
462 -8 720 l-1 470 292 -4 c206 -2 295 -6 300 -15z m1032 -952 c24 -9 20 -35
-14 -88 -41 -63 -44 -67 -131 -140 -82 -69 -134 -99 -189 -111 -19 -4 -41 -12
-47 -17 -21 -17 -16 13 17 92 17 41 42 89 56 108 32 41 139 112 214 140 61 23
71 25 94 16z"/>
<path d="M7613 8968 c-23 -29 -113 -236 -113 -261 0 -18 7 -28 22 -33 13 -4
24 -2 26 5 12 35 40 53 81 53 47 -1 71 -15 71 -43 0 -15 7 -19 35 -19 34 0 35
1 29 28 -8 31 -78 215 -97 252 -15 29 -39 37 -54 18z"/>
<path d="M7398 8858 l-3 -113 -29 -3 c-20 -3 -32 3 -43 17 -11 17 -18 19 -34
11 -42 -23 -5 -81 61 -95 33 -7 93 23 104 51 3 9 6 67 6 130 l0 114 -30 0 -29
0 -3 -112z"/>
<path d="M7844 8941 c-17 -10 -41 -33 -54 -51 -30 -42 -24 -113 13 -169 34
-51 77 -64 153 -49 50 10 55 13 64 47 5 20 10 50 10 68 0 30 -2 31 -50 38 -27
4 -54 4 -60 0 -18 -11 -11 -33 15 -39 20 -5 25 -13 25 -38 0 -30 -1 -31 -41
-25 -22 3 -49 13 -59 22 -23 21 -35 87 -21 114 14 26 70 41 115 31 38 -8 46
-5 46 20 0 49 -96 68 -156 31z"/>
<path d="M8114 8866 c3 -21 14 -49 26 -61 25 -26 25 -34 3 -29 -44 11 -106
-95 -65 -111 9 -3 18 -2 20 4 8 24 45 61 60 61 9 0 35 -11 57 -25 43 -26 84
-35 53 -11 -10 7 -18 17 -18 21 0 10 -78 119 -113 158 l-29 32 6 -39z"/>
<path d="M7194 8576 c-32 -14 -64 -51 -64 -73 0 -24 61 -82 93 -89 72 -15 111
-53 71 -68 -28 -11 -78 -6 -98 9 -25 19 -50 19 -65 2 -14 -17 8 -39 62 -62 72
-30 138 -9 164 52 27 67 3 98 -101 128 -31 9 -56 19 -56 21 0 3 5 15 11 26 10
19 17 20 80 14 80 -8 90 3 29 34 -45 23 -82 25 -126 6z"/>
<path d="M7599 8498 c-1 -118 -7 -140 -42 -149 -21 -6 -34 -2 -54 15 -25 22
-27 30 -31 120 l-4 96 -29 0 -29 0 0 -105 c0 -117 7 -141 54 -173 52 -36 98
-30 152 20 l45 41 -3 111 -3 111 -27 3 -28 3 -1 -93z"/>
<path d="M8420 8588 c-8 -163 -8 -288 1 -293 17 -11 56 4 61 22 2 10 2 75 0
146 l-4 127 -29 0 c-16 0 -29 -1 -29 -2z"/>
<path d="M7707 8573 c-4 -3 -7 -70 -7 -148 l0 -141 34 4 34 4 -5 96 -5 97 24
-36 c24 -38 73 -93 125 -142 19 -18 36 -25 46 -21 15 5 17 24 17 138 0 140 -5
156 -47 156 -21 0 -22 -4 -25 -87 l-3 -87 -41 55 c-77 101 -123 137 -147 112z"/>
<path d="M8089 8559 c-47 -28 -69 -67 -69 -124 0 -54 18 -93 60 -128 24 -21
37 -25 68 -20 20 3 41 9 46 14 5 5 15 4 21 -1 16 -14 77 -15 101 -2 33 18 41
34 48 95 l7 57 -66 0 c-59 0 -65 -2 -65 -20 0 -15 9 -22 30 -26 24 -5 30 -12
30 -32 0 -23 -3 -24 -36 -19 -65 11 -91 51 -57 89 9 10 13 21 9 25 -4 4 -10 2
-14 -4 -4 -6 -16 -12 -27 -14 -27 -6 -34 -56 -8 -66 45 -17 44 -53 -2 -53 -93
0 -127 145 -45 187 30 15 110 17 110 3 0 -5 25 -10 55 -10 65 0 74 19 23 50
-47 29 -169 28 -219 -1z"/>
<path d="M7561 8149 l-61 -61 0 56 c0 55 0 56 -29 56 -27 0 -30 -3 -36 -50 -8
-61 3 -210 17 -227 20 -25 36 -13 43 35 4 26 9 51 12 55 7 11 61 -41 79 -75
15 -29 52 -45 80 -34 15 6 15 9 -1 34 -10 15 -35 48 -57 73 -21 26 -38 53 -38
61 0 7 23 36 50 63 55 54 62 75 26 75 -15 0 -44 -21 -85 -61z"/>
<path d="M7714 8078 c8 -156 13 -178 37 -178 18 0 19 9 19 128 0 70 3 137 6
150 6 20 3 22 -31 22 l-38 0 7 -122z"/>
<path d="M7820 8164 c0 -34 1 -35 29 -29 35 7 37 0 47 -138 l7 -98 26 3 26 3
-4 118 -3 117 35 0 c40 0 51 11 42 40 -6 18 -15 20 -106 20 l-99 0 0 -36z"/>
<path d="M8104 8163 c-50 -115 -94 -230 -94 -245 0 -33 45 -22 61 15 13 30 17
32 71 35 53 3 57 1 70 -25 13 -28 37 -39 64 -29 13 5 12 11 -2 43 -9 21 -25
61 -36 88 -42 107 -71 155 -95 155 -17 0 -27 -10 -39 -37z"/>
<path d="M5996 8050 c-21 -6 -55 -19 -75 -30 -47 -26 -91 -43 -118 -46 -36 -4
-83 -34 -95 -59 -8 -19 -6 -31 12 -62 l22 -39 -34 -50 c-30 -44 -33 -58 -37
-131 -3 -75 0 -89 27 -148 52 -110 152 -199 249 -219 60 -13 153 61 153 121 0
11 -14 26 -33 36 -31 17 -67 62 -67 85 0 6 12 25 27 42 25 30 29 31 75 25 l48
-7 16 38 c16 37 16 111 0 147 -7 14 -3 17 18 17 15 0 53 11 86 25 33 14 65 25
72 25 7 0 26 27 42 59 34 69 30 102 -16 131 -56 34 -293 59 -372 40z m214 -31
c77 -16 63 -33 -22 -25 -143 14 -275 -26 -337 -101 -30 -36 -31 -36 -31 -13 0
32 33 85 62 101 88 47 216 62 328 38z"/>
<path d="M5492 5506 c17 -11 50 -49 72 -82 34 -51 183 -301 194 -326 2 -4 -19
-22 -47 -40 -28 -18 -51 -36 -51 -40 0 -5 83 -8 183 -8 l184 0 27 63 c14 34
56 104 92 156 36 51 63 95 60 99 -4 3 -33 -7 -66 -23 -33 -16 -61 -27 -64 -24
-2 2 -36 55 -76 117 -40 62 -81 117 -91 123 -11 6 -105 9 -234 8 l-214 -1 31
-22z m258 -40 c13 -9 13 -9 2 6 -8 9 -9 19 -4 22 6 3 12 -1 16 -9 7 -20 36
-19 36 0 0 13 4 14 20 5 11 -6 30 -9 42 -7 13 2 17 2 10 0 -7 -3 -10 -9 -7
-14 4 -5 -2 -9 -11 -9 -10 0 -14 -3 -11 -7 4 -3 18 0 32 7 14 7 28 10 32 7 3
-4 -1 -7 -10 -7 -18 0 -13 -29 7 -42 6 -4 7 -10 3 -14 -4 -4 -14 2 -23 14 -18
26 -30 28 -37 8 -4 -10 -1 -13 9 -9 7 3 14 1 14 -5 0 -6 -6 -12 -12 -15 -10
-3 -8 -10 5 -23 15 -16 19 -17 26 -5 5 8 16 11 25 8 9 -4 16 -2 16 4 0 6 5 7
11 4 6 -5 4 -12 -7 -20 -17 -12 -16 -13 4 -26 24 -15 30 -39 9 -39 -19 0 -36
20 -31 35 7 18 -15 30 -29 16 -9 -9 -9 -14 1 -20 10 -6 5 -10 -16 -14 -28 -6
-30 -9 -27 -45 1 -22 6 -45 10 -52 12 -20 -4 -25 -19 -5 -17 23 -39 11 -31
-18 2 -12 2 -16 -1 -9 -3 6 -15 12 -26 12 -17 0 -16 3 11 27 17 15 31 33 31
40 0 19 -9 16 -28 -8 -20 -24 -54 -17 -46 9 5 15 4 15 -6 0 -14 -23 -31 -23
-23 -1 5 12 2 15 -10 10 -9 -3 -17 -2 -17 3 0 6 5 10 10 10 6 0 10 5 10 10 0
6 -6 10 -14 10 -8 0 -13 8 -12 17 0 10 -4 18 -11 18 -6 0 -15 4 -20 9 -4 5 -3
6 3 3 14 -8 26 17 17 39 -3 8 -12 13 -21 9 -12 -5 -13 -3 -2 10 10 13 15 13
21 3 4 -7 11 -9 15 -5 4 3 3 12 -2 19 -5 7 -9 20 -8 28 1 8 2 21 3 27 1 13 38
2 71 -21z"/>
<path d="M5318 5476 c-22 -14 -52 -60 -99 -149 -37 -70 -79 -144 -94 -163 -25
-33 -26 -36 -10 -54 36 -40 247 -170 275 -170 5 0 25 30 43 68 18 37 59 114
92 170 l59 104 -25 45 c-13 25 -46 70 -74 100 -40 44 -58 56 -93 63 -35 6 -48
4 -74 -14z"/>
<path d="M6115 4934 c-55 -34 -121 -78 -147 -98 l-48 -36 104 -157 103 -158
63 2 c83 2 157 27 198 66 50 48 44 70 -58 242 -26 44 -63 107 -81 140 l-34 61
-100 -62z"/>
<path d="M8733 4888 c-436 -404 -751 -719 -789 -790 -14 -26 -11 -51 11 -84
14 -21 23 -24 81 -24 l66 0 -5 -157 c-4 -87 -6 -276 -6 -420 l0 -263 -173 -1
c-95 0 -289 -3 -432 -5 -243 -4 -258 -3 -251 13 4 10 10 60 12 111 7 120 -13
201 -74 289 -24 35 -57 93 -74 128 -48 102 -160 183 -304 220 -79 20 -126 19
-221 -5 -129 -33 -244 -124 -291 -230 -13 -30 -37 -68 -52 -85 -55 -58 -74
-111 -79 -221 -9 -203 52 -359 196 -500 47 -46 145 -93 209 -101 l50 -5 6
-256 c3 -140 10 -259 14 -263 4 -4 47 -5 96 -2 l87 6 0 251 0 251 73 23 c166
53 260 131 313 261 l28 68 345 6 c189 4 544 7 787 7 l443 0 3 -428 3 -429 28
-36 c32 -42 64 -61 122 -72 48 -8 358 -8 468 1 l77 7 0 -220 c0 -121 3 -369 7
-551 l6 -332 106 0 c58 0 120 -1 136 -3 l30 -2 3 550 2 550 225 -3 225 -3 0
28 0 28 -643 0 -642 0 -33 23 c-64 46 -62 30 -62 587 0 553 0 550 58 595 24
19 43 20 673 20 l649 0 0 47 c0 45 -1 46 -19 29 -16 -14 -41 -17 -171 -17 -84
1 -155 3 -157 5 -13 13 19 68 77 134 83 91 100 120 80 132 -27 17 -66 -10
-108 -77 -15 -23 -30 -43 -34 -43 -5 0 -8 103 -8 229 0 126 -3 236 -6 245 -8
21 -92 22 -122 0 -22 -15 -22 -19 -22 -235 0 -130 -4 -219 -9 -219 -6 0 -30
20 -55 45 -51 50 -66 55 -66 25 0 -27 40 -89 84 -131 22 -22 37 -47 42 -71 l6
-38 -164 0 -165 0 -26 88 c-42 138 -49 187 -45 301 6 129 24 177 101 259 29
31 68 77 87 101 45 59 99 96 173 120 87 28 138 32 204 15 124 -32 190 -87 272
-224 47 -78 51 -82 51 -52 0 71 -97 206 -185 257 -56 33 -110 45 -202 46 -90
1 -144 -11 -224 -51 l-56 -27 -270 266 c-349 345 -429 421 -440 421 -5 0 -64
-51 -130 -112z m459 -254 c395 -393 363 -357 342 -378 -15 -15 -18 -15 -47 3
-30 19 -316 300 -527 518 l-108 111 -64 -62 c-35 -34 -84 -81 -110 -104 -27
-23 -48 -48 -48 -54 0 -6 -3 -9 -6 -6 -5 6 -115 -101 -245 -238 -36 -38 -88
-89 -115 -113 -93 -84 -254 -244 -250 -249 3 -2 26 11 51 30 26 18 57 40 70
48 13 8 26 22 28 31 2 8 44 49 92 89 48 40 171 157 274 260 207 209 308 300
332 300 8 0 49 -35 89 -77 189 -198 478 -491 508 -514 l33 -25 -38 -37 c-21
-20 -51 -54 -68 -76 -16 -22 -39 -42 -50 -45 -17 -4 -508 -8 -1165 -8 l-205 0
3 23 c6 54 111 166 531 569 279 267 350 332 361 328 5 -2 154 -147 332 -324z
m654 -564 c1 -14 3 -151 4 -305 l1 -280 -25 -3 -26 -3 0 311 0 311 22 -3 c15
-2 22 -11 24 -28z m-533 -142 c-7 -97 12 -297 37 -377 10 -35 17 -68 14 -73
-3 -5 -91 -6 -202 -2 -188 7 -199 6 -238 -14 -52 -27 -100 -81 -113 -129 -6
-21 -11 -68 -11 -105 l0 -66 -102 -7 c-57 -3 -208 -5 -336 -3 l-234 3 1 318
c1 174 6 354 11 398 5 45 7 86 4 91 -21 34 -7 35 589 37 l586 2 -6 -73z
m-2512 -54 c140 -41 252 -140 274 -242 4 -19 25 -51 50 -76 67 -68 95 -177 76
-301 -24 -160 -67 -265 -136 -337 -35 -36 -206 -128 -238 -128 -12 0 -16 27
-22 158 -4 100 -3 166 3 182 6 14 42 63 81 109 74 88 82 105 55 115 -11 4 -35
-12 -78 -55 l-61 -61 -6 154 c-3 85 -9 159 -13 166 -10 16 -59 15 -100 -2 -38
-16 -42 -29 -52 -172 -7 -93 -7 -94 -27 -77 -10 10 -32 37 -49 60 -39 57 -62
69 -94 48 -13 -8 -24 -22 -24 -31 0 -15 85 -128 142 -189 39 -41 42 -59 34
-219 -8 -173 -11 -190 -40 -181 -11 3 -30 7 -42 9 -11 2 -45 16 -75 32 -165
89 -290 338 -277 554 5 85 26 135 80 190 19 19 40 55 47 79 25 88 168 196 292
220 70 14 141 12 200 -5z m-55 -614 c0 -151 4 -436 9 -632 l8 -358 -53 0 -53
0 6 333 c16 790 20 912 30 925 6 7 20 12 31 10 21 -3 21 -7 22 -278z m2835
-1130 c-25 -15 26 -56 84 -69 31 -7 58 -18 61 -24 2 -7 5 -227 7 -490 l2 -478
-90 3 -90 3 -3 525 c-1 289 0 531 3 537 2 7 12 10 20 6 11 -4 13 -8 6 -13z"/>
<path d="M9012 4182 c-45 -2 -80 -7 -77 -12 3 -5 1 -11 -4 -14 -5 -4 -12 -2
-15 3 -3 5 -21 5 -41 1 -20 -4 -44 -6 -55 -3 -14 4 -20 0 -20 -12 0 -16 19
-17 282 -11 155 4 283 8 284 9 1 1 -4 11 -12 21 -12 18 -27 20 -136 20 -68 1
-160 0 -206 -2z"/>
<path d="M4817 4945 c2 -7 24 -24 48 -40 25 -15 45 -33 45 -40 0 -7 -20 -49
-44 -93 -25 -44 -61 -112 -81 -151 -35 -71 -36 -72 -18 -102 29 -49 105 -80
215 -86 l93 -6 85 127 c47 69 91 126 98 126 7 0 30 -11 52 -25 22 -14 42 -25
45 -25 16 0 -134 255 -170 287 -26 23 -79 30 -271 36 -71 2 -100 -1 -97 -8z"/>
<path d="M2069 4725 c-14 -7 -31 -26 -38 -41 -10 -23 -9 -30 9 -49 12 -13 37
-26 56 -29 35 -7 43 -26 25 -55 -7 -11 -14 -10 -39 4 -37 22 -68 14 -53 -14
28 -51 119 -40 139 17 17 49 6 69 -49 88 -27 10 -49 24 -49 30 0 19 36 27 60
14 23 -12 50 -7 50 9 0 12 -52 41 -72 41 -7 -1 -25 -7 -39 -15z"/>
<path d="M2275 4729 c-51 -30 -65 -51 -65 -101 0 -38 6 -54 28 -78 15 -17 42
-35 60 -40 30 -8 37 -6 71 26 55 49 67 83 46 127 -9 19 -25 43 -34 52 -24 21
-81 28 -106 14z m48 -34 c58 -24 74 -73 37 -113 -51 -55 -114 -28 -116 48 0
24 5 41 13 44 7 3 13 12 13 21 0 19 8 19 53 0z"/>
<path d="M2750 4656 c0 -89 -4 -96 -55 -96 -29 0 -35 16 -35 101 0 61 -2 69
-19 69 -16 0 -19 -11 -25 -76 -7 -72 -6 -78 19 -110 34 -44 88 -48 126 -8 21
22 24 37 27 115 4 85 3 89 -17 89 -20 0 -21 -5 -21 -84z"/>
<path d="M3142 4720 c-45 -28 -57 -59 -46 -117 7 -38 16 -52 43 -70 19 -13 44
-23 57 -23 30 0 90 60 99 99 13 58 -44 131 -102 131 -10 0 -33 -9 -51 -20z"/>
<path d="M3575 4715 c-41 -40 -28 -75 40 -100 30 -12 45 -24 45 -35 0 -19 -25
-35 -49 -31 -7 1 -10 -2 -6 -8 9 -15 -7 -13 -29 4 -14 11 -16 15 -5 15 12 0
12 2 -1 9 -28 19 -31 -2 -4 -30 31 -32 61 -36 104 -14 30 16 47 53 36 80 -3 8
-30 27 -60 42 -37 18 -52 31 -49 41 5 11 17 13 50 8 34 -4 43 -2 43 9 0 39
-80 46 -115 10z"/>
<path d="M3474 4635 c3 -52 2 -95 -2 -95 -4 0 -16 16 -26 35 -10 19 -23 32
-29 28 -6 -4 -8 0 -4 10 3 10 2 17 -2 17 -5 0 -11 7 -15 15 -10 26 2 16 39
-32 33 -44 36 -45 29 -18 -11 44 -84 125 -113 125 -24 0 -24 0 -19 -96 3 -57
10 -100 18 -107 10 -10 11 6 5 79 -5 68 -3 94 6 100 8 4 10 3 5 -4 -4 -7 -1
-12 9 -12 11 0 14 -7 11 -25 -3 -16 5 -36 25 -62 50 -65 70 -86 75 -80 3 3 8
45 10 94 3 48 7 93 9 100 3 10 -15 23 -32 23 -2 0 -2 -43 1 -95z"/>
<path d="M5838 4583 c-8 -10 -53 -80 -99 -156 -82 -136 -83 -139 -68 -165 38
-65 145 -241 172 -285 26 -43 31 -46 40 -31 7 12 6 37 -2 77 -7 33 -9 62 -6
66 4 3 67 6 141 6 l135 1 24 29 c37 45 217 346 211 352 -3 3 -12 1 -20 -6 -40
-33 -245 -50 -428 -35 l-75 7 8 41 c19 99 5 143 -33 99z"/>
<path d="M1202 4429 c-81 -10 -203 -44 -255 -70 -23 -12 -69 -43 -103 -70 -57
-45 -73 -64 -137 -166 -15 -23 -40 -49 -56 -57 -96 -50 -170 -218 -171 -385 0
-63 0 -64 -46 -104 -168 -148 -247 -385 -184 -552 17 -44 25 -92 30 -185 6
-106 11 -137 38 -205 42 -107 92 -189 167 -274 78 -88 142 -141 280 -228 129
-82 193 -108 307 -124 l83 -12 -2 -485 c-2 -416 -5 -489 -18 -509 -9 -12 -22
-23 -30 -23 -18 0 -20 -16 -2 -23 14 -6 302 2 335 9 23 5 24 7 17 67 -4 34 -8
268 -9 520 l-1 457 40 0 c48 0 172 33 224 59 20 11 63 40 96 65 33 24 63 41
68 37 4 -4 0 -25 -9 -46 -41 -99 43 -205 153 -192 40 4 48 1 97 -39 29 -24 58
-44 65 -44 27 0 7 -17 -40 -33 -71 -26 -124 -84 -184 -201 -50 -100 -55 -124
-44 -216 5 -41 16 -52 89 -88 54 -26 60 -27 238 -27 138 0 185 3 191 13 6 10
13 10 37 -3 64 -33 269 -9 349 42 55 34 70 62 70 127 -1 61 -39 147 -108 249
-26 37 -47 72 -47 77 0 16 36 19 261 22 l217 3 6 -49 c3 -27 14 -67 25 -89 20
-39 20 -41 2 -66 -45 -63 -61 -110 -61 -175 0 -61 2 -65 35 -95 20 -17 48 -34
63 -37 15 -4 33 -12 41 -18 19 -15 640 -12 697 3 62 17 132 74 139 115 9 44
-8 103 -45 157 -35 52 -37 68 -9 100 29 33 45 67 53 112 l7 38 151 -3 c93 -2
152 -7 155 -13 2 -6 -3 -30 -12 -54 -17 -49 -8 -113 24 -166 15 -25 18 -44 14
-110 -5 -77 -4 -82 23 -114 41 -49 77 -60 218 -67 142 -8 163 -1 193 61 16 33
16 35 -11 75 -35 54 -71 74 -156 89 -39 7 -70 14 -70 16 0 1 6 15 14 29 8 15
11 37 8 49 -6 20 -7 19 -12 -8 -4 -19 -11 -29 -20 -28 -17 2 -103 26 -109 29
-11 8 65 116 93 133 48 30 63 27 71 -16 4 -22 20 -50 40 -70 43 -43 104 -47
138 -9 l21 24 34 -29 c18 -16 43 -29 57 -29 33 0 84 54 97 106 13 48 23 52 68
29 25 -13 110 -117 110 -135 0 -4 -18 -12 -41 -19 -23 -7 -47 -15 -54 -18 -8
-2 -20 8 -29 24 l-15 28 -1 -42 c0 -48 -17 -64 -85 -82 -63 -17 -123 -90 -109
-134 4 -12 16 -35 28 -50 l21 -29 115 4 c90 4 126 10 167 27 71 31 86 50 91
119 4 50 9 62 43 97 66 69 72 111 35 218 l-24 67 97 0 c113 0 143 14 196 88
l30 44 8 899 c8 883 8 900 -12 944 -12 26 -33 53 -53 65 -32 21 -44 21 -328
19 -162 -1 -832 -1 -1489 -1 l-1194 2 -33 -25 c-18 -14 -43 -40 -56 -57 l-23
-33 0 -528 c1 -471 -1 -528 -15 -523 -8 2 -43 16 -77 30 -34 15 -89 29 -123
33 -56 5 -61 8 -56 27 64 263 75 416 37 521 -28 78 -98 181 -170 248 l-58 53
-7 88 c-10 120 -37 202 -91 274 -25 33 -52 62 -60 65 -8 4 -46 49 -84 101
-102 137 -189 203 -336 250 -67 21 -233 49 -270 45 -5 -1 -38 -5 -73 -10z
m327 -77 c46 -17 103 -43 127 -57 67 -39 160 -130 200 -196 19 -32 39 -59 43
-59 4 0 26 -16 50 -36 72 -62 115 -174 115 -304 1 -41 -2 -81 -4 -89 -3 -9 16
-28 52 -52 144 -98 228 -271 216 -447 -5 -61 -10 -75 -53 -136 -36 -52 -44
-71 -35 -79 8 -9 9 -7 4 8 -4 11 -4 17 1 13 4 -4 16 3 25 15 17 20 19 21 25 4
10 -24 0 -80 -22 -125 -16 -33 -25 -39 -79 -53 -90 -23 -132 -52 -177 -122
-17 -26 -47 -37 -47 -18 0 12 -30 7 -61 -9 -12 -7 -45 -20 -73 -30 l-51 -19
40 2 c22 2 46 7 54 11 10 7 12 4 6 -13 l-6 -21 43 20 c24 11 50 20 58 20 9 0
36 21 60 46 52 52 85 72 155 90 56 15 181 19 189 5 6 -8 -48 -21 -91 -21 -49
0 -192 -62 -239 -103 -43 -37 -45 -42 -28 -54 9 -7 16 -14 13 -16 -100 -70
-119 -108 -119 -235 0 -50 -4 -93 -9 -96 -30 -19 -43 165 -16 232 9 20 32 54
53 75 38 39 32 45 -27 28 -27 -7 -65 -98 -76 -178 -3 -26 -8 -63 -11 -81 -4
-23 -2 -32 5 -27 7 4 7 -2 -1 -19 -6 -14 -15 -26 -20 -26 -5 0 -19 -10 -31
-21 -35 -34 -159 -89 -234 -105 -96 -20 -100 -19 -99 16 1 16 5 30 9 30 4 0 2
10 -4 22 -7 13 -13 91 -15 202 l-4 181 102 104 103 104 75 14 c143 28 202 69
180 127 -14 37 -49 56 -103 56 -33 0 -49 5 -53 15 -6 14 31 73 61 100 7 6 29
31 49 57 31 39 36 50 27 67 -14 25 -45 35 -69 22 -31 -16 -249 -248 -309 -327
-30 -41 -58 -72 -62 -70 -3 2 -7 132 -9 288 -1 155 -5 399 -8 541 -6 234 -8
259 -25 267 -26 14 -75 12 -88 -4 -6 -7 -25 -16 -42 -20 -17 -3 -46 -21 -65
-40 l-34 -34 0 -490 c0 -270 -4 -493 -8 -496 -6 -4 -201 218 -342 390 -48 59
-92 80 -132 63 -26 -11 -29 -16 -24 -42 10 -51 165 -283 305 -457 115 -142
183 -244 182 -271 -1 -13 -2 -66 -3 -116 -1 -51 -5 -93 -10 -93 -4 0 -8 7 -8
16 0 8 -5 12 -10 9 -14 -9 -13 8 2 23 8 8 8 12 1 12 -6 0 -14 -7 -17 -16 -4
-9 -13 -14 -21 -10 -11 4 -15 -2 -15 -19 0 -16 -6 -25 -15 -25 -8 0 -15 -8
-16 -17 0 -14 -2 -13 -9 5 -5 12 -16 22 -25 22 -8 0 -15 5 -15 12 0 6 -3 9 -6
5 -4 -3 3 -21 14 -39 11 -18 17 -39 15 -45 -3 -7 1 -13 7 -13 8 0 10 -13 5
-42 -6 -35 -5 -41 6 -31 16 15 49 17 49 3 0 -5 -9 -10 -20 -10 -11 0 -20 -4
-20 -10 0 -15 25 -12 59 8 34 19 40 38 14 46 -11 3 -7 4 7 3 23 -2 25 -6 28
-59 3 -54 -7 -74 -23 -48 -4 6 -15 8 -26 5 -20 -7 -118 9 -154 25 -11 4 -34
13 -52 20 -17 6 -39 20 -49 31 -9 10 -23 19 -31 19 -7 0 -13 10 -14 23 0 12
-3 17 -5 10 -10 -23 -148 69 -229 153 -53 55 -127 153 -106 140 10 -7 11 -4 2
12 -6 11 -17 22 -26 26 -8 3 -15 12 -15 19 0 8 -7 20 -15 27 -9 7 -13 15 -11
17 2 3 -7 27 -21 54 -13 27 -23 57 -21 67 2 9 -2 22 -8 27 -8 6 -13 42 -15 90
-3 112 -2 114 21 86 11 -13 20 -19 20 -13 0 6 -11 23 -24 39 -58 70 -71 110
-71 229 0 110 0 111 42 195 44 87 122 181 180 214 32 19 32 19 26 80 -12 133
40 291 117 358 24 20 47 37 51 37 3 0 28 32 55 71 79 116 181 191 324 237 89
29 107 31 250 27 111 -2 134 -6 209 -33z m-182 -498 c9 -9 14 -122 18 -435 3
-233 7 -475 9 -538 2 -63 0 -127 -5 -143 -5 -17 -4 -26 2 -23 5 4 9 -7 9 -23
0 -29 -22 -48 -40 -37 -5 3 -11 1 -15 -5 -8 -13 -55 -13 -55 1 0 24 -30 -22
-31 -48 l-1 -28 -8 30 c-4 17 -8 23 -9 15 -1 -8 -4 -25 -7 -37 -5 -17 -2 -23
10 -23 9 0 16 -4 16 -10 0 -19 -22 -10 -48 21 -41 48 -65 89 -53 89 6 0 11 10
11 23 0 21 1 21 24 -7 22 -28 24 -29 34 -10 6 12 12 225 16 577 5 460 9 561
20 573 13 12 15 11 19 -4 3 -12 5 -11 6 6 0 13 5 21 10 18 5 -3 11 3 14 15 6
22 32 23 54 3z m4335 -38 c14 -9 33 -33 42 -54 16 -35 17 -107 14 -908 l-3
-870 -43 -67 c-24 -36 -52 -69 -63 -72 -10 -4 -58 -5 -105 -3 l-87 3 -14 32
c-7 18 -13 37 -13 43 0 6 42 10 113 10 l114 0 6 377 c10 549 9 1421 -2 1427
-5 3 -472 9 -1038 12 -1142 6 -1046 6 -1128 0 -33 -3 -148 -5 -255 -4 -470 3
-477 3 -494 -11 -14 -12 -16 -69 -16 -556 0 -298 -3 -544 -6 -548 -4 -3 -24 8
-45 25 l-39 31 0 521 c0 581 -2 566 69 614 l35 23 1467 -5 c1333 -4 1469 -5
1491 -20z m-2575 -121 c24 -8 9 -43 -22 -51 l-30 -8 39 -4 c54 -5 70 3 56 27
-15 29 -12 41 9 41 27 0 36 -19 17 -33 -10 -7 -12 -17 -7 -25 11 -18 147 -13
143 6 -1 6 2 12 8 12 5 0 10 -4 10 -10 0 -17 18 -11 23 8 3 12 5 10 6 -7 1
-24 1 -24 16 -5 14 18 14 18 15 0 0 -15 3 -16 15 -6 17 14 21 45 5 35 -5 -3
-10 -2 -10 4 0 15 18 23 25 10 4 -5 13 -8 21 -5 9 3 14 -2 14 -14 0 -16 7 -20
30 -20 22 0 30 5 30 17 0 13 -3 14 -12 5 -15 -15 -25 -15 -31 1 -3 9 6 13 28
13 21 0 31 -4 27 -11 -3 -5 1 -4 10 3 12 9 18 10 23 2 5 -8 14 -6 31 5 21 14
25 14 30 1 3 -8 12 -17 21 -20 11 -4 13 -2 9 9 -3 9 0 15 8 15 8 0 17 6 19 13
4 9 6 9 6 0 1 -6 -3 -15 -9 -18 -5 -3 -9 -16 -9 -28 1 -18 2 -19 6 -4 3 11 11
16 19 13 8 -3 14 1 14 9 0 8 7 15 15 15 8 0 15 -4 15 -10 0 -17 27 -11 35 8 6
15 8 14 16 -7 6 -14 8 -30 5 -37 -5 -12 12 -13 132 -2 6 1 12 7 12 15 0 7 5
13 12 13 6 0 3 7 -8 14 -17 13 25 15 346 13 336 -2 365 -3 368 -19 2 -10 -6
-28 -18 -40 -12 -13 -26 -32 -32 -43 -7 -13 -2 -11 15 8 15 15 37 31 50 36 13
5 116 11 228 12 183 2 207 1 232 -16 36 -23 46 -13 13 13 -14 10 -22 22 -19
26 10 9 -37 7 -102 -5 -39 -7 -61 -7 -63 -1 -1 5 -12 8 -22 5 -11 -3 -20 -1
-20 5 0 14 93 21 102 8 5 -8 8 -7 8 1 0 8 23 10 73 8 98 -4 99 -4 93 -14 -6
-10 47 -1 54 9 3 4 84 9 180 11 l175 4 0 -865 0 -865 -91 -3 -91 -3 -7 78 c-3
43 -9 110 -12 148 -13 146 -105 299 -213 354 -21 11 -59 25 -84 32 -40 10 -50
18 -72 57 -16 28 -22 49 -16 56 5 6 5 20 0 31 -4 11 -8 29 -8 40 l0 20 9 -20
c10 -23 13 -5 4 19 -3 9 -11 13 -18 9 -10 -6 11 25 25 37 7 6 21 90 15 90 -4
0 -26 -32 -73 -109 -13 -20 -23 -44 -23 -54 0 -19 61 -120 79 -131 6 -4 11
-13 11 -20 0 -9 -16 -11 -57 -8 -79 5 -197 -21 -247 -55 -140 -97 -233 -274
-215 -411 4 -32 5 -82 1 -112 l-7 -55 -180 2 -180 2 -2 33 c-2 18 -7 92 -12
163 -10 143 -19 178 -65 245 -73 107 -157 165 -285 196 -64 16 -85 16 -167 6
-64 -8 -108 -20 -141 -38 -114 -61 -214 -218 -221 -347 -3 -47 -10 -76 -21
-88 -9 -10 -22 -38 -30 -63 -13 -44 -15 -46 -52 -46 -32 0 -39 4 -39 19 0 11
-4 22 -9 26 -6 3 -6 -6 -1 -25 9 -30 2 -38 -16 -20 -6 6 -14 3 -22 -10 -11
-18 -9 -19 26 -18 47 3 122 -11 122 -22 0 -10 -404 -6 -435 5 -12 3 -22 16
-22 27 -2 21 32 57 55 58 6 0 11 3 10 8 -1 4 4 27 11 51 16 56 8 95 -28 146
-41 58 -45 133 -46 830 l0 600 165 -3 c91 -2 170 -5 177 -7z m-1422 -715 c-3
-6 -10 -33 -14 -60 l-8 -50 82 0 c68 0 84 -3 89 -17 8 -20 -10 -33 -44 -33
-14 0 -60 -5 -103 -12 l-79 -12 -86 -93 c-47 -51 -92 -93 -99 -93 -28 0 -11
49 40 111 29 35 73 93 98 129 72 105 100 140 116 140 8 0 11 -5 8 -10z m2165
-423 c35 -16 35 -16 5 -12 -81 12 -111 12 -181 4 -110 -12 -166 -34 -224 -86
-59 -53 -88 -100 -127 -203 l-28 -75 -3 46 c-6 91 69 226 159 286 78 51 133
64 254 60 70 -3 123 -10 145 -20z m1209 -9 l66 -13 -120 -6 c-146 -7 -218 -27
-282 -78 -64 -50 -106 -114 -132 -201 -12 -38 -25 -71 -30 -74 -18 -12 -21 29
-5 83 44 152 145 262 269 292 49 11 163 10 234 -3z m-3698 -45 c1 -38 1 -38 9
-8 4 17 8 -71 9 -197 l1 -228 -22 -1 -23 -2 22 -4 c21 -4 22 -9 25 -140 2 -74
1 -160 -1 -191 -4 -49 -5 -53 -12 -27 -5 22 -7 10 -8 -41 -1 -52 3 -75 14 -84
16 -13 10 -34 -7 -24 -6 4 -6 -2 1 -15 14 -25 27 -516 14 -524 -4 -3 -41 -8
-82 -11 -41 -4 -78 -8 -83 -9 -25 -5 -14 1473 10 1481 7 2 8 11 2 28 -5 13 -6
24 -2 24 14 0 28 -47 31 -105 4 -83 11 -83 11 0 0 73 17 82 22 12 4 -48 18
-48 18 0 0 82 49 145 51 66z m1276 -107 c52 -26 73 -49 73 -81 0 -14 -6 -12
-31 9 -53 45 -144 30 -183 -29 -10 -15 -20 -50 -22 -78 -7 -72 16 -115 78
-145 58 -29 110 -24 159 17 32 27 33 30 31 99 -1 45 2 74 10 78 19 12 68 -52
68 -89 0 -44 -46 -116 -70 -110 -14 4 -26 -11 -51 -58 -37 -69 -105 -130 -166
-149 -72 -22 -92 -32 -87 -44 3 -7 -5 -25 -17 -41 l-23 -28 -18 23 c-10 12
-18 30 -18 40 0 13 -14 20 -57 29 -114 22 -136 32 -193 87 -55 53 -58 54 -84
40 -61 -31 -141 17 -149 90 -10 83 37 131 102 104 16 -6 42 -10 57 -8 28 3 29
4 26 58 -2 30 0 70 3 88 6 33 7 33 45 27 65 -11 101 3 152 57 l46 50 -9 -38
c-4 -22 -9 -45 -9 -51 0 -20 62 -16 117 8 55 23 88 52 110 93 l15 29 21 -26
c12 -14 45 -37 74 -51z m1093 -138 c21 -26 44 -41 73 -48 126 -31 124 -31 134
-63 10 -33 11 -34 80 -21 27 5 37 1 63 -24 42 -42 41 -83 -4 -128 -32 -32 -50
-38 -106 -35 -18 2 -35 -10 -63 -43 -33 -40 -48 -49 -120 -71 -96 -29 -140
-31 -234 -9 -83 19 -131 50 -196 129 -28 33 -60 70 -73 82 -32 30 -40 68 -20
98 9 14 25 25 35 25 11 0 28 15 40 34 22 34 39 46 69 46 63 0 193 75 225 130
l19 31 24 -48 c13 -26 37 -65 54 -85z m-1074 46 c34 -23 54 -65 54 -115 0 -33
-6 -47 -34 -75 -40 -40 -72 -43 -126 -13 -59 33 -77 97 -45 159 30 58 98 78
151 44z m2326 -27 c40 -64 69 -86 144 -113 37 -14 72 -32 78 -40 9 -12 17 -12
42 -3 42 17 81 4 99 -31 22 -43 19 -84 -11 -119 -22 -27 -32 -31 -75 -31 -46
0 -50 -2 -74 -40 -28 -44 -58 -63 -148 -89 -98 -30 -101 -30 -189 -9 -99 24
-147 49 -187 98 -35 44 -71 109 -71 130 -1 28 -18 -12 -34 -80 -8 -36 -29 -99
-45 -140 -27 -68 -30 -72 -31 -40 0 20 7 60 15 90 8 30 22 82 30 115 32 127
36 137 50 131 7 -2 20 5 28 18 15 22 36 33 150 77 59 22 169 88 181 108 12 18
20 13 48 -32z m-1742 -351 c0 -2 -7 -19 -15 -39 -10 -23 -23 -37 -41 -41 -34
-9 -364 -6 -426 4 -26 3 -45 3 -42 -2 3 -4 2 -8 -3 -9 -4 0 -17 -2 -28 -4 -24
-5 -85 13 -85 25 0 22 75 53 148 60 80 8 492 13 492 6z m1252 -1 c8 -9 -14
-94 -26 -98 -18 -7 -289 12 -297 20 -4 5 -11 25 -14 46 l-7 37 169 0 c93 0
172 -2 175 -5z m-2282 -146 c0 -38 13 -65 53 -106 36 -38 59 -41 95 -12 l27
21 7 -83 c4 -45 5 -86 2 -90 -3 -5 -33 -6 -67 -2 -72 6 -68 -7 8 -26 28 -7 55
-17 60 -22 13 -13 13 -105 0 -118 -6 -6 -48 -13 -95 -16 l-85 -7 28 19 c35 25
56 53 57 75 0 32 -58 86 -103 95 l-42 9 3 70 c3 54 0 73 -11 83 -14 11 -18 7
-28 -28 -16 -53 -31 -66 -60 -51 -11 7 -34 10 -50 8 -16 -3 -29 -3 -29 0 0 2
17 31 37 63 40 66 89 114 137 135 47 20 56 17 56 -17z m423 -1 c41 -21 100
-73 134 -118 l34 -44 -36 -13 c-19 -6 -45 -19 -57 -28 -31 -21 -34 -20 -51 24
-22 53 -42 65 -34 20 3 -19 9 -51 13 -71 l6 -38 -53 0 c-32 0 -72 -9 -98 -20
-24 -11 -47 -20 -52 -20 -6 0 -9 47 -7 110 2 60 5 109 8 107 53 -29 62 -31 88
-16 23 12 40 44 58 107 4 15 19 15 47 0z m817 -45 c0 -53 64 -120 124 -130 30
-5 35 -2 56 33 l24 37 30 -36 c62 -74 145 -30 171 91 11 53 40 43 123 -45 73
-78 83 -93 58 -93 -7 0 -30 -11 -50 -25 l-36 -24 -25 49 c-14 28 -28 50 -31
50 -4 0 -3 -20 0 -45 7 -42 6 -45 -16 -46 -13 0 -32 -3 -43 -5 -11 -3 -107 -7
-212 -9 l-193 -3 -1 61 0 62 -21 -42 c-12 -23 -28 -45 -35 -48 -8 -2 -33 5
-56 18 -23 12 -44 23 -46 24 -11 6 96 126 127 142 43 22 52 19 52 -16z m-1387
-207 c21 -22 48 -39 77 -46 100 -25 126 -51 101 -98 -24 -45 -157 -54 -237
-16 -59 28 -80 95 -49 154 26 51 64 53 108 6z m767 2 c25 -41 25 -74 1 -114
-32 -53 -80 -69 -219 -72 -135 -4 -152 2 -152 48 0 40 29 60 106 72 76 11 111
26 164 69 46 39 75 37 100 -3z m503 -3 c18 -20 58 -47 89 -62 73 -32 83 -56
39 -95 -25 -23 -41 -28 -81 -28 -89 0 -170 48 -170 101 0 57 37 119 72 119 10
0 33 -16 51 -35z m762 -4 c48 -71 31 -132 -47 -172 -32 -17 -53 -20 -90 -16
-52 7 -61 2 -25 -13 16 -8 10 -8 -23 -3 -41 6 -166 6 -215 0 -16 -2 -20 3 -18
28 5 88 17 171 27 177 17 11 204 9 211 -2 3 -5 -12 -17 -35 -26 -75 -30 -87
-105 -21 -139 45 -23 50 -18 14 11 -18 14 -33 34 -33 44 0 20 45 51 102 69 21
7 48 27 63 47 34 45 58 43 90 -5z m564 -10 c29 -32 46 -40 86 -46 68 -10 123
-33 136 -57 13 -24 -4 -73 -28 -82 -25 -10 -245 14 -275 30 -58 30 -74 118
-33 180 23 36 67 26 114 -25z m661 27 c15 -16 20 -35 20 -73 0 -95 -40 -120
-203 -131 -99 -6 -105 -6 -116 14 -30 56 -3 83 102 105 67 14 117 39 117 57 0
13 37 50 50 50 5 0 18 -10 30 -22z m-1676 -40 c3 -13 6 -59 6 -104 l0 -80
-104 0 -103 1 38 37 c23 23 39 47 39 61 0 27 -32 61 -72 76 -56 21 -29 31 81
31 104 0 109 -1 115 -22z"/>
<path d="M5030 3573 c47 -3 59 -8 83 -35 26 -29 31 -42 28 -62 -1 -4 4 -15 11
-24 11 -13 10 -15 -3 -10 -9 4 -16 1 -16 -8 0 -7 4 -11 9 -8 4 3 8 -1 8 -8 0
-7 3 -23 6 -35 5 -17 2 -23 -9 -23 -9 0 -20 -6 -24 -14 -6 -10 -15 -11 -31 -5
-13 5 -20 14 -16 20 4 8 -1 9 -17 4 -13 -3 -32 -9 -41 -11 -10 -3 -25 5 -37
18 -11 13 -29 34 -41 48 -18 22 -18 19 5 -27 30 -62 31 -79 8 -92 -27 -14 -16
-18 78 -26 99 -8 98 -8 161 89 40 62 49 87 23 66 -9 -7 -17 -11 -19 -9 -1 2
-18 31 -36 64 -51 93 -54 95 -124 93 l-61 -2 55 -3z"/>
<path d="M4428 3187 c15 -17 15 -21 -2 -65 -24 -62 -31 -96 -12 -54 9 18 20
31 25 28 5 -4 12 2 14 11 3 12 5 8 6 -9 0 -15 6 -30 12 -34 9 -5 10 3 5 30 -7
36 8 52 20 21 4 -8 12 -15 20 -15 20 0 17 10 -8 32 -20 17 -21 20 -5 35 16 16
18 16 32 -2 13 -18 14 -19 15 -2 0 10 7 20 15 23 17 7 49 -21 40 -36 -3 -5 -2
-10 2 -10 13 0 34 -40 38 -72 2 -16 0 -26 -5 -23 -5 3 -12 0 -16 -6 -4 -8 -9
-7 -15 2 -6 10 -9 4 -9 -17 0 -17 -8 -38 -19 -48 -16 -15 -35 -56 -26 -56 1 0
21 25 44 55 l42 55 29 -15 c41 -21 39 -7 -9 80 -55 99 -60 102 -163 107 -83 3
-86 2 -70 -15z"/>
<path d="M2207 2296 c-46 -17 -64 -32 -83 -67 -20 -39 -18 -66 11 -127 21 -45
32 -56 71 -74 40 -17 52 -19 85 -9 21 6 52 23 69 37 27 23 30 31 30 85 0 133
-74 195 -183 155z m120 -38 c37 -41 47 -73 44 -136 -1 -13 -15 -37 -32 -53
-25 -23 -40 -29 -76 -29 -38 0 -50 5 -78 33 -61 61 -53 160 15 194 42 21 103
16 127 -9z"/>
<path d="M4814 4404 c20 -54 97 -175 144 -225 80 -87 82 -87 351 -91 l234 -3
-7 119 c-3 66 -6 138 -6 161 l0 42 -191 8 c-155 6 -194 5 -204 -6 -30 -32 -52
-161 -25 -144 5 3 12 1 15 -5 4 -6 1 -9 -7 -8 -8 2 -12 -4 -10 -16 2 -10 0
-16 -5 -13 -5 3 -9 -3 -9 -14 0 -10 4 -19 9 -19 5 0 3 -8 -4 -17 -10 -11 -10
-14 -1 -9 8 5 11 1 9 -16 -6 -34 -50 -47 -76 -23 -11 10 -18 22 -15 26 3 5 0
17 -6 26 -10 16 -11 16 -6 -2 4 -14 -4 -9 -24 15 -17 19 -38 43 -47 52 -9 10
-13 21 -10 25 4 3 7 4 7 0 0 -3 11 5 25 19 14 14 25 29 25 34 0 5 6 7 14 4 18
-7 10 -31 -12 -37 -12 -3 -9 -5 6 -6 13 0 20 -5 17 -11 -3 -5 -2 -10 2 -10 5
0 18 23 29 52 10 29 20 55 22 59 1 3 -39 8 -90 11 -61 3 -105 11 -127 22 -33
17 -34 17 -27 0z"/>
<path d="M7815 3524 c-22 -24 -44 -44 -50 -44 -5 0 -28 19 -52 42 -23 23 -45
39 -48 36 -7 -7 29 -74 55 -103 25 -28 35 -64 18 -69 -7 -3 -40 -7 -73 -10
-108 -9 -136 -27 -67 -45 61 -16 116 -25 135 -22 9 1 20 -5 23 -14 6 -14 8
-14 19 1 10 14 22 16 66 11 41 -5 69 -2 115 13 110 37 107 45 -13 45 -140 1
-163 7 -163 43 0 16 13 46 28 68 24 33 56 95 49 93 -1 0 -20 -20 -42 -45z"/>
<path d="M9250 3215 c0 -106 -8 -135 -35 -135 -13 0 -25 7 -29 15 -7 20 -52
19 -60 -1 -10 -26 46 -74 87 -74 70 0 96 50 97 186 l0 72 -30 4 -30 5 0 -72z"/>
<path d="M9671 3273 c-43 -22 -71 -68 -71 -118 0 -52 17 -84 59 -112 64 -43
174 -23 186 35 4 15 8 35 10 45 7 38 -5 47 -61 47 -43 0 -55 -4 -64 -20 -15
-28 -5 -40 36 -40 35 0 40 -5 25 -29 -13 -19 -91 -8 -109 16 -22 31 -25 64 -9
99 20 41 53 52 96 30 24 -13 36 -14 52 -5 l22 11 -26 25 c-32 33 -99 40 -146
16z"/>
<path d="M9935 3216 c-31 -68 -65 -167 -65 -189 0 -18 45 -1 55 20 13 30 29
35 82 27 34 -5 47 -12 53 -30 7 -17 17 -24 36 -24 23 0 25 3 19 27 -3 15 -19
54 -34 87 -16 34 -32 72 -36 86 -12 42 -34 70 -56 70 -15 0 -28 -17 -54 -74z"/>
<path d="M9387 3171 c-56 -131 -59 -154 -20 -149 20 2 29 10 33 28 5 22 12 25
58 28 50 3 53 2 72 -31 16 -27 26 -34 41 -30 25 7 22 24 -27 143 -47 115 -47
115 -81 118 -29 3 -31 0 -76 -107z"/>
<path d="M9018 2924 c-48 -25 -63 -78 -30 -106 9 -9 36 -22 60 -29 48 -14 67
-32 58 -54 -8 -22 -46 -18 -73 7 -19 18 -28 20 -41 12 -29 -19 -25 -41 11 -63
51 -31 107 -28 146 8 17 16 31 39 31 51 0 31 -49 76 -99 91 -29 9 -41 17 -39
28 3 12 13 15 38 12 71 -7 75 -7 78 15 2 16 -5 23 -36 32 -50 15 -71 15 -104
-4z"/>
<path d="M9210 2873 c0 -38 3 -85 6 -105 17 -99 142 -129 204 -50 17 21 20 40
20 118 l0 94 -27 0 -28 0 -3 -87 c-3 -95 -11 -113 -52 -113 -43 0 -60 28 -60
101 0 88 -7 109 -36 109 -23 0 -24 -3 -24 -67z"/>
<path d="M9483 2924 c-5 -14 4 -235 10 -240 1 -1 12 -5 25 -8 21 -7 22 -5 22
66 l0 73 69 -74 c39 -41 75 -71 83 -69 10 4 13 34 13 129 l0 124 -27 3 c-27 3
-27 3 -30 -69 l-3 -72 -43 61 c-24 34 -50 68 -58 77 -20 20 -53 19 -61 -1z"/>
<path d="M9814 2922 c-39 -25 -74 -81 -74 -118 0 -73 74 -136 155 -132 44 3
52 7 73 38 14 21 22 46 20 64 -3 27 -8 31 -53 42 -38 10 -51 10 -57 1 -14 -21
-4 -41 22 -47 16 -4 25 -13 25 -25 0 -17 -6 -20 -35 -17 -71 6 -107 85 -59
133 19 19 28 20 85 14 54 -6 64 -4 64 9 0 44 -114 70 -166 38z"/>
<path d="M10065 2913 c-26 -65 -54 -158 -60 -202 -7 -51 -6 -53 16 -49 14 2
29 14 37 31 17 36 72 39 87 5 14 -31 26 -29 48 10 l19 33 -35 72 c-19 39 -38
82 -42 95 -8 28 -59 31 -70 5z"/>
<path d="M9383 2573 c-16 -16 -38 -41 -50 -58 l-22 -30 -1 30 c-1 55 -11 75
-36 75 l-25 0 3 -127 c3 -124 4 -128 26 -131 19 -3 22 1 22 30 0 72 29 71 84
-3 29 -37 67 -52 80 -30 3 5 -14 38 -39 74 -25 37 -45 70 -45 75 0 6 18 31 40
58 21 26 37 51 34 56 -10 16 -42 7 -71 -19z"/>
<path d="M9500 2460 l0 -130 30 0 30 0 0 130 0 130 -30 0 -30 0 0 -130z"/>
<path d="M9590 2561 c0 -27 3 -30 38 -33 l37 -3 2 -55 c2 -30 5 -74 9 -98 5
-37 8 -43 27 -40 21 3 22 9 25 101 l3 97 28 0 c30 0 45 19 35 45 -5 12 -26 15
-105 15 l-99 0 0 -29z"/>
<path d="M9870 2563 c-29 -63 -90 -214 -90 -223 0 -5 12 -10 28 -10 19 0 30 7
37 23 8 18 19 23 63 25 48 3 53 1 62 -22 7 -20 17 -26 40 -26 16 0 30 2 30 5
0 2 -20 51 -45 108 -64 145 -98 177 -125 120z"/>
<path d="M6348 1964 c-30 -16 -36 -33 -40 -109 l-3 -50 -216 -1 c-243 -1 -256
-5 -325 -75 l-39 -40 -9 -480 c-4 -264 -5 -495 -2 -515 8 -42 59 -102 103
-120 24 -11 92 -14 264 -14 l231 0 -4 -280 -5 -280 24 0 c23 0 23 1 23 113 0
63 3 189 7 280 l6 167 84 0 c49 0 83 -4 83 -10 0 -9 -20 -12 -115 -14 -32 -1
-40 -5 -40 -20 0 -25 17 -33 90 -43 l60 -8 7 -165 c5 -91 6 -195 3 -233 l-4
-67 29 0 30 0 0 283 0 282 83 -7 c45 -3 141 -7 212 -7 154 -1 182 9 234 85
l33 49 -6 230 c-4 127 -2 340 3 475 7 156 7 258 1 280 -11 40 -71 104 -113
119 -17 7 -115 11 -238 11 l-209 0 0 56 c0 68 -12 92 -55 110 -45 18 -152 17
-187 -2z m170 -49 c7 -3 12 -23 12 -55 l0 -50 -67 0 c-38 0 -75 -5 -83 -10
-19 -12 -28 10 -29 72 l-1 47 38 3 c38 4 107 0 130 -7z m510 -189 c64 -33 64
-27 63 -558 -1 -317 -5 -486 -12 -499 -6 -11 -25 -29 -42 -39 -31 -19 -55 -20
-612 -20 -638 0 -607 -3 -640 61 -14 25 -15 91 -10 512 l6 482 36 37 37 38
205 3 c113 2 371 3 572 2 316 -2 370 -5 397 -19z"/>
<path d="M6088 1550 c-3 -102 -15 -134 -42 -115 -61 45 -68 48 -76 36 -21 -34
31 -94 81 -94 23 0 40 8 61 31 27 31 28 37 28 131 0 99 -4 111 -40 111 -4 0
-10 -45 -12 -100z"/>
<path d="M6215 1543 c-43 -111 -50 -165 -23 -171 12 -2 21 6 29 25 13 36 25
43 77 43 33 0 42 -4 42 -17 0 -26 12 -39 39 -48 23 -7 24 -5 18 25 -8 37 -75
209 -90 228 -5 6 -20 12 -32 12 -19 0 -28 -14 -60 -97z"/>
<path d="M6462 1615 c-40 -34 -56 -75 -48 -127 11 -70 54 -108 123 -108 63 0
90 17 110 68 16 43 16 45 -2 58 -10 8 -28 14 -39 14 -12 0 -31 3 -43 6 -20 5
-23 2 -23 -20 0 -21 5 -26 26 -26 21 0 25 -4 22 -22 -3 -20 -9 -23 -45 -22
-23 0 -49 6 -57 14 -21 17 -21 89 0 119 14 19 22 22 53 17 73 -13 95 -12 99 6
5 24 -47 48 -102 48 -33 0 -52 -6 -74 -25z"/>
<path d="M6740 1604 c-6 -14 -10 -28 -10 -30 0 -3 -17 -43 -37 -90 -27 -62
-34 -87 -25 -96 15 -15 41 -3 52 27 7 19 17 25 39 25 44 0 78 -16 86 -39 4
-12 15 -21 27 -21 18 0 20 5 15 33 -3 17 -24 74 -47 125 -37 78 -46 92 -67 92
-16 0 -27 -8 -33 -26z"/>
<path d="M5920 1288 c-63 -44 -56 -95 18 -119 45 -14 62 -27 62 -46 0 -23 -31
-27 -66 -8 -61 33 -91 -9 -31 -45 70 -43 157 -6 157 67 0 30 -5 35 -61 63 -80
41 -67 72 19 45 35 -12 30 31 -8 50 -39 20 -51 19 -90 -7z"/>
<path d="M6090 1243 c1 -92 15 -145 45 -170 39 -34 80 -30 121 11 34 34 34 35
34 126 0 89 -1 91 -22 88 -21 -3 -23 -10 -28 -83 -3 -44 -9 -86 -13 -92 -5 -7
-21 -13 -37 -13 -16 0 -32 6 -37 13 -4 6 -10 48 -13 92 -5 73 -7 80 -27 83
-22 3 -23 0 -23 -55z"/>
<path d="M6332 1178 c3 -115 4 -123 23 -123 18 0 20 6 18 68 -1 38 1 67 6 65
5 -2 30 -31 56 -66 36 -49 51 -63 68 -60 21 3 22 7 22 111 1 115 -4 133 -29
124 -11 -4 -16 -24 -18 -72 l-3 -67 -30 43 c-44 62 -81 99 -100 99 -14 0 -15
-15 -13 -122z"/>
<path d="M6604 1267 c-31 -28 -37 -41 -42 -85 -4 -50 -3 -53 36 -92 44 -44 84
-52 134 -26 16 9 30 11 33 5 4 -5 26 -9 51 -9 57 0 71 24 51 90 -14 49 -29 57
-73 39 l-29 -12 25 -6 c29 -8 39 -51 16 -70 -21 -17 -56 23 -56 65 0 27 -4 32
-27 37 -16 3 -31 3 -35 0 -12 -7 -10 -41 4 -62 12 -19 5 -51 -11 -51 -5 0 -23
12 -40 26 -35 30 -41 75 -15 112 14 20 23 23 75 21 32 -1 62 1 67 5 15 16 -40
46 -84 46 -36 0 -51 -6 -80 -33z"/>
<path d="M6190 935 c-48 -49 -65 -49 -57 1 5 32 4 34 -24 34 l-29 0 0 -119 c0
-119 0 -119 25 -123 23 -5 25 -2 25 31 0 63 13 67 58 19 23 -24 42 -46 42 -50
0 -5 11 -8 25 -8 35 0 32 18 -16 89 -37 56 -39 62 -26 82 9 11 25 27 36 35 26
19 28 54 3 54 -10 0 -38 -20 -62 -45z"/>
<path d="M6317 973 c-8 -8 -7 -118 1 -193 6 -46 11 -56 28 -58 19 -3 22 3 28
59 3 34 6 93 6 130 l0 69 -28 0 c-16 0 -32 -3 -35 -7z"/>
<path d="M6410 948 c0 -23 5 -27 33 -30 l32 -3 3 -87 c2 -59 7 -90 17 -98 27
-22 35 0 35 96 l0 94 31 0 c27 0 30 3 27 27 -3 26 -4 26 -90 27 l-88 2 0 -28z"/>
<path d="M6650 928 c-6 -24 -25 -72 -41 -107 -16 -35 -29 -72 -29 -82 0 -28
35 -23 48 6 10 22 18 25 67 25 49 0 57 -3 67 -25 8 -18 19 -25 40 -25 15 0 28
2 28 4 0 13 -94 214 -107 228 -9 10 -26 18 -38 18 -17 0 -25 -9 -35 -42z"/>
<path d="M524 1719 c-28 -14 -72 -84 -90 -144 -30 -100 -36 -193 -26 -370 12
-213 12 -243 1 -222 -15 26 -130 97 -158 97 -42 0 -71 -26 -71 -64 0 -85 75
-230 186 -360 65 -77 133 -125 208 -148 29 -9 45 -23 65 -55 28 -47 52 -52 61
-14 3 13 12 27 20 32 8 4 46 21 83 39 118 55 232 178 278 300 18 47 18 53 3
88 -12 29 -15 73 -14 202 1 187 -7 223 -50 239 -68 23 -150 -40 -219 -169 -20
-37 -37 -58 -42 -53 -5 5 -14 66 -19 136 -16 207 -75 396 -143 453 -31 26 -41
28 -73 13z m53 -51 c37 -40 92 -194 109 -303 1 -11 7 -44 13 -74 6 -29 11
-105 11 -167 0 -96 -4 -123 -25 -181 -14 -37 -28 -99 -32 -136 -4 -42 -10 -66
-17 -64 -11 4 -16 60 -36 412 -13 249 -25 358 -38 363 -5 1 -8 11 -5 21 3 10
0 21 -5 25 -5 3 -9 0 -9 -7 1 -6 -2 -51 -7 -98 -5 -57 -4 -118 4 -180 13 -103
20 -429 9 -429 -4 0 -21 23 -39 50 -45 70 -71 224 -73 425 -2 141 0 155 27
234 26 77 61 131 84 131 5 0 18 -10 29 -22z m413 -353 c0 -8 4 -15 8 -15 24 0
41 -167 28 -270 -13 -98 -17 -109 -65 -139 -35 -23 -47 -27 -53 -17 -9 16 -5
39 34 181 16 57 10 118 -8 94 -21 -27 -44 -82 -65 -158 -25 -91 -63 -191 -92
-246 -11 -22 -36 -70 -54 -107 -18 -38 -37 -68 -42 -68 -17 0 10 251 35 326
32 96 141 321 175 363 46 58 99 88 99 56z m-720 -290 c0 -17 7 -28 23 -34 12
-5 25 -7 28 -5 3 2 46 -40 95 -92 74 -80 93 -107 112 -163 45 -126 62 -184 58
-189 -20 -19 -211 156 -256 235 -8 15 -21 34 -28 41 -25 28 -82 152 -82 180 0
30 16 52 37 52 7 0 13 -11 13 -25z m768 -169 c5 -54 -31 -119 -107 -195 -72
-72 -171 -133 -171 -106 0 22 118 235 144 261 32 32 110 84 121 80 6 -1 11
-19 13 -40z"/>
<path d="M9199 1637 c-40 -33 -52 -64 -45 -111 l7 -41 -57 63 c-48 54 -59 61
-67 47 -7 -13 2 -30 36 -75 44 -56 51 -70 48 -97 -2 -24 -40 -13 -72 22 -18
18 -36 32 -41 29 -16 -10 -8 -41 17 -64 20 -19 34 -23 75 -21 39 2 50 -1 50
-14 0 -8 7 -15 15 -15 11 0 13 7 9 29 -7 31 11 75 27 66 5 -4 9 -15 9 -25 0
-30 40 -51 77 -41 41 12 83 40 83 57 0 26 -23 27 -44 2 -32 -38 -55 -42 -66
-12 -7 18 -6 33 6 56 23 45 3 60 -34 25 -15 -15 -31 -27 -35 -27 -13 0 -7 72
8 86 8 9 15 25 15 36 0 11 8 22 20 25 11 3 17 9 14 14 -9 14 -27 10 -55 -14z"/>
<path d="M1787 1310 c-26 -38 -47 -79 -47 -90 0 -30 37 -62 68 -58 l27 3 1
-100 c0 -55 2 -245 3 -421 1 -308 2 -322 22 -339 18 -17 21 -17 35 -3 14 13
14 24 5 67 -6 31 -11 160 -11 311 0 258 0 260 21 260 20 0 21 -3 14 -47 -4
-27 -8 -64 -8 -83 0 -51 13 -226 22 -279 4 -26 6 -62 5 -81 -3 -51 4 -60 47
-60 l39 0 0 133 c1 188 13 317 29 317 34 0 61 -109 61 -249 0 -92 12 -124 60
-165 56 -47 149 -26 186 42 22 42 24 115 4 270 -7 56 -11 104 -9 106 2 2 21 1
43 -2 l38 -4 -7 -112 c-12 -170 -3 -240 37 -283 43 -46 137 -54 183 -15 37 31
53 100 44 192 0 8 2 59 7 113 7 102 18 123 49 97 12 -10 15 -51 17 -208 l3
-197 30 -5 c27 -5 31 -11 45 -63 13 -52 17 -57 41 -57 19 0 28 6 33 22 3 13 6
138 6 279 0 331 10 560 24 564 6 2 23 6 39 9 15 4 27 13 27 21 0 8 5 15 10 15
6 0 10 -4 10 -9 0 -5 16 -19 35 -31 34 -21 35 -24 35 -80 0 -33 4 -81 9 -107
6 -26 12 -186 15 -355 2 -170 8 -312 11 -318 7 -11 35 -13 59 -4 20 8 21 44 2
44 -8 0 -17 7 -20 16 -3 9 -6 144 -6 300 0 236 2 284 14 284 10 0 16 -29 23
-122 8 -101 10 -111 12 -58 1 36 6 74 11 85 10 22 7 -107 -8 -325 -5 -74 -8
-136 -7 -138 2 -2 22 -4 46 -5 l43 -2 3 200 c2 110 5 210 8 222 3 13 18 29 34
38 27 14 29 13 35 -8 3 -12 6 -92 6 -178 0 -154 0 -155 29 -201 36 -57 87 -78
142 -59 49 17 66 33 87 81 l18 44 20 -39 c27 -57 78 -88 131 -82 54 6 91 30
108 70 9 25 22 212 25 369 0 4 14 1 32 -6 l32 -14 1 -203 0 -204 25 0 25 0 6
180 c4 99 12 200 18 225 6 25 11 59 11 76 0 31 23 63 34 46 3 -5 1 -112 -4
-238 -5 -126 -10 -267 -12 -314 l-3 -85 30 0 30 0 6 310 c4 171 10 365 14 433
l8 122 38 0 c25 0 41 6 47 17 9 16 11 16 27 0 9 -9 20 -17 25 -17 33 0 35 -25
39 -425 1 -220 7 -409 12 -422 6 -17 16 -23 38 -23 35 0 37 3 46 60 9 60 11
62 47 40 17 -10 36 -16 42 -14 8 3 10 68 8 224 l-4 220 27 0 c14 0 35 -5 46
-11 20 -10 20 -19 18 -167 -3 -169 4 -202 53 -236 30 -21 112 -21 148 0 52 31
60 67 60 255 0 117 3 168 11 164 7 -5 9 -64 8 -173 -3 -179 -1 -188 50 -236
56 -54 155 -33 190 40 9 19 15 69 17 144 1 63 2 141 3 174 l1 59 32 -7 c18 -3
36 -12 40 -19 4 -6 8 -103 8 -214 0 -182 2 -203 18 -211 38 -20 41 -8 41 205
1 132 5 211 12 219 6 7 13 40 16 73 5 53 8 59 23 51 16 -9 17 -34 17 -307 -1
-318 2 -347 44 -336 11 3 24 16 29 29 5 12 10 197 10 411 1 213 4 398 7 410 4
16 13 23 36 25 30 3 32 6 35 45 4 53 -50 168 -74 159 -9 -3 -21 -6 -27 -6 -6
0 -1 -7 12 -16 27 -19 60 -88 61 -124 l0 -25 -602 1 -603 2 -5 28 c-4 19 -8
25 -13 17 -15 -23 -26 -14 -56 46 -28 54 -47 70 -86 71 -5 0 7 -17 27 -37 41
-44 54 -68 53 -103 l0 -25 -570 0 c-475 0 -575 3 -601 15 -21 9 -30 19 -26 28
4 12 1 12 -16 3 -19 -10 -24 -6 -54 51 -28 53 -38 64 -63 66 l-30 4 28 -22
c34 -27 54 -65 59 -110 l3 -35 -345 0 c-190 0 -462 2 -605 5 l-260 5 2 34 c1
19 14 51 32 76 32 45 36 55 23 55 -4 0 -29 -31 -55 -70z m2367 -197 c3 -21 6
-54 6 -73 l0 -36 -495 -1 -495 -1 0 69 0 69 458 3 c251 1 471 3 488 5 29 2 32
-1 38 -35z m1300 -9 c3 -26 6 -60 6 -75 l0 -29 -422 0 c-233 -1 -461 -3 -507
-6 -63 -4 -86 -2 -92 8 -5 7 -9 41 -9 75 l0 63 473 3 c259 1 488 3 508 5 36 2
36 2 43 -44z m-2562 -26 c2 -35 1 -67 -2 -71 -9 -10 -992 -9 -1002 1 -4 4 -5
36 -2 70 l7 62 498 0 497 0 4 -62z m-6 -172 c-8 -42 -9 -355 -1 -465 5 -70 4
-82 -6 -66 -7 11 -17 23 -23 27 -24 16 -15 443 10 531 9 30 26 6 20 -27z m728
24 c3 -8 6 -98 8 -200 l3 -185 -75 -8 c-64 -6 -77 -5 -87 10 -16 21 -17 79 -2
88 7 5 5 11 -4 18 -11 9 -16 48 -21 152 l-6 140 90 0 c72 0 91 -3 94 -15z
m228 10 l81 0 -7 -147 c-4 -82 -8 -169 -10 -195 -1 -26 -6 -51 -10 -55 -13
-13 -159 -5 -168 9 -10 17 -10 85 0 92 4 2 4 44 0 93 -11 116 -2 217 19 209 8
-3 51 -6 95 -6z m643 -97 c8 -105 0 -396 -11 -460 -4 -18 -10 -33 -14 -33 -16
0 -20 51 -20 261 0 247 7 339 25 339 9 0 15 -31 20 -107z m338 37 l67 0 0
-154 c0 -85 -3 -161 -6 -170 -3 -9 -14 -16 -24 -16 -25 0 -35 -17 -20 -35 6
-8 10 -24 8 -37 -3 -20 -10 -23 -49 -26 -54 -3 -75 14 -65 53 4 14 10 24 14
21 4 -2 23 -1 42 4 35 8 35 8 -12 9 -35 1 -50 6 -57 20 -6 11 -10 89 -10 181
1 160 1 162 23 156 11 -3 51 -6 89 -6z m339 -170 c-1 -90 -7 -169 -12 -174 -6
-6 -39 -12 -74 -14 -55 -4 -66 -2 -74 15 -6 11 -11 91 -11 181 l-1 163 87 -3
88 -3 -3 -165z m-2834 49 l3 -77 -64 -11 c-118 -20 -107 -30 -132 121 l-6 37
43 4 c24 2 68 3 98 3 l55 -1 3 -76z m300 71 l55 0 -7 -67 c-11 -121 -5 -115
-105 -107 -47 3 -90 10 -95 14 -4 5 -5 45 -1 90 l7 82 46 -6 c24 -3 70 -6 100
-6z m-288 -230 c0 -48 -14 -56 -105 -61 -59 -4 -60 -3 -63 23 -5 45 13 66 61
71 112 10 107 11 107 -33z m305 10 c9 -8 15 -25 13 -39 -3 -25 -5 -26 -90 -29
l-87 -3 -7 37 c-5 26 -3 39 7 46 19 13 145 4 164 -12z"/>
<path d="M10079 1365 c-55 -30 -41 -109 29 -162 47 -36 65 -41 56 -18 -4 8 -2
15 4 15 6 0 13 -18 17 -40 4 -22 9 -40 12 -40 3 0 13 10 24 23 14 17 18 39 19
100 0 56 -3 77 -13 77 -7 0 -28 13 -47 30 -39 33 -62 36 -101 15z"/>
<path d="M1402 693 c-32 -6 -46 -37 -33 -74 13 -38 32 -56 67 -65 16 -4 35
-14 42 -23 11 -14 14 -14 30 5 9 12 22 30 29 40 12 18 12 18 19 -3 8 -27 6
-27 49 -9 31 13 55 41 55 65 0 21 -53 71 -76 71 -31 0 -89 -59 -97 -99 -8 -36
-15 -38 -45 -11 -34 32 -39 70 -12 92 22 18 17 20 -28 11z"/>
</g>
</svg>
