<?xml version="1.0" standalone="no"?>
<!DOCTYPE svg PUBLIC "-//W3C//DTD SVG 20010904//EN"
 "http://www.w3.org/TR/2001/REC-SVG-20010904/DTD/svg10.dtd">
<svg version="1.0" xmlns="http://www.w3.org/2000/svg"
 width="204.000000pt" height="192.000000pt" viewBox="0 0 204.000000 192.000000"
 preserveAspectRatio="xMidYMid meet">
<metadata>
Created by potrace 1.16, written by Peter Selinger 2001-2019
</metadata>
<g transform="translate(0.000000,192.000000) scale(0.100000,-0.100000)"
fill="#000000" stroke="none">
<path d="M1108 1458 c-106 -146 -181 -307 -194 -420 -22 -190 147 -332 324
-274 102 34 162 127 162 251 0 80 -21 150 -79 261 -45 86 -149 243 -162 244
-3 0 -26 -28 -51 -62z m88 -50 c56 -79 122 -203 143 -265 29 -88 28 -186 -2
-244 -66 -125 -235 -145 -331 -39 -95 106 -67 266 90 508 29 45 57 82 62 82 5
0 22 -19 38 -42z"/>
<path d="M644 737 c-201 -136 -243 -170 -233 -188 9 -17 16 -14 82 33 39 28
101 72 137 98 36 25 73 49 82 53 21 7 418 -169 433 -193 11 -18 -3 -58 -23
-64 -11 -4 -77 21 -162 59 -108 50 -145 62 -152 53 -4 -7 -8 -15 -8 -18 1 -13
278 -133 309 -134 60 0 100 70 70 126 -6 11 -41 34 -77 50 -37 17 -129 59
-204 94 -161 75 -186 78 -254 31z"/>
<path d="M1469 747 c-132 -90 -229 -160 -234 -167 -2 -4 1 -13 9 -19 10 -9 39
7 127 70 156 110 164 114 195 94 54 -35 44 -76 -33 -131 -338 -239 -404 -284
-422 -284 -12 0 -90 32 -174 70 -83 39 -170 79 -192 89 l-40 18 -65 -45 c-89
-62 -101 -74 -90 -91 7 -12 23 -4 85 38 l77 53 184 -86 c115 -54 196 -86 217
-86 23 0 51 13 93 43 32 24 131 94 219 157 195 137 203 145 211 185 7 37 -16
89 -45 105 -33 17 -86 11 -122 -13z"/>
</g>
</svg>
