<?xml version="1.0" standalone="no"?>
<!DOCTYPE svg PUBLIC "-//W3C//DTD SVG 20010904//EN"
 "http://www.w3.org/TR/2001/REC-SVG-20010904/DTD/svg10.dtd">
<svg version="1.0" xmlns="http://www.w3.org/2000/svg"
 width="1024.000000pt" height="1024.000000pt" viewBox="0 0 1024.000000 1024.000000"
 preserveAspectRatio="xMidYMid meet">
<metadata>
Created by potrace 1.16, written by Peter Selinger 2001-2019
</metadata>
<g transform="translate(0.000000,1024.000000) scale(0.100000,-0.100000)"
fill="#000000" stroke="none">
<path d="M4985 8628 c-126 -24 -237 -107 -287 -214 -17 -37 -38 -66 -49 -69
-40 -13 -88 -66 -109 -121 -16 -45 -20 -78 -20 -182 0 -174 11 -239 52 -308
18 -32 38 -59 44 -61 9 -3 71 137 115 263 12 34 23 99 26 151 l6 92 46 -41
c83 -74 189 -108 334 -108 103 0 185 21 260 65 32 19 63 35 68 35 5 0 9 -22 9
-49 0 -53 36 -174 75 -251 14 -27 32 -75 40 -106 8 -32 17 -60 21 -63 8 -8 42
35 70 90 18 37 25 72 31 161 17 243 0 332 -77 402 -22 20 -44 36 -48 36 -5 0
-18 24 -31 54 -25 60 -88 126 -162 169 -98 58 -277 81 -414 55z"/>
<path d="M6590 8319 c-58 -26 -87 -54 -110 -104 -22 -51 -33 -105 -20 -105 6
0 10 11 10 25 0 32 26 95 39 95 5 0 12 -6 14 -12 3 -7 4 1 4 17 -1 20 2 29 11
27 8 -1 11 2 7 7 -3 6 3 15 14 20 29 16 39 13 17 -4 -15 -11 -16 -15 -5 -15 8
0 19 4 25 10 6 6 9 -8 9 -38 1 -26 -4 -50 -9 -54 -5 -3 -11 -30 -12 -59 -1
-29 1 -47 6 -40 6 11 8 11 12 0 7 -20 28 0 28 27 0 14 8 39 17 57 9 18 16 36
15 40 -1 4 7 3 17 -3 11 -5 30 -33 43 -60 15 -32 29 -50 40 -50 16 0 18 10 18
74 0 40 -3 88 -6 105 -12 60 -99 79 -184 40z"/>
<path d="M6814 8307 c3 -16 6 -67 6 -112 l0 -82 58 15 c68 19 69 19 54 34 -7
7 -12 25 -12 40 0 21 5 28 19 28 24 0 36 16 19 24 -7 2 -4 4 7 3 30 -4 45 -16
39 -32 -3 -7 -1 -23 6 -34 8 -16 8 -26 0 -39 -11 -16 -11 -16 -6 1 3 11 2 15
-4 12 -6 -3 -10 -53 -10 -111 0 -109 1 -110 46 -105 7 1 11 -24 12 -66 1 -47
-1 -62 -8 -48 -5 11 -9 36 -10 55 l-1 35 -15 -34 c-8 -19 -14 -58 -14 -85 1
-28 -2 -71 -5 -96 -3 -32 -2 -39 4 -25 7 15 10 6 10 -37 1 -70 20 -78 23 -10
l1 47 6 -50 c6 -48 6 -47 14 35 10 117 9 402 -2 477 -18 124 -56 162 -179 180
l-64 10 6 -30z"/>
<path d="M6458 8023 c-38 -4 -38 -5 -38 -49 l0 -44 100 -1 c55 -1 106 -2 113
-3 14 -1 21 45 13 80 -6 23 -10 24 -79 22 -39 -1 -89 -3 -109 -5z"/>
<path d="M2453 7680 c-137 -21 -213 -126 -235 -324 -14 -123 -12 -126 60 -126
l42 0 0 38 c0 62 24 137 59 181 35 44 81 65 90 40 2 -8 19 -29 37 -46 29 -30
38 -33 91 -33 48 0 64 4 79 21 35 39 16 164 -34 220 -23 25 -36 31 -82 34 -30
2 -78 0 -107 -5z"/>
<path d="M3530 7399 c-19 -21 -40 -39 -47 -39 -22 0 -16 -73 7 -88 16 -10 20
-10 22 0 0 7 4 -7 7 -32 l6 -45 46 0 c36 -1 45 3 46 17 2 20 26 48 42 48 6 0
11 11 11 23 0 13 3 27 7 31 15 15 1 77 -23 101 -38 38 -81 33 -124 -16z"/>
<path d="M7766 7063 c-3 -3 18 -22 46 -42 74 -52 120 -138 126 -237 4 -69 2
-78 -32 -149 -42 -85 -75 -115 -196 -173 -41 -20 -77 -38 -79 -39 -2 -1 10
-14 27 -28 28 -24 62 -97 62 -136 0 -22 -22 -31 -85 -34 -27 -2 -53 -4 -57 -4
-5 -1 -8 -9 -8 -18 0 -15 -2 -16 -10 -3 -6 10 -7 -8 -3 -52 7 -75 -9 -169 -39
-233 -29 -65 -74 -112 -136 -142 -53 -26 -66 -28 -174 -28 -65 0 -118 -3 -118
-7 0 -10 79 -36 144 -48 94 -16 159 -12 230 14 66 23 92 45 122 100 14 25 18
28 28 15 6 -8 37 -36 68 -62 68 -54 135 -77 227 -77 66 0 186 26 229 49 32 17
28 33 -5 24 -16 -5 -68 -8 -118 -8 -107 1 -158 20 -230 86 -78 72 -89 103 -90
251 l0 127 75 70 c86 82 142 106 224 99 69 -6 121 -32 181 -93 65 -64 88 -131
83 -240 -2 -41 0 -75 3 -75 12 0 30 54 36 110 7 74 -11 180 -44 244 -36 71
-138 171 -191 187 -23 7 -42 15 -42 19 0 4 7 29 15 56 19 63 19 111 -1 187
-21 81 -43 123 -99 184 -58 66 -151 124 -169 106z"/>
<path d="M7236 6878 c-43 -68 -59 -233 -31 -313 8 -21 13 -40 12 -41 -1 -1
-27 -13 -57 -27 -64 -28 -130 -91 -171 -162 -29 -50 -47 -125 -35 -144 10 -15
32 -3 45 25 14 32 14 37 -1 29 -7 -4 -5 0 4 8 10 8 15 17 11 20 -3 4 -1 7 6 7
7 0 9 5 6 10 -4 6 -2 9 3 8 5 -2 43 16 85 40 104 59 159 65 247 25 42 -19 75
-42 93 -66 15 -20 37 -41 47 -47 18 -9 19 -8 14 17 -6 35 42 134 72 147 18 8
6 16 -80 58 -99 49 -136 73 -136 89 0 5 6 6 14 3 8 -3 48 6 90 20 99 35 181
35 280 0 59 -20 79 -23 95 -14 28 14 27 20 -11 60 -53 54 -131 85 -213 85
-123 -1 -206 -41 -269 -129 -12 -18 -16 -13 -45 62 -17 45 -32 101 -32 124 -1
24 -9 52 -18 62 -10 12 -11 16 -3 12 11 -7 12 -4 3 13 -7 12 -9 26 -6 31 3 6
4 10 1 10 -3 0 -12 -10 -20 -22z"/>
<path d="M4655 6810 c-11 -18 -128 -78 -335 -172 -266 -122 -339 -165 -425
-253 -75 -76 -122 -148 -161 -243 -51 -128 -54 -149 -56 -568 -2 -216 0 -395
4 -399 3 -4 35 6 70 20 91 39 126 42 184 12 168 -85 353 -89 509 -11 47 24 50
25 63 7 12 -16 13 -12 7 30 -5 35 -3 60 10 92 16 44 16 46 -6 85 -18 32 -21
46 -13 67 13 39 68 73 116 73 l40 0 -6 38 c-7 43 -42 335 -52 435 -9 93 -8
117 4 129 11 11 975 21 1021 11 22 -6 23 -9 18 -67 -4 -34 -16 -178 -27 -321
-11 -143 -22 -272 -25 -287 -4 -23 -1 -28 16 -28 11 0 30 -5 42 -11 80 -41 91
-105 28 -168 -21 -21 -55 -44 -75 -51 -25 -8 -36 -18 -36 -31 0 -27 28 -24 91
9 l54 28 65 -33 c96 -49 157 -57 250 -33 41 11 107 31 145 44 39 14 81 26 94
26 13 0 64 -19 113 -41 75 -35 190 -74 193 -66 0 1 -2 191 -5 422 -7 419 -7
420 -33 508 -44 145 -113 262 -204 348 -87 84 -127 106 -448 250 -66 29 -167
77 -224 107 -79 39 -107 49 -113 40 -4 -7 -8 -15 -8 -18 0 -3 -21 -28 -47 -54
-74 -75 -184 -124 -309 -137 -170 -18 -273 5 -381 85 -32 23 -74 63 -93 89
-36 48 -45 54 -55 37z m539 -369 c39 -75 45 -114 20 -149 -33 -48 -155 -10
-162 50 -5 40 70 168 98 168 4 0 24 -31 44 -69z"/>
<path d="M2247 6793 l-178 -3 3 -25 3 -25 178 -6 177 -5 0 36 c0 19 -1 34 -2
33 -2 -1 -83 -4 -181 -5z"/>
<path d="M7210 6334 c0 -38 39 -186 56 -212 37 -56 93 -107 149 -134 68 -32
100 -35 109 -12 13 35 5 54 -35 80 -56 35 -127 102 -144 135 -8 14 -21 56 -31
92 -17 68 -26 77 -81 77 -18 0 -23 -6 -23 -26z"/>
<path d="M7941 6338 c-6 -13 -15 -48 -21 -80 -16 -79 -61 -143 -138 -192 -57
-36 -63 -43 -60 -71 3 -27 6 -30 33 -27 33 3 140 65 140 80 0 5 13 23 28 38
36 36 60 81 51 96 -4 7 -3 8 4 4 16 -10 24 29 20 104 -3 59 -5 65 -25 68 -16
2 -26 -4 -32 -20z"/>
<path d="M4690 6085 c0 -13 54 -15 424 -15 233 0 431 3 440 6 51 20 -24 24
-424 24 -384 0 -440 -2 -440 -15z"/>
<path d="M2390 5622 c-8 -2 -28 -10 -45 -17 -16 -7 -37 -16 -45 -18 -11 -4
-11 -6 3 -6 33 -2 6 -21 -31 -23 -37 -1 -37 -1 8 -8 25 -4 36 -8 26 -8 -16 -2
-17 -5 -8 -14 9 -9 8 -16 -5 -30 -9 -10 -22 -18 -28 -18 -13 0 -25 -43 -25
-91 0 -22 5 -29 20 -29 13 0 20 -7 20 -18 0 -19 29 -52 42 -49 13 3 49 -33 43
-43 -3 -6 -1 -10 4 -10 6 0 11 -7 11 -15 0 -8 5 -14 11 -12 6 1 13 -6 14 -16
2 -9 -1 -15 -6 -11 -5 3 -15 2 -21 -2 -9 -6 -5 -10 12 -15 22 -6 21 -7 -10 -9
l-35 -2 34 -9 c18 -6 35 -8 37 -6 3 2 1 112 -3 244 -7 206 -10 239 -23 235z"/>
<path d="M4740 5564 c0 -7 54 -13 161 -17 139 -4 165 -8 188 -25 28 -21 36
-42 27 -76 -10 -41 -43 -46 -287 -46 l-230 0 3 -22 3 -23 297 -5 296 -5 26
-24 c31 -30 33 -59 5 -95 l-20 -26 -290 0 -289 0 0 -25 0 -25 123 0 c379 -1
425 -4 446 -25 36 -37 31 -99 -10 -120 -26 -14 -69 -16 -297 -13 -261 3 -267
3 -267 -17 0 -19 8 -20 215 -23 118 -1 225 -4 237 -7 33 -8 48 -42 32 -72 -25
-47 -49 -51 -290 -54 -123 -2 -231 0 -239 5 -12 7 -13 7 -2 -5 9 -10 45 -15
123 -17 72 -3 112 -8 114 -15 2 -7 9 -31 15 -54 6 -24 16 -43 22 -43 9 0 9 3
0 12 -17 17 -15 24 11 49 16 16 18 20 5 16 -10 -3 -20 -2 -23 3 -4 6 3 10 14
10 14 0 27 -13 40 -37 11 -21 20 -31 21 -23 0 9 -5 21 -11 27 -8 8 -7 13 2 19
7 4 14 3 17 -4 2 -7 10 -12 18 -12 9 0 12 5 9 10 -5 9 78 16 88 8 2 -2 20 10
41 26 41 31 60 28 30 -5 -13 -15 -14 -20 -4 -17 27 6 38 22 29 40 -7 13 -4 26
8 44 13 21 15 31 5 56 -10 27 -9 30 14 39 14 5 29 9 33 9 4 0 22 11 41 25 19
14 31 25 28 25 -4 0 -2 15 3 34 6 22 6 43 -1 60 -6 16 -6 26 0 26 5 0 7 7 3
16 -4 12 -7 13 -14 3 -4 -8 -11 -10 -15 -6 -4 4 4 20 18 35 43 45 50 67 38
112 -14 53 -60 87 -129 96 l-54 7 26 19 c38 28 37 77 -2 120 l-29 33 -186 5
c-132 4 -186 2 -186 -6z"/>
<path d="M5455 5057 c-4 -48 -10 -89 -14 -91 -3 -2 -15 0 -25 3 -18 7 -18 8 5
24 22 16 22 17 4 18 -11 1 -28 1 -37 0 -11 -2 -18 5 -19 16 0 14 -3 12 -10 -6
-7 -19 -6 -28 6 -40 10 -10 15 -11 15 -3 0 7 -4 12 -10 12 -5 0 -10 4 -10 9 0
4 11 6 25 3 20 -3 23 -7 14 -18 -9 -11 -5 -16 15 -25 14 -7 26 -16 26 -21 0
-5 -9 -4 -19 2 -11 5 -26 10 -33 10 -7 0 2 -8 20 -16 17 -9 32 -22 32 -30 0
-17 -44 -48 -48 -34 -2 6 -9 7 -14 4 -7 -4 -8 -2 -4 5 4 6 11 9 15 7 4 -3 13
-1 21 4 13 8 13 11 1 22 -8 7 -11 8 -8 2 4 -7 -3 -14 -18 -18 -14 -4 -25 -11
-25 -16 0 -15 31 -28 54 -22 19 5 19 4 7 -11 -16 -20 -41 -19 -57 2 -9 11 -12
10 -16 -7 -4 -15 -2 -19 8 -15 21 8 17 -6 -8 -29 -18 -15 -19 -18 -5 -14 12 4
17 0 17 -14 0 -24 16 -34 24 -14 4 10 2 13 -6 8 -8 -5 -9 -2 -5 9 3 10 2 17
-4 17 -6 0 -7 5 -4 10 5 8 11 7 21 -1 9 -7 14 -8 14 -1 0 6 -6 12 -12 14 -7 3
-2 7 10 10 12 4 25 1 29 -4 4 -7 1 -8 -7 -3 -10 6 -12 0 -8 -23 2 -17 2 -29
-2 -27 -3 2 -11 -5 -18 -16 -8 -12 -9 -19 -1 -19 5 0 8 -4 5 -9 -4 -5 0 -12 6
-14 8 -3 6 -6 -4 -6 -10 -1 -18 4 -18 10 0 17 -29 41 -41 34 -5 -4 -24 -9 -41
-12 -27 -4 -30 -2 -25 16 3 12 1 21 -4 21 -5 0 -9 -5 -9 -11 0 -7 -9 -9 -21
-6 -15 4 -19 3 -11 -5 7 -7 6 -20 -4 -44 -12 -30 -12 -34 1 -34 8 0 12 6 9 14
-3 8 0 17 5 21 6 3 9 11 6 16 -4 5 1 9 9 9 9 0 16 -7 16 -15 0 -8 -7 -15 -16
-15 -8 0 -12 -5 -9 -10 4 -6 11 -7 17 -4 6 4 14 0 19 -7 6 -10 9 -11 9 -1 0 6
12 12 28 12 21 0 24 -2 12 -10 -13 -8 -12 -10 3 -10 9 0 17 5 17 10 0 6 12 10
28 9 l27 -1 -25 -8 c-24 -8 -24 -8 -3 -9 13 -1 29 8 37 22 15 22 62 414 53
439 -2 7 -8 -26 -12 -75z"/>
<path d="M4205 3948 c-22 -11 -55 -34 -73 -52 -42 -39 -98 -147 -107 -207 -6
-39 5 -137 21 -191 5 -16 -4 -18 -82 -18 -90 0 -112 -7 -34 -11 50 -2 81 -23
73 -47 -4 -14 -3 -15 5 -2 8 10 8 18 0 27 -8 10 -7 12 6 7 10 -4 15 -13 11
-24 -3 -10 -1 -21 5 -25 6 -4 13 7 16 25 l7 31 47 -53 c28 -31 71 -65 104 -82
32 -16 53 -32 49 -37 -14 -13 -144 -59 -243 -86 -197 -52 -542 -40 -740 27
-47 16 -119 38 -160 50 -41 12 -138 51 -215 87 -121 57 -238 96 -310 104 -11
1 -33 -3 -49 -10 -53 -22 -171 -83 -186 -96 -22 -20 -200 -101 -261 -119 -43
-13 -56 -14 -78 -3 -21 10 -26 19 -24 47 4 79 7 99 13 90 4 -6 18 11 33 38 15
27 23 53 19 57 -4 5 -1 5 6 1 6 -4 12 -3 12 1 0 5 21 31 47 57 27 27 42 46 36
42 -10 -5 -13 10 -13 63 l0 70 103 -4 c79 -3 91 -2 52 5 -27 4 -74 9 -104 9
-51 1 -57 4 -100 49 -32 32 -40 38 -27 17 11 -16 27 -36 35 -43 14 -12 14 -13
-4 -8 -18 6 -17 4 3 -12 15 -12 21 -24 16 -35 -7 -19 -24 -23 -24 -6 0 5 -5 7
-12 3 -8 -5 -5 -11 10 -17 12 -6 22 -14 22 -19 0 -11 -7 -10 -40 7 -18 9 -31
11 -35 5 -3 -6 3 -14 14 -18 21 -7 20 -8 -4 -34 -14 -15 -25 -33 -26 -40 0 -7
-4 -4 -8 6 -10 27 -58 30 -66 5 -4 -11 0 -26 9 -35 20 -19 20 -24 1 -24 -8 0
-15 6 -15 14 0 15 -21 26 -49 26 -10 0 -17 -8 -17 -20 0 -11 4 -20 8 -20 4 0
8 7 8 15 0 9 6 12 15 8 9 -3 14 -8 11 -10 -3 -3 5 -14 17 -23 16 -13 26 -15
35 -8 7 6 15 8 19 4 3 -3 1 -6 -6 -6 -7 0 -11 -6 -8 -14 4 -9 0 -13 -11 -11
-9 1 -27 -8 -39 -21 -13 -14 -25 -20 -28 -14 -4 6 -10 8 -15 5 -5 -3 -19 -1
-33 4 -16 6 -28 6 -36 -2 -8 -8 -14 -8 -23 2 -10 11 -10 13 0 7 6 -4 12 -2 12
4 0 6 4 8 10 5 6 -4 9 7 7 26 -1 18 -8 34 -15 37 -8 2 -10 -2 -5 -14 6 -16 2
-15 -22 4 -28 22 -30 22 -43 5 -7 -10 -18 -18 -25 -18 -34 -1 -58 -17 -52 -36
4 -11 2 -19 -5 -19 -6 0 -9 -4 -6 -9 5 -7 -15 -21 -30 -21 -14 0 -1 30 15 35
11 3 18 11 15 18 -6 18 37 63 69 71 23 6 27 9 17 21 -14 16 -5 35 16 35 8 0
14 8 14 18 0 10 -3 13 -8 6 -4 -6 -15 -13 -25 -17 -10 -4 -17 -15 -16 -24 2
-30 -1 -39 -9 -25 -6 9 -17 5 -40 -18 -22 -20 -32 -25 -32 -15 0 8 -4 15 -10
15 -5 0 -7 -7 -3 -16 5 -14 3 -15 -15 -5 -18 9 -23 8 -32 -9 -11 -21 -1 -27
16 -10 13 13 44 2 44 -15 0 -16 -38 -26 -44 -11 -3 7 -5 7 -5 -2 -1 -7 -5 -10
-11 -7 -5 3 -10 2 -10 -4 0 -5 8 -11 18 -13 14 -3 13 -5 -6 -10 -21 -6 -23 -4
-21 36 3 45 -6 70 -22 60 -6 -3 -6 -10 -1 -17 12 -16 11 -47 -1 -47 -5 0 -3
-8 4 -17 13 -17 12 -17 -4 -4 -12 9 -17 23 -14 37 2 14 -2 25 -10 28 -37 15
-35 10 81 -235 44 -91 118 -226 169 -305 21 -32 56 -87 77 -121 77 -123 399
-510 528 -634 395 -379 879 -680 1407 -877 231 -86 642 -187 850 -207 33 -4
74 -9 90 -11 17 -3 167 -8 335 -11 289 -5 316 -4 515 22 265 33 441 66 575
105 212 63 424 132 474 155 28 13 112 51 186 85 469 214 870 493 1205 842 153
159 236 258 350 413 87 119 107 151 224 355 104 179 292 583 278 596 -2 2 -12
-15 -21 -39 -14 -38 -20 -44 -41 -39 -14 2 -25 0 -25 -7 0 -5 6 -8 14 -5 7 3
16 -1 19 -8 9 -24 -30 -18 -54 8 -22 24 -22 24 -2 24 12 0 23 7 27 15 3 8 1
15 -4 15 -6 0 -10 -4 -10 -10 0 -5 -7 -10 -16 -10 -10 0 -14 6 -11 14 4 10 1
13 -9 9 -7 -3 -14 -11 -14 -18 0 -7 -9 -15 -20 -18 -25 -7 -26 -23 -1 -30 15
-4 18 -1 13 12 -5 14 -4 14 11 2 9 -7 14 -17 11 -22 -3 -5 6 -24 20 -42 31
-41 32 -47 6 -42 -11 2 -22 0 -25 -6 -4 -5 -1 -9 6 -9 16 0 3 -13 -16 -16 -8
-1 -13 2 -9 7 3 5 -1 9 -8 9 -7 1 -2 7 12 14 14 8 28 12 32 10 16 -10 7 12
-15 40 -23 29 -57 32 -57 5 0 -9 4 -9 14 0 10 8 16 9 21 1 3 -5 1 -10 -4 -10
-19 0 -12 -20 7 -21 13 0 12 -2 -5 -9 -13 -5 -23 -16 -23 -25 0 -8 -7 -15 -15
-15 -13 0 -11 5 5 22 l21 23 -28 24 c-15 13 -22 20 -15 17 18 -10 15 9 -4 25
-14 12 -20 9 -40 -16 -19 -24 -21 -32 -11 -45 11 -13 10 -13 -5 -1 -14 11 -18
11 -18 1 0 -8 -3 -11 -6 -8 -3 4 1 17 10 30 15 22 16 27 16 48 0 6 7 10 15 10
15 0 20 12 9 23 -11 11 -46 -14 -40 -29 4 -10 -3 -14 -27 -14 -18 0 -39 -6
-46 -12 -11 -11 -12 -9 -6 11 5 16 4 21 -4 17 -6 -4 -11 -2 -11 3 0 6 9 11 20
11 13 0 20 7 20 20 0 14 -6 20 -22 19 -17 -1 -19 -2 -5 -6 28 -7 20 -20 -14
-21 -23 0 -29 3 -25 14 3 8 0 14 -7 14 -7 0 -13 -11 -13 -24 -1 -18 3 -24 15
-21 15 3 20 -16 12 -43 -1 -1 -11 4 -24 13 -18 12 -23 22 -19 45 2 17 0 30 -6
30 -14 0 -36 -29 -28 -37 4 -4 12 -1 17 7 9 13 10 13 6 0 -2 -8 -12 -14 -21
-14 -9 1 -16 -3 -16 -9 0 -7 -4 -7 -12 1 -9 9 -7 17 10 35 26 28 29 47 5 25
-10 -8 -26 -18 -35 -21 -22 -8 -23 -23 -2 -31 12 -5 14 -9 5 -20 -6 -7 -9 -22
-5 -32 5 -18 5 -18 -6 -1 -6 9 -8 22 -5 27 3 6 -4 10 -16 10 -17 0 -19 3 -10
14 10 12 6 17 -23 27 -30 11 -33 15 -23 28 10 12 9 13 -2 6 -11 -6 -13 -4 -8
8 4 11 1 17 -9 17 -8 0 -13 4 -10 9 4 5 0 11 -6 14 -7 2 -10 7 -7 11 4 4 13 1
21 -7 11 -11 16 -12 26 -1 14 15 -1 29 -20 18 -6 -4 -16 0 -22 8 -6 9 -20 18
-31 20 -11 2 -19 10 -17 17 1 7 -2 9 -8 6 -6 -4 -21 1 -33 11 -12 10 2 -4 31
-32 52 -50 69 -94 37 -94 -21 0 -108 -45 -124 -64 -21 -25 -4 -55 41 -66 22
-6 46 -9 54 -6 23 9 16 -28 -8 -51 -79 -70 -286 -169 -332 -157 -38 9 -142 85
-171 124 -14 19 -32 58 -40 85 -17 59 -23 169 -12 205 l8 25 -19 -22 c-45 -52
-31 -238 24 -310 33 -44 111 -102 147 -109 15 -4 29 -10 32 -14 6 -10 -174
-76 -295 -107 -95 -24 -122 -27 -280 -26 -96 0 -215 5 -265 12 -128 17 -442
119 -588 192 -130 65 -205 89 -283 89 -47 0 -54 3 -76 33 -25 32 -59 92 -58
102 0 3 -2 15 -5 28 -7 26 41 120 84 166 22 24 25 31 13 31 -24 0 -92 -67
-108 -107 -8 -18 -19 -30 -27 -28 -6 3 -25 7 -42 9 -16 2 -49 7 -72 11 -33 6
-43 4 -43 -6 0 -10 15 -14 53 -14 81 -1 103 -10 111 -46 3 -18 5 -34 3 -36 -8
-7 -258 -35 -272 -29 -10 3 -16 21 -17 53 -1 39 -2 42 -5 13 -2 -19 -7 -42
-10 -50 -3 -8 -5 -22 -4 -31 1 -9 -6 -22 -16 -29 -15 -12 -16 -12 -5 0 16 19
16 35 -1 18 -17 -17 -30 -51 -17 -43 6 3 10 2 10 -3 0 -17 -13 -22 -27 -11
-11 10 -11 15 -1 27 12 14 10 14 -12 2 -15 -8 -20 -15 -12 -18 6 -2 12 -8 12
-14 0 -5 -9 -6 -20 -3 -12 4 -20 2 -20 -6 0 -7 10 -9 30 -5 17 3 30 2 30 -2 0
-15 -67 -82 -75 -74 -4 4 -5 1 -1 -6 11 -18 27 -3 82 74 24 34 54 64 67 67 42
11 258 38 273 35 9 -2 22 -18 29 -35 l14 -33 -32 0 c-27 -1 -29 -2 -14 -11 10
-6 28 -8 41 -5 14 3 32 -3 50 -18 l29 -22 -32 -13 c-17 -8 -31 -18 -31 -23 0
-5 -5 -6 -10 -3 -6 3 -22 -2 -38 -13 -41 -29 -230 -126 -294 -152 -51 -21 -62
-22 -98 -11 -42 12 -65 45 -54 75 3 7 -2 21 -11 30 -11 11 -12 16 -4 16 7 0
10 2 7 5 -3 3 -13 2 -22 -1 -13 -5 -14 -9 -6 -14 7 -4 9 -13 5 -20 -6 -9 -9
-9 -15 1 -7 10 -11 10 -23 0 -13 -10 -17 -9 -26 6 -8 14 -11 15 -11 3 0 -11
-3 -10 -11 4 -9 15 -13 16 -20 5 -13 -20 -11 -27 7 -31 13 -3 13 -5 -1 -23
l-15 -20 6 20 c5 19 5 19 -9 2 -13 -16 -14 -14 -12 21 1 22 6 45 10 52 6 10 4
12 -9 7 -10 -4 -20 -7 -22 -7 -3 0 -3 -4 1 -9 3 -5 1 -12 -5 -16 -5 -3 -10
-13 -10 -21 0 -9 5 -12 11 -8 7 4 10 1 7 -6 -8 -25 -28 -23 -28 3 0 34 20 88
31 81 5 -3 6 3 2 12 -11 29 -46 -54 -47 -109 0 -35 -2 -43 -8 -28 -4 12 -12
21 -18 21 -5 0 -10 5 -10 11 0 5 4 8 9 5 5 -3 11 4 15 17 9 33 6 45 -5 19 -5
-13 -13 -20 -19 -17 -6 3 -13 -1 -16 -9 -3 -9 -15 -16 -25 -16 -12 0 -19 -7
-19 -20 0 -24 -18 -26 -27 -3 -5 14 -8 13 -14 -6 -12 -31 -11 -34 6 -37 8 -1
15 2 15 7 0 5 5 9 11 9 7 0 18 8 25 18 12 16 13 15 8 -3 -6 -22 -57 -50 -73
-41 -5 4 -14 -2 -20 -11 -6 -11 -11 -13 -12 -5 -1 6 -2 16 -3 21 -3 23 -16 21
-22 -2 -3 -15 -9 -26 -13 -25 -19 2 -31 -3 -26 -11 3 -5 1 -12 -4 -16 -6 -3
-8 -12 -5 -20 3 -7 -4 -18 -15 -25 -12 -6 -21 -7 -21 -1 0 5 7 11 15 15 8 3
12 12 9 20 -3 9 5 26 19 40 30 30 27 67 -4 59 -10 -3 -19 -1 -19 5 0 6 8 13
18 15 9 2 3 4 -15 3 -17 0 -29 -4 -26 -8 2 -5 -1 -8 -7 -8 -6 0 -8 -5 -5 -10
10 -16 -24 -62 -40 -56 -8 3 -15 0 -17 -6 -4 -11 -68 50 -68 64 0 5 4 7 9 4
15 -10 7 48 -9 61 -12 9 -13 14 -2 24 6 7 12 17 12 21 0 4 -9 -1 -20 -12 -19
-19 -19 -22 -5 -36 18 -19 18 -24 1 -46 -14 -20 -46 -24 -46 -7 0 5 -4 7 -10
4 -5 -3 -10 1 -10 9 0 9 5 16 10 16 6 0 10 12 10 27 0 14 3 24 6 20 3 -3 6
-22 6 -41 0 -20 4 -36 10 -36 5 0 6 5 2 12 -4 6 -3 8 4 4 16 -10 21 17 5 32
-15 16 -17 42 -3 42 6 0 10 5 10 11 0 5 -4 7 -10 4 -5 -3 -10 -1 -10 4 0 6 -9
11 -20 11 -22 0 -27 15 -7 23 7 3 4 6 -6 6 -11 1 -15 6 -11 13 5 7 3 8 -6 3
-13 -8 -12 0 5 62 3 10 -1 5 -9 -12 -13 -25 -22 -21 -17 8 1 5 -4 5 -10 1 -9
-5 -10 -2 -6 12 6 17 6 17 -6 2 -25 -31 -190 -127 -284 -165 l-94 -37 -37 20
c-20 10 -66 48 -103 84 -56 56 -68 74 -82 125 -39 143 -31 236 27 302 57 66
82 88 121 110 50 28 34 29 -20 1z m2126 -586 c24 -15 70 -38 102 -51 55 -23
57 -24 41 -42 -16 -18 -16 -19 0 -19 9 0 19 7 22 15 6 15 44 22 44 8 -1 -13
-108 -97 -143 -113 -18 -8 -34 -18 -37 -21 -4 -5 -33 -19 -50 -24 -3 -1 -18
-8 -33 -15 -38 -19 -47 -4 -47 84 0 58 21 174 36 198 8 13 18 10 65 -20z
m-3506 0 c17 -10 52 -26 78 -36 45 -17 47 -19 33 -35 -25 -27 -19 -35 9 -13
21 17 31 18 65 10 35 -9 56 -28 31 -28 -5 0 -36 -22 -69 -50 -33 -27 -100 -68
-148 -91 -77 -35 -90 -38 -100 -25 -6 9 -15 12 -20 8 -4 -4 -3 0 2 8 6 8 14
35 18 60 9 60 36 171 48 193 11 21 16 21 53 -1z m558 -182 c31 -11 72 -20 91
-20 19 0 37 -4 40 -9 3 -5 21 -5 41 -1 42 9 43 2 11 -48 -41 -65 -102 -118
-178 -155 -101 -50 -115 -49 -124 9 -14 97 15 244 48 244 8 0 39 -9 71 -20z
m3476 3 c23 -6 23 -7 5 -13 -11 -4 4 -7 36 -7 30 0 66 -4 80 -8 23 -7 23 -8
-14 -27 -21 -11 -36 -22 -33 -24 5 -5 38 11 67 32 8 6 30 14 48 17 l33 7 -33
-46 c-60 -84 -213 -204 -261 -204 -26 0 -41 89 -28 165 21 117 30 127 100 108z
m-1944 -184 c4 -5 -11 -29 -34 -51 -57 -59 -75 -100 -75 -183 -1 -56 4 -80 24
-120 25 -49 50 -70 50 -42 0 40 125 107 200 107 57 0 134 -32 174 -71 21 -22
36 -42 33 -45 -3 -3 -33 3 -66 15 -90 31 -181 28 -270 -7 l-70 -28 101 -47
c98 -45 101 -46 123 -29 13 10 51 27 86 37 82 25 151 89 169 155 19 69 8 170
-24 224 -15 25 -35 50 -46 56 -11 6 -20 15 -20 20 0 43 100 -55 136 -133 30
-67 37 -152 20 -253 l-8 -50 42 -19 c24 -11 64 -44 93 -77 29 -34 56 -57 64
-54 18 7 18 -104 0 -129 -20 -27 -33 -12 -41 44 -5 42 -13 55 -46 84 -46 39
-98 57 -164 57 -54 0 -74 -9 -137 -62 -25 -21 -50 -38 -55 -38 -14 0 -48 39
-62 73 -13 30 -27 35 -36 11 -3 -8 -2 -13 3 -10 5 3 14 -1 21 -9 11 -13 10
-14 -4 -9 -29 11 -7 -24 31 -47 24 -15 31 -25 24 -32 -7 -7 -11 -54 -11 -115
0 -102 0 -103 23 -97 43 13 102 61 131 109 28 45 30 55 28 132 -1 67 1 84 13
84 22 0 36 -35 42 -108 5 -56 2 -76 -17 -119 -29 -67 -90 -119 -159 -134 -28
-6 -51 -14 -51 -19 0 -18 56 -73 87 -86 54 -23 130 -18 181 12 31 18 47 23 54
16 21 -21 -17 -57 -81 -77 -97 -29 -182 -13 -289 56 l-32 21 -46 -31 c-68 -45
-106 -54 -203 -49 -73 3 -95 9 -134 31 -45 27 -61 57 -37 72 6 3 10 1 10 -5 0
-18 101 -60 144 -60 67 0 115 20 152 65 19 23 34 44 34 47 0 3 -22 8 -48 12
-116 15 -200 142 -173 259 9 38 36 77 53 77 5 0 7 -8 4 -18 -3 -10 -7 -50 -8
-89 -2 -64 0 -74 26 -107 57 -75 145 -119 160 -80 3 9 6 52 6 97 0 66 -4 87
-20 107 -11 14 -20 22 -20 19 0 -3 -20 14 -45 37 -91 88 -213 84 -304 -10 -25
-26 -35 -46 -38 -80 -6 -52 -24 -60 -49 -21 -12 19 -15 37 -10 72 7 54 14 64
29 42 9 -15 15 -11 39 26 44 66 103 115 138 115 35 0 34 -3 14 68 -38 129 1
271 98 356 56 49 63 52 73 35z m-1885 -354 c73 -38 93 -123 43 -183 -41 -48
-124 -62 -186 -30 -26 13 -57 68 -57 101 0 91 115 156 200 112z m4718 -27 c47
-45 11 -138 -53 -138 -38 0 -84 27 -91 54 -12 48 -1 78 36 98 40 21 74 17 108
-14z m-1126 -121 c-3 -51 -1 -57 16 -57 11 0 36 -7 55 -15 51 -21 53 -20 83
30 29 50 38 54 54 24 14 -25 2 -41 -40 -59 -17 -7 -30 -14 -30 -17 0 -2 13
-21 29 -41 16 -20 37 -61 46 -89 10 -29 23 -53 29 -53 6 0 28 8 48 19 42 21
48 19 48 -21 0 -27 -1 -28 -55 -28 -49 0 -55 -2 -55 -20 0 -29 -27 -91 -51
-116 -11 -12 -19 -30 -17 -39 4 -21 -5 -25 -99 -56 -78 -25 -84 -34 -62 -83
14 -30 -1 -56 -32 -56 -23 0 -25 36 -4 64 31 40 19 50 -115 100 -42 15 -48 22
-82 94 -21 43 -38 91 -38 106 0 21 -4 26 -17 22 -83 -23 -120 -13 -107 28 9
29 8 29 47 6 22 -13 44 -19 56 -15 11 3 38 39 61 80 45 84 60 96 143 120 l58
17 -7 44 c-8 53 0 77 23 72 15 -3 18 -13 15 -61z m-2835 -176 c-6 -45 2 -51
63 -51 29 0 48 -8 82 -36 54 -45 58 -53 78 -139 l17 -69 -29 -55 c-34 -64 -88
-105 -160 -121 -40 -8 -56 -7 -97 9 -77 29 -116 64 -134 122 -23 69 -21 105 7
164 24 54 65 94 116 116 34 15 34 17 20 54 -12 32 -6 45 22 45 18 0 20 -5 15
-39z"/>
<path d="M4354 3761 c-38 -16 -66 -62 -60 -96 16 -77 114 -107 164 -50 45 53
14 138 -53 150 -17 2 -40 0 -51 -4z"/>
<path d="M7837 3732 c-38 -40 -37 -85 4 -123 35 -32 66 -36 108 -14 52 26 57
91 12 136 -40 39 -87 40 -124 1z"/>
<path d="M7213 3473 c-18 -2 -33 -9 -33 -14 0 -6 -5 -7 -11 -4 -5 4 -24 1 -40
-6 l-30 -12 42 -43 c23 -24 47 -40 52 -37 6 3 7 1 3 -5 -4 -7 -2 -12 3 -12 6
0 11 -8 11 -17 0 -14 2 -15 9 -5 6 11 11 10 25 -3 14 -14 16 -14 16 -1 0 8 -9
18 -20 21 -11 3 -20 11 -20 16 0 5 10 3 23 -6 13 -8 27 -12 30 -8 4 3 7 2 7
-4 0 -5 18 -16 40 -23 22 -7 40 -20 40 -28 0 -11 3 -12 14 -3 9 7 17 8 20 2 3
-5 14 -8 24 -6 9 2 21 4 25 4 5 1 6 5 2 10 -3 6 3 8 14 6 16 -3 27 8 49 48 16
29 37 66 48 84 10 17 16 35 12 39 -8 7 -306 14 -355 7z"/>
</g>
</svg>
