<?xml version="1.0" standalone="no"?>
<!DOCTYPE svg PUBLIC "-//W3C//DTD SVG 20010904//EN"
 "http://www.w3.org/TR/2001/REC-SVG-20010904/DTD/svg10.dtd">
<svg version="1.0" xmlns="http://www.w3.org/2000/svg"
 width="300.000000pt" height="300.000000pt" viewBox="0 0 300.000000 300.000000"
 preserveAspectRatio="xMidYMid meet">
<metadata>
Created by potrace 1.10, written by Peter Selinger 2001-2011
</metadata>
<g transform="translate(0.000000,300.000000) scale(0.100000,-0.100000)"
fill="#000000" stroke="none">
<path d="M1625 2878 c-37 -13 -63 -35 -81 -69 -9 -19 -24 -28 -53 -33 -47 -7
-85 -48 -95 -100 -6 -31 -11 -36 -35 -36 -33 0 -71 -33 -71 -63 0 -12 -9 -35
-20 -52 -11 -16 -20 -37 -20 -45 0 -8 6 -4 13 10 7 13 22 30 34 36 16 8 19 14
11 22 -16 16 -1 62 25 71 24 9 55 -2 73 -27 6 -8 20 -12 35 -10 23 5 23 5 -8
17 -32 12 -43 34 -24 45 4 3 6 16 4 29 -7 37 40 87 82 87 22 0 38 -6 44 -17 9
-15 10 -13 11 12 1 77 82 133 151 105 34 -15 69 -63 69 -97 0 -12 8 -24 19
-28 29 -9 54 -42 61 -83 l8 -37 1 39 c1 32 -5 44 -33 70 -18 18 -39 49 -47 70
-14 39 -60 86 -84 86 -7 0 -19 2 -27 4 -7 3 -26 0 -43 -6z"/>
<path d="M2385 2869 c-22 -10 -50 -35 -63 -54 -17 -27 -29 -35 -51 -35 -30 0
-90 -47 -92 -72 -1 -23 -7 -50 -13 -55 -3 -3 -20 -6 -38 -7 -43 -2 -62 -14
-82 -53 -17 -35 -21 -69 -7 -77 4 -3 6 5 4 17 -3 13 6 37 19 57 30 45 66 50
110 17 36 -27 76 -38 79 -22 1 6 -16 15 -37 21 -25 7 -38 17 -35 25 2 8 7 29
11 47 12 49 47 82 87 82 21 0 36 -6 39 -15 10 -24 22 -17 17 9 -12 60 64 125
131 112 45 -9 86 -53 86 -92 0 -26 5 -33 28 -39 79 -20 95 -117 26 -162 -34
-22 -103 -22 -119 1 -11 14 -16 13 -51 -15 -32 -25 -45 -30 -76 -26 -26 3 -38
1 -42 -9 -8 -20 68 -8 112 17 40 23 66 25 59 5 -4 -11 4 -16 31 -18 29 -2 38
-8 40 -25 2 -16 -3 -23 -20 -26 -20 -4 -19 -4 6 -6 28 -1 28 0 23 37 -6 35 -4
38 33 55 26 12 42 28 49 49 19 54 13 78 -26 116 -21 19 -47 53 -58 75 -37 75
-109 101 -180 66z"/>
<path d="M781 2863 c-19 -9 -43 -32 -53 -50 -11 -18 -26 -34 -34 -34 -23 -2
-27 -4 -60 -21 -31 -17 -51 -50 -57 -97 -3 -17 -13 -28 -33 -34 -42 -14 -63
-35 -70 -73 -3 -19 -10 -37 -15 -40 -5 -3 -8 -20 -8 -37 2 -30 2 -30 6 -5 2
15 13 34 24 42 14 10 18 20 14 38 -8 32 25 63 57 55 29 -8 51 22 42 57 -4 18
2 32 23 55 37 40 75 49 100 22 18 -20 18 -20 18 21 0 55 47 98 105 98 56 0
104 -43 104 -94 0 -22 5 -36 13 -36 42 0 73 -34 86 -95 3 -13 5 -10 6 10 1 32
-20 71 -50 93 -10 7 -30 34 -44 61 -41 74 -105 98 -174 64z"/>
<path d="M590 2575 c13 -16 50 -21 50 -6 0 10 -24 21 -47 21 -13 0 -13 -3 -3
-15z"/>
<path d="M1640 2554 c-46 -33 -49 -38 -22 -31 22 5 23 5 7 -12 -8 -10 -18 -36
-20 -57 -2 -22 -2 -30 1 -19 10 40 29 67 56 81 32 17 45 12 59 -20 8 -18 9
-16 5 10 -4 28 -2 32 32 41 l37 11 -40 -5 c-30 -4 -45 -1 -54 11 -17 20 -18
20 -61 -10z"/>
<path d="M840 2549 c-10 -18 -9 -19 7 -11 10 5 25 7 33 4 13 -5 13 -3 1 11
-18 22 -28 21 -41 -4z"/>
<path d="M2043 2350 c-2 -74 -5 -165 -9 -202 l-6 -68 41 0 41 0 0 92 0 91 23
-20 c12 -11 33 -26 47 -32 27 -13 29 -14 -33 31 -14 11 -18 32 -20 128 l-2
115 -40 0 -40 0 -2 -135z m45 -82 c-2 -123 -6 -162 -16 -166 -11 -3 -13 27
-10 162 2 126 6 166 16 166 10 0 12 -36 10 -162z"/>
<path d="M2231 2340 c-2 -144 -1 -148 22 -163 l23 -15 -6 49 c-7 52 -8 51 35
33 7 -3 11 37 10 119 l0 124 -41 0 -41 0 -2 -147z m49 10 c0 -47 -4 -80 -10
-80 -12 0 -12 -2 -14 88 -1 52 2 72 11 72 10 0 13 -22 13 -80z"/>
<path d="M2444 2483 c-30 -4 -31 -5 -30 -56 1 -29 -3 -95 -7 -147 l-8 -95 30
-18 30 -18 -6 53 c-3 29 -9 57 -14 63 -5 5 -9 44 -9 87 0 63 3 78 15 78 12 0
15 -17 15 -90 0 -76 3 -91 18 -99 17 -9 18 -2 16 117 -1 70 -6 127 -11 128 -4
0 -22 -1 -39 -3z"/>
<path d="M1660 2445 c-13 -14 -21 -25 -17 -25 3 0 23 11 43 25 28 19 32 25 17
25 -11 0 -30 -11 -43 -25z"/>
<path d="M1266 2423 c-2 -2 -1 -26 2 -53 l5 -50 -34 0 -34 0 -3 -60 -2 -60
261 2 261 3 1 58 2 57 -32 0 c-31 0 -33 2 -33 36 0 35 -1 35 -37 32 -35 -3
-38 -6 -41 -35 l-3 -33 -113 0 -114 0 -5 33 c-2 17 0 38 6 45 5 7 7 16 3 19
-7 7 -84 12 -90 6z m54 -71 c0 -43 28 -54 144 -53 73 0 110 4 133 16 31 15 34
15 63 -6 21 -16 30 -31 30 -51 l0 -28 -225 0 c-130 0 -225 4 -225 9 0 5 -3 16
-6 24 -3 10 7 24 28 39 24 17 33 30 32 51 -1 16 4 27 12 27 9 0 14 -11 14 -28z"/>
<path d="M467 2370 l6 -50 -42 0 -41 0 -1 -60 c-1 -33 -2 -65 -3 -71 -1 -8 72
-11 247 -10 l247 2 0 -36 c0 -26 4 -35 16 -35 18 0 143 -43 175 -60 14 -8 19
-7 19 3 0 7 -4 17 -9 22 -5 6 -11 21 -13 34 -3 21 -15 27 -93 50 l-90 26 0 68
0 67 -172 0 -173 0 0 34 c0 19 5 38 10 41 20 13 -2 25 -45 25 l-44 0 6 -50z
m46 -18 c-9 -37 33 -50 180 -54 80 -3 142 -9 150 -16 8 -7 12 -25 9 -47 l-4
-35 -220 0 -219 0 4 40 c2 22 6 41 8 43 2 1 21 11 42 21 30 16 37 25 37 48 0
16 4 27 9 24 5 -3 7 -14 4 -24z"/>
<path d="M238 2244 c-15 -8 -33 -24 -39 -36 -10 -18 -5 -17 27 9 28 22 49 31
71 29 18 -1 30 2 27 6 -8 13 -57 9 -86 -8z"/>
<path d="M2588 2212 c-22 -4 -23 -25 -3 -42 19 -16 27 -9 23 22 -2 16 -8 22
-20 20z"/>
<path d="M181 2138 c-1 -40 4 -53 30 -83 17 -19 37 -35 45 -35 22 0 17 16 -11
34 -29 19 -46 49 -56 96 -6 34 -7 33 -8 -12z"/>
<path d="M289 2173 c-1 -5 0 -23 1 -40 2 -37 -5 -41 -32 -16 -12 11 -18 12
-18 3 0 -6 11 -21 25 -32 24 -19 25 -24 23 -116 -2 -58 1 -99 7 -102 6 -3 11
34 13 98 3 98 4 105 30 127 19 17 22 24 12 25 -9 0 -21 -5 -28 -12 -9 -9 -12
-3 -12 30 0 23 -4 42 -10 42 -5 0 -10 -3 -11 -7z"/>
<path d="M1721 2063 c0 -62 3 -113 8 -113 12 0 21 37 21 93 0 40 3 49 23 56
21 8 20 9 -10 15 -24 6 -33 13 -36 34 -2 15 -5 -24 -6 -85z"/>
<path d="M378 2135 c-3 -11 -9 -33 -13 -50 -4 -16 -14 -39 -23 -49 -16 -18
-16 -18 5 -7 30 15 29 16 25 -30 -3 -22 1 -46 7 -52 6 -6 11 -25 11 -43 l0
-31 128 -7 c71 -4 136 -4 145 0 15 5 17 -4 17 -82 0 -103 15 -137 76 -175 35
-22 52 -24 182 -28 128 -3 142 -2 142 14 0 9 3 15 8 13 4 -2 21 -10 37 -17 17
-7 50 -22 74 -34 l44 -20 -58 -30 -59 -29 -166 4 c-164 3 -167 4 -233 36 -110
55 -157 133 -157 264 0 37 -4 68 -9 68 -14 0 -22 -44 -16 -92 17 -145 59 -208
174 -261 59 -28 78 -31 186 -35 66 -2 122 -7 125 -11 3 -3 19 -15 35 -25 l30
-19 -23 25 -23 25 38 -1 c43 -1 148 45 157 70 3 9 -4 25 -19 40 -13 13 -19 24
-12 24 7 0 4 5 -6 11 -10 6 -23 8 -30 6 -7 -2 -27 2 -45 9 -24 10 -39 11 -52
4 -10 -6 -72 -10 -137 -10 -181 1 -232 32 -239 148 -2 31 -5 67 -8 78 -5 26
23 34 120 34 l64 0 0 35 0 35 -85 0 c-50 0 -85 -4 -85 -10 0 -6 -32 -10 -76
-10 -47 0 -73 4 -69 10 4 6 -26 10 -84 10 l-90 0 -3 108 c-2 59 -6 98 -10 87z
m342 -245 c0 -6 -35 -10 -85 -10 -50 0 -85 4 -85 10 0 6 35 10 85 10 50 0 85
-4 85 -10z"/>
<path d="M2170 2115 c0 -22 4 -25 40 -25 36 0 40 3 40 25 0 23 -4 25 -40 25
-36 0 -40 -2 -40 -25z"/>
<path d="M2320 2115 c0 -22 4 -25 40 -25 36 0 40 3 40 25 0 23 -4 25 -40 25
-36 0 -40 -2 -40 -25z"/>
<path d="M2480 2115 c0 -22 4 -25 40 -25 36 0 40 3 40 25 0 23 -4 25 -40 25
-36 0 -40 -2 -40 -25z"/>
<path d="M1260 2068 l0 -63 50 0 c38 0 49 3 45 13 -3 8 -5 36 -5 63 l0 49 -45
0 -45 0 0 -62z m68 25 c-23 -6 -24 -43 -1 -43 13 0 14 -3 5 -12 -8 -8 -17 -8
-34 0 -13 6 -17 11 -10 11 19 1 14 39 -5 44 -10 3 0 5 22 5 22 0 32 -2 23 -5z"/>
<path d="M1575 2067 l0 -62 33 3 c18 3 38 -1 46 -7 18 -15 27 -2 14 22 -6 11
-8 39 -4 63 l6 44 -48 0 -47 0 0 -63z"/>
<path d="M440 2058 l0 -63 48 0 48 0 -2 60 -3 60 -45 3 -46 3 0 -63z"/>
<path d="M747 2114 c-4 -4 -7 -32 -7 -63 l0 -56 48 0 48 0 -1 60 -1 60 -40 3
c-22 2 -43 0 -47 -4z"/>
<path d="M1148 2109 l32 -10 0 -75 c0 -56 3 -75 13 -72 8 3 13 32 15 86 l3 82
-48 -1 c-47 -1 -47 -1 -15 -10z"/>
<path d="M1414 2081 c-2 -2 -4 -35 -4 -73 l0 -68 50 0 50 0 2 60 c0 33 1 66 2
73 1 8 -15 12 -47 12 -26 0 -50 -1 -53 -4z"/>
<path d="M590 2010 l0 -70 49 0 49 0 0 70 0 70 -49 0 -49 0 0 -70z"/>
<path d="M927 2013 c-3 -15 -6 -54 -6 -85 0 -44 3 -58 14 -58 10 0 15 16 18
58 l3 57 2 -62 c2 -55 4 -63 21 -63 17 0 21 8 24 53 l3 52 2 -53 c2 -48 4 -53
23 -50 18 3 21 10 22 61 2 48 -1 57 -15 57 -11 0 -18 8 -18 19 0 12 -10 21
-27 25 -16 4 -35 9 -45 12 -12 3 -18 -3 -21 -23z m75 -41 c-7 -2 -12 -23 -12
-53 0 -31 -4 -48 -10 -44 -5 3 -10 30 -10 60 0 50 1 53 22 47 12 -3 17 -7 10
-10z"/>
<path d="M2267 2033 c-2 -5 -5 -29 -6 -55 l-1 -48 50 0 50 0 0 55 0 55 -44 0
c-25 0 -47 -3 -49 -7z m63 -53 c0 -11 -7 -20 -15 -20 -8 0 -15 9 -15 20 0 11
7 20 15 20 8 0 15 -9 15 -20z"/>
<path d="M1071 2013 c0 -10 4 -27 9 -38 7 -16 9 -13 9 18 1 20 -3 37 -9 37 -5
0 -10 -8 -9 -17z"/>
<path d="M2620 2010 c6 -11 18 -24 25 -26 8 -3 17 -16 21 -27 3 -12 13 -29 20
-38 8 -8 20 -33 28 -55 9 -23 15 -31 15 -19 1 43 -65 155 -106 178 -12 8 -13
5 -3 -13z"/>
<path d="M216 1929 c-22 -45 -26 -65 -24 -128 l1 -76 6 75 c3 41 10 82 16 90
13 19 35 83 31 88 -2 2 -15 -21 -30 -49z"/>
<path d="M1204 1924 c3 -9 6 -27 6 -40 0 -21 4 -24 20 -19 33 10 169 -5 165
-19 -11 -32 -13 -82 -4 -93 8 -9 4 -14 -18 -18 -56 -13 -165 -46 -161 -50 2
-2 28 3 58 11 30 9 70 18 88 21 29 5 32 3 32 -20 0 -28 19 -77 30 -77 3 0 15
-6 25 -14 19 -14 19 -15 0 -37 l-20 -22 23 12 c12 7 39 23 59 37 44 29 57 30
91 3 24 -18 27 -19 30 -5 2 9 16 19 32 22 21 5 26 11 23 25 -3 10 -11 23 -19
29 -17 15 -54 3 -54 -16 0 -10 -12 -14 -40 -14 -22 0 -40 5 -40 10 0 6 5 10
11 10 7 0 9 9 5 24 -4 18 -1 25 14 29 26 7 136 -17 175 -37 17 -9 34 -16 38
-16 18 0 58 -38 47 -45 -6 -4 -17 -1 -25 5 -12 10 -15 9 -15 -4 0 -9 -7 -16
-16 -16 -12 0 -15 6 -11 21 4 16 3 18 -8 9 -8 -7 -19 -9 -24 -5 -7 4 -8 -1 -4
-11 5 -14 2 -16 -18 -11 -13 3 -30 2 -38 -2 -22 -14 21 -23 52 -12 33 13 43
-1 17 -24 -11 -10 -20 -25 -20 -34 0 -22 64 -61 109 -68 20 -3 42 -10 49 -16
9 -8 16 -8 20 0 4 5 62 13 130 17 149 8 215 30 284 94 63 58 91 132 86 220 -3
39 0 62 7 62 5 0 3 5 -5 10 -10 7 28 10 118 10 101 0 132 3 132 13 0 10 -68
13 -327 12 -209 0 -330 -4 -333 -10 -3 -6 43 -11 128 -13 l132 -3 -6 -67 c-8
-85 -25 -121 -72 -152 -33 -22 -49 -25 -157 -28 l-120 -4 -52 35 c-67 45 -146
74 -225 84 -61 8 -63 9 -64 38 -1 17 -4 45 -7 63 -5 36 -13 33 113 36 70 1 70
1 70 46 l0 30 -89 0 c-50 0 -93 -4 -96 -10 -3 -5 -37 -10 -76 -10 -39 0 -69 4
-69 10 0 6 -39 10 -96 10 -84 0 -95 -2 -90 -16z m336 -34 c0 -6 -33 -10 -79
-10 -44 0 -83 5 -86 10 -4 6 25 10 79 10 51 0 86 -4 86 -10z m-22 -124 c3
-109 -6 -136 -45 -136 -52 0 -63 23 -63 134 l0 101 53 -1 52 -2 3 -96z m845 7
c-3 -49 -11 -102 -18 -119 -22 -54 -77 -106 -145 -138 -60 -27 -76 -30 -197
-34 -95 -3 -131 -8 -126 -16 3 -6 0 -6 -8 2 -7 6 -22 12 -32 12 -21 0 -117 41
-117 50 0 3 24 20 53 38 53 32 97 42 97 21 0 -8 35 -10 123 -7 136 5 183 21
231 78 23 28 35 88 27 134 -1 5 1 22 4 37 6 28 9 29 60 29 l54 0 -6 -87z
m-699 -118 c3 -9 -1 -18 -10 -22 -19 -7 -39 11 -30 26 10 16 33 13 40 -4z"/>
<path d="M2313 1903 c48 -2 125 -2 170 0 45 1 6 3 -88 3 -93 0 -130 -2 -82 -3z"/>
<path d="M876 1855 c-16 -12 -17 -15 -4 -15 9 0 19 -7 22 -16 6 -15 8 -15 25
2 14 15 15 21 5 31 -16 16 -24 16 -48 -2z"/>
<path d="M831 1826 c-8 -10 -9 -32 -2 -77 l9 -64 -1 65 c-1 36 2 71 6 78 11
16 2 15 -12 -2z"/>
<path d="M1882 1828 c5 -15 58 -24 58 -10 0 5 -10 12 -22 16 -34 9 -40 7 -36
-6z"/>
<path d="M332 1808 c-19 -19 -14 -45 10 -62 29 -21 61 -20 87 2 20 16 21 19 6
37 -13 17 -14 17 -9 2 8 -22 -25 -50 -42 -36 -6 5 -14 6 -17 3 -11 -11 -39 26
-33 42 5 13 10 13 35 -5 26 -19 41 -19 41 1 0 4 -9 8 -19 8 -11 0 -23 5 -26
10 -8 13 -18 13 -33 -2z"/>
<path d="M2722 1754 c-2 -58 -7 -78 -31 -116 -61 -96 -199 -178 -376 -224 -98
-25 -105 -25 -352 -19 -272 6 -298 2 -324 -46 -16 -30 -5 -34 15 -5 21 33 82
49 154 40 112 -13 100 -37 -23 -48 -84 -7 -144 -20 -130 -27 6 -3 60 -3 122 0
108 6 112 7 153 40 l43 34 -5 -37 -4 -36 127 0 c75 0 157 6 198 15 150 31 313
112 375 186 54 64 67 108 63 216 -2 82 -3 86 -5 27z m-106 -247 c-31 -31 -116
-87 -133 -87 -7 0 -13 -4 -13 -9 0 -5 -10 -11 -22 -14 -13 -3 -61 -18 -108
-32 -84 -26 -101 -27 -280 -21 -19 0 -41 5 -48 9 -29 19 6 27 122 26 105 -1
136 2 217 26 97 28 156 53 224 98 50 32 72 34 41 4z"/>
<path d="M978 1804 c-5 -4 -8 -26 -7 -48 l1 -41 9 33 c11 37 9 68 -3 56z"/>
<path d="M1741 1792 c-5 -10 -6 -24 -2 -31 12 -19 55 -9 59 13 4 18 3 19 -13
3 -9 -10 -21 -15 -26 -12 -13 9 -11 32 4 38 9 4 9 6 0 6 -7 1 -17 -7 -22 -17z"/>
<path d="M1066 1782 c-8 -13 10 -52 24 -52 18 0 19 19 2 41 -13 15 -21 19 -26
11z"/>
<path d="M1857 1773 c-13 -12 -7 -23 13 -23 11 0 20 7 20 15 0 15 -21 21 -33
8z"/>
<path d="M1954 1762 c-6 -4 -16 -17 -23 -30 -18 -35 2 -54 53 -50 23 2 40 8
38 13 -2 6 -17 9 -35 7 -47 -4 -60 4 -47 28 13 25 45 26 59 3 9 -15 10 -15 11
-2 0 29 -32 48 -56 31z"/>
<path d="M2070 1759 c0 -6 -9 -9 -20 -6 -26 7 -26 -5 1 -21 14 -9 19 -20 16
-34 -5 -18 -2 -19 34 -15 46 5 59 14 39 27 -9 5 -19 5 -28 -2 -9 -8 -16 -8
-25 1 -9 10 -8 16 8 27 17 13 18 16 5 24 -20 13 -30 12 -30 -1z"/>
<path d="M764 1749 c-9 -15 12 -33 30 -26 9 4 16 13 16 22 0 17 -35 21 -46 4z"/>
<path d="M2477 1743 c-13 -13 -7 -42 12 -52 10 -6 21 -7 25 -4 3 3 6 1 6 -6 0
-8 11 -11 27 -9 23 3 28 8 29 36 2 38 -13 42 -26 6 -7 -17 -14 -23 -22 -17 -7
4 -21 6 -32 4 -15 -2 -18 2 -12 23 6 26 5 31 -7 19z"/>
<path d="M191 1675 c-2 -102 85 -206 233 -280 129 -64 186 -77 362 -82 l151
-5 -5 31 c-5 38 3 38 48 1 32 -28 40 -30 112 -30 48 0 78 4 78 10 0 24 -32 70
-48 70 -9 0 -123 1 -252 3 -228 3 -238 4 -320 31 -182 61 -318 167 -350 274
-7 22 -8 18 -9 -23z m196 -200 c32 -19 103 -50 158 -67 93 -30 110 -32 228
-30 102 1 127 -2 127 -13 0 -7 -8 -16 -17 -18 -34 -9 -245 -8 -256 1 -7 5 -30
13 -51 16 -77 14 -256 111 -256 139 0 11 6 9 67 -28z m746 -108 c3 -8 2 -20
-3 -27 -14 -22 -130 5 -130 30 0 16 127 12 133 -3z"/>
<path d="M374 1695 c-9 -21 -1 -27 29 -23 l25 3 -24 18 c-22 16 -25 16 -30 2z"/>
<path d="M970 1680 c0 -8 -25 -11 -72 -9 -40 1 -73 -2 -73 -7 0 -11 155 -18
166 -7 4 4 1 14 -7 21 -9 8 -14 9 -14 2z"/>
<path d="M1267 1653 c-12 -11 -8 -40 7 -52 28 -23 68 17 45 45 -12 15 -41 19
-52 7z m41 -26 c2 -10 -3 -17 -12 -17 -18 0 -29 16 -21 31 9 14 29 6 33 -14z"/>
<path d="M1605 1557 c-11 -7 -39 -27 -63 -44 l-44 -33 -31 33 c-20 22 -32 28
-35 19 -2 -8 8 -26 23 -42 23 -24 31 -27 54 -19 14 5 40 22 56 37 17 16 38 31
48 35 9 3 17 11 17 17 0 12 0 12 -25 -3z"/>
<path d="M1293 1526 c5 -17 54 -19 60 -4 3 10 -5 14 -29 14 -20 0 -33 -5 -31
-10z"/>
<path d="M1599 1494 l-24 -26 38 18 c37 18 49 34 24 34 -8 0 -24 -12 -38 -26z"/>
<path d="M1240 1458 c0 -10 -4 -19 -10 -19 -5 -1 -16 -2 -22 -3 -16 -2 -11
-36 7 -55 12 -12 19 -12 40 -3 21 10 24 17 19 37 -4 15 -2 25 5 25 6 0 11 7
11 16 0 14 -3 14 -16 3 -13 -10 -17 -10 -25 2 -7 11 -9 11 -9 -3z m20 -54 c0
-8 -9 -14 -20 -14 -22 0 -28 26 -7 33 16 6 27 -1 27 -19z"/>
<path d="M1400 1451 c0 -9 -9 -12 -27 -9 -16 3 -39 2 -53 -2 -14 -5 -19 -8
-12 -9 20 -2 14 -16 -25 -68 -30 -39 -37 -57 -37 -96 -1 -44 3 -52 37 -83 32
-30 44 -35 85 -34 26 0 59 0 74 0 38 -1 66 16 88 53 25 40 24 73 -1 112 -10
17 -23 41 -29 54 -6 14 -20 31 -30 38 -11 8 -20 21 -20 30 0 9 -6 13 -14 10
-7 -3 -19 0 -25 6 -8 8 -11 8 -11 -2z m50 -61 c6 -11 15 -18 21 -15 12 8 11 1
-3 -30 -8 -18 -19 -25 -41 -25 -23 0 -28 3 -23 16 4 9 4 26 0 37 -6 18 -9 16
-28 -21 l-21 -41 -22 24 c-21 25 -21 25 -1 50 26 33 101 36 118 5z m-116 -82
c18 -26 21 -52 5 -42 -11 6 -29 -12 -29 -30 0 -5 16 -6 35 -3 33 5 35 4 35
-24 0 -26 -3 -29 -35 -29 -30 0 -37 5 -61 45 -22 39 -24 48 -13 62 11 13 11
17 2 20 -24 8 -13 23 16 23 20 0 35 -8 45 -22z m179 -14 c17 -35 17 -38 0 -73
-12 -24 -26 -37 -43 -40 -14 -1 -28 -7 -31 -12 -3 -5 -13 -1 -23 10 -17 18
-17 21 0 46 12 18 20 23 27 16 14 -14 44 -14 53 1 4 7 3 8 -4 4 -6 -4 -17 6
-26 22 -13 26 -13 31 2 45 22 23 24 22 45 -19z m-99 -3 c14 -15 14 -20 3 -30
-19 -15 -47 -4 -47 18 0 35 19 40 44 12z"/>
<path d="M1564 1449 c-3 -6 -14 -9 -24 -6 -13 3 -16 0 -13 -14 4 -13 0 -19
-12 -19 -12 0 -16 6 -12 20 3 11 1 18 -4 14 -24 -14 5 -59 32 -49 13 5 53 65
44 65 -2 0 -7 -5 -11 -11z"/>
<path d="M91 1404 c-12 -15 -21 -30 -21 -35 0 -4 -9 -11 -20 -14 -53 -17 -65
-67 -27 -110 22 -26 25 -27 132 -26 86 1 113 5 127 18 10 9 18 20 18 25 0 4
-9 -1 -19 -11 -17 -17 -35 -20 -130 -20 -108 0 -111 0 -128 25 -23 36 -8 78
30 82 18 2 27 9 27 21 0 27 43 61 76 61 31 0 74 -34 74 -58 0 -7 7 -12 15 -12
8 0 24 -9 35 -20 11 -11 20 -17 20 -14 0 4 -26 31 -57 60 -48 45 -64 54 -95
54 -28 0 -42 -6 -57 -26z"/>
<path d="M2762 1420 c-12 -5 -25 -16 -28 -24 -3 -8 -23 -26 -45 -40 -46 -31
-52 -67 -18 -110 20 -25 24 -26 123 -26 94 0 104 2 122 23 19 22 19 22 -1 5
-16 -13 -42 -17 -122 -17 -94 -1 -103 1 -118 21 -8 13 -15 32 -15 44 0 24 29
54 53 54 9 0 22 12 29 27 28 58 112 53 124 -7 4 -20 13 -30 24 -30 22 0 37
-17 43 -50 4 -25 4 -25 6 2 1 18 -10 39 -33 64 -18 20 -41 45 -50 55 -17 20
-56 24 -94 9z"/>
<path d="M2800 1330 c-14 -10 -21 -22 -17 -26 4 -4 7 -2 7 4 0 7 5 12 11 12 5
0 7 -6 3 -12 -4 -7 5 -2 19 11 15 14 27 26 27 28 0 9 -28 0 -50 -17z"/>
<path d="M731 1278 c-3 -43 7 -48 100 -48 73 0 89 -3 89 -15 0 -28 28 -27 73
3 60 42 83 73 27 37 -25 -16 -52 -35 -61 -42 -24 -20 -32 -16 -26 13 l5 26
-96 -3 c-95 -4 -96 -4 -103 21 -4 14 -7 18 -8 8z"/>
<path d="M1156 1251 c-9 -58 11 -136 47 -183 29 -37 111 -101 198 -152 50 -29
23 2 -35 40 -94 62 -101 68 -133 98 -48 44 -73 140 -50 191 12 24 35 29 29 6
-1 -7 3 -9 9 -6 14 9 -6 30 -37 39 -19 6 -22 1 -28 -33z"/>
<path d="M2141 1273 c-1 -22 -5 -23 -92 -23 -64 0 -90 -3 -87 -12 5 -13 168
-12 181 1 5 5 7 19 4 32 -4 24 -4 24 -6 2z"/>
<path d="M1615 1258 c15 -49 43 -85 95 -120 30 -20 66 -40 79 -43 69 -18 169
-78 219 -132 28 -32 52 -63 52 -70 0 -6 4 -15 10 -18 17 -10 -9 47 -38 85 -49
64 -82 85 -256 166 -69 32 -146 101 -146 132 0 12 -5 22 -11 22 -6 0 -8 -9 -4
-22z"/>
<path d="M1839 1266 c23 -28 98 -76 118 -76 16 0 15 3 -4 18 -43 33 -129 77
-114 58z"/>
<path d="M2200 1206 c0 -8 -3 -23 -6 -33 -5 -13 -2 -12 10 5 25 33 34 27 38
-28 2 -41 0 -51 -17 -59 -18 -9 -18 -10 -2 -10 10 -1 17 -6 15 -13 -5 -13 52
-48 78 -48 11 0 14 -6 10 -22 -3 -13 -3 -17 0 -10 8 17 39 15 54 -3 11 -13 8
-15 -19 -15 -17 0 -31 -4 -31 -10 0 -5 7 -10 15 -10 8 0 15 -4 15 -10 0 -14
-37 -12 -43 3 -4 9 -8 9 -14 1 -4 -7 -23 -10 -40 -8 -24 3 -33 0 -33 -11 0
-12 17 -15 87 -15 82 0 85 1 70 18 -15 17 -15 19 0 35 13 13 14 19 4 31 -7 8
-21 18 -32 21 -25 8 -24 25 1 32 11 3 18 8 16 12 -3 4 -1 13 4 21 7 12 11 12
25 0 16 -13 16 -15 -2 -28 -16 -12 -16 -13 8 -7 17 4 30 1 38 -9 18 -22 47
-20 71 4 11 11 20 17 20 13 1 -5 7 3 15 17 7 14 10 27 5 30 -7 5 -14 54 -11
89 2 24 31 -9 31 -35 0 -12 5 -26 11 -29 6 -4 8 -13 5 -21 -8 -20 5 -49 14
-34 4 7 0 42 -9 78 -16 64 -19 67 -50 70 l-32 3 7 -75 c7 -83 -1 -106 -40
-106 -35 0 -46 20 -46 86 0 84 -5 94 -46 94 -26 0 -34 -4 -34 -17 0 -10 -3
-35 -7 -57 -5 -31 -3 -38 8 -34 8 2 16 22 19 43 7 55 24 53 36 -5 l11 -50 -37
0 c-30 0 -37 -4 -47 -30 -8 -22 -18 -30 -36 -30 -41 0 -51 22 -44 105 l7 75
-35 0 c-24 0 -35 -5 -35 -14z"/>
<path d="M1567 1193 c-14 -14 -7 -53 9 -53 21 0 44 30 37 47 -5 14 -35 18 -46
6z"/>
<path d="M535 1141 c-69 -19 -190 -70 -182 -78 3 -2 22 3 43 11 22 7 65 23 96
35 60 22 174 42 205 36 10 -2 32 -4 48 -5 l30 -1 -22 -18 c-12 -10 -19 -21
-16 -25 4 -3 1 -6 -5 -6 -5 0 -12 5 -14 12 -3 8 -12 4 -25 -9 -21 -21 -21 -51
1 -103 4 -10 -3 -24 -19 -38 -27 -24 -37 -54 -10 -32 9 7 17 11 19 9 8 -10 13
-128 5 -123 -5 3 -9 -7 -9 -21 0 -21 4 -25 18 -21 12 4 20 -1 27 -17 13 -29
64 -36 83 -10 12 17 14 17 23 1 15 -28 65 -23 85 7 16 24 20 25 120 25 102 0
105 -1 114 -25 13 -35 63 -38 92 -4 9 10 28 19 42 19 21 0 26 5 26 25 0 22 -4
25 -39 25 -22 0 -43 5 -46 10 -3 6 -17 10 -30 10 -13 0 -27 -4 -30 -10 -17
-27 -25 -2 -25 80 0 72 3 92 15 95 46 15 49 19 13 23 -40 3 -46 10 -27 29 9 9
8 18 -5 38 -10 15 -20 24 -23 21 -3 -3 0 -13 7 -21 10 -12 10 -19 2 -27 -16
-16 -16 -190 0 -206 9 -9 0 -12 -43 -13 -29 -1 -125 -3 -212 -5 l-158 -4 2
105 c1 73 -2 110 -11 120 -11 13 -11 18 0 28 10 9 13 9 17 0 4 -10 52 -13 195
-13 l191 0 -26 20 c-28 22 -53 26 -59 8 -6 -17 -28 0 -28 23 0 10 -7 19 -15
19 -8 0 -15 5 -15 10 0 6 -65 10 -177 9 -139 0 -193 -4 -248 -18z m427 -13
c17 -27 9 -37 -18 -23 -28 14 -54 10 -54 -9 0 -6 -4 -5 -9 3 -5 8 -7 20 -4 28
6 16 -9 17 -25 1 -7 -7 -12 -8 -12 -2 0 6 3 14 8 18 11 12 104 -2 114 -16z
m-127 -14 c14 -9 25 -20 25 -25 0 -12 -43 -7 -52 6 -5 6 -12 5 -20 -3 -6 -6
-19 -12 -27 -12 -10 0 -8 7 9 25 28 29 33 30 65 9z m-37 -342 c4 -28 -24 -40
-45 -19 -21 21 -9 49 19 45 15 -2 24 -11 26 -26z m100 0 c4 -28 -24 -41 -44
-20 -20 20 -7 50 20 46 13 -2 22 -12 24 -26z m322 13 c10 -12 10 -18 0 -30
-25 -30 -61 -7 -46 30 3 8 12 15 19 15 8 0 20 -7 27 -15z"/>
<path d="M1811 1156 c8 -8 349 -12 361 -4 7 4 -72 8 -176 8 -104 0 -187 -2
-185 -4z"/>
<path d="M1266 1121 c-3 -4 1 -17 9 -27 13 -18 15 -18 31 -2 15 14 16 20 5 30
-10 11 -11 9 -5 -6 5 -14 3 -17 -12 -14 -10 2 -18 10 -16 16 2 14 -4 16 -12 3z"/>
<path d="M2045 1111 c-3 -5 5 -11 17 -13 13 -2 24 -11 26 -20 5 -28 -42 -23
-56 5 l-12 22 3 -25 c3 -34 50 -51 74 -28 15 16 15 19 -1 42 -17 26 -40 34
-51 17z"/>
<path d="M1375 1102 c-5 -4 -10 -14 -10 -22 0 -10 -9 -15 -27 -15 -14 1 -24
-3 -22 -7 3 -4 12 -8 20 -8 8 0 34 -9 56 -20 44 -21 83 -27 73 -10 -3 6 -15
10 -26 10 -20 0 -22 4 -10 35 13 32 -26 58 -54 37z m45 -38 c0 -16 -26 -19
-35 -4 -4 6 -4 18 -1 27 5 12 9 13 21 3 8 -7 15 -19 15 -26z"/>
<path d="M1576 1060 c-31 -38 -33 -64 -6 -83 11 -8 25 -28 31 -45 8 -25 17
-32 37 -32 14 0 35 -9 47 -20 20 -19 21 -19 53 11 17 16 32 38 32 47 0 10 -21
38 -47 63 -27 26 -53 55 -59 65 -19 32 -58 29 -88 -6z m70 9 c3 -6 1 -16 -5
-22 -8 -8 -3 -14 19 -24 18 -7 36 -25 44 -44 9 -20 15 -27 18 -18 5 11 9 11
24 -3 10 -10 13 -18 6 -18 -6 0 -19 -14 -27 -31 -15 -28 -18 -30 -33 -15 -9 8
-34 30 -54 47 -21 17 -38 37 -38 44 0 7 -9 15 -20 18 -26 7 -26 27 0 34 10 3
22 14 25 24 7 21 30 25 41 8z"/>
<path d="M1480 1063 c0 -8 13 -13 30 -13 17 0 30 5 30 13 0 7 -13 12 -30 12
-17 0 -30 -5 -30 -12z"/>
<path d="M282 1013 c-76 -71 -92 -115 -92 -248 0 -87 4 -119 19 -152 51 -110
193 -210 386 -271 39 -13 103 -16 300 -17 l250 -1 -3 -25 c-4 -34 20 -54 47
-39 25 13 27 28 4 26 -12 -1 -23 16 -37 57 l-21 57 -240 3 c-265 4 -300 10
-432 72 -119 56 -203 128 -247 213 -14 28 -16 48 -10 115 7 82 20 121 50 151
14 15 17 15 32 -3 15 -18 18 -19 31 -4 12 13 11 14 -8 8 -26 -8 -29 15 -5 39
8 9 13 16 9 16 -3 0 2 11 11 25 24 37 12 31 -44 -22z m98 -518 c19 -14 38 -25
42 -25 5 0 27 -9 51 -20 117 -55 168 -63 417 -66 175 -2 235 -6 235 -15 0 -17
-16 -18 -220 -20 -230 -2 -322 14 -449 77 -52 26 -139 94 -120 94 5 0 25 -11
44 -25z"/>
<path d="M825 1042 c-6 -4 -8 -40 -4 -92 3 -47 6 -78 7 -70 2 13 3 13 12 0 7
-10 10 14 10 78 0 89 -3 100 -25 84z"/>
<path d="M900 1041 c-12 -5 -14 -21 -9 -91 3 -47 6 -76 7 -65 2 15 4 17 11 7
9 -14 21 52 21 114 0 36 -7 45 -30 35z"/>
<path d="M1050 1042 c-12 -6 -14 -23 -10 -97 l5 -90 14 46 c7 26 11 55 8 65
-3 11 -8 29 -12 42 -5 16 -2 22 9 22 9 0 16 5 16 10 0 11 -8 12 -30 2z"/>
<path d="M2190 980 c0 -40 4 -70 10 -70 6 0 10 30 10 70 0 40 -4 70 -10 70 -6
0 -10 -30 -10 -70z"/>
<path d="M2584 980 c1 -49 5 -70 14 -70 8 0 12 21 12 70 0 53 -3 70 -14 70
-11 0 -13 -16 -12 -70z"/>
<path d="M340 1015 c0 -14 4 -25 9 -25 5 0 11 11 13 25 4 17 1 25 -8 25 -8 0
-14 -11 -14 -25z"/>
<path d="M744 1024 c3 -9 6 -42 6 -74 0 -42 4 -59 15 -64 13 -4 15 8 15 74 0
75 -1 80 -21 80 -15 0 -19 -4 -15 -16z"/>
<path d="M962 977 c-3 -76 4 -107 23 -107 12 0 15 15 15 70 0 40 -4 70 -10 70
-17 0 -11 18 8 23 11 3 9 5 -8 6 -24 1 -25 -2 -28 -62z"/>
<path d="M1716 1031 c17 -17 89 -17 79 -1 -3 6 -25 10 -48 10 -25 0 -37 -4
-31 -9z"/>
<path d="M2656 975 c55 -99 58 -107 58 -195 1 -83 0 -87 -35 -135 -67 -94
-201 -173 -365 -216 -82 -22 -110 -24 -336 -24 -137 0 -248 -3 -248 -7 0 -10
33 -11 299 -9 143 1 232 6 245 13 12 6 22 10 24 9 6 -6 90 13 132 31 79 34
155 72 168 85 17 17 23 16 16 0 -2 -7 -19 -21 -37 -31 -18 -11 -41 -26 -52
-36 -35 -29 -204 -91 -285 -104 -37 -6 -324 -8 -452 -3 -57 3 -78 0 -78 -9 0
-16 269 -29 430 -21 236 11 464 113 548 244 39 60 51 136 41 249 -7 87 -20
120 -69 174 l-32 35 28 -50z"/>
<path d="M1457 993 c-16 -15 -5 -42 28 -67 38 -29 55 -27 55 7 0 47 -56 87
-83 60z m50 -25 c22 -21 31 -48 16 -48 -18 1 -65 49 -59 59 10 16 17 14 43
-11z"/>
<path d="M1835 973 c-14 -15 -25 -33 -25 -39 0 -6 24 -34 54 -63 45 -42 61
-51 90 -51 29 0 36 4 36 20 0 18 -3 19 -20 8 -28 -18 -37 -2 -16 32 22 38 9
39 -20 3 l-22 -28 -45 42 c-38 35 -43 44 -31 54 12 10 19 7 39 -11 13 -12 21
-28 19 -35 -3 -7 -1 -16 5 -20 7 -4 8 1 4 12 -6 16 -5 17 13 3 10 -8 6 1 -11
20 -16 19 -34 38 -40 42 -6 5 -5 12 3 20 10 10 20 4 52 -27 22 -21 40 -35 40
-30 -1 23 -62 75 -87 75 -7 0 -24 -12 -38 -27z"/>
<path d="M1184 966 c-3 -8 -4 -27 -2 -43 3 -26 6 -28 51 -27 26 1 50 4 53 7 3
2 -2 21 -10 41 -13 32 -19 36 -51 36 -21 0 -38 -6 -41 -14z"/>
<path d="M460 953 c0 -17 -4 -21 -17 -16 -15 5 -15 3 2 -14 11 -11 23 -19 28
-16 10 6 9 35 -3 53 -8 12 -10 11 -10 -7z"/>
<path d="M2492 948 c4 -26 -19 -37 -24 -11 -3 16 -5 15 -16 -4 -13 -23 -12
-23 53 -23 49 0 65 3 65 14 0 33 -13 46 -47 46 -29 0 -34 -3 -31 -22z"/>
<path d="M1311 883 c-1 -36 3 -63 9 -63 12 0 12 77 0 105 -6 14 -9 2 -9 -42z"/>
<path d="M307 913 c-10 -10 -8 -56 4 -73 7 -11 8 -4 3 24 -5 27 -3 41 7 47 8
5 9 9 3 9 -6 0 -14 -3 -17 -7z"/>
<path d="M1574 882 c4 -7 3 -12 -3 -12 -6 0 -8 -7 -5 -15 4 -9 0 -15 -9 -15
-9 0 -18 8 -20 18 -3 11 -5 9 -6 -8 0 -14 -8 -36 -17 -48 -12 -18 -13 -26 -4
-37 17 -20 26 -19 50 7 13 14 20 35 20 59 l0 38 36 -15 c24 -10 40 -12 47 -5
6 6 -5 13 -34 21 -24 7 -48 15 -53 18 -5 3 -6 0 -2 -6z m-6 -80 c2 -7 -3 -12
-12 -12 -9 0 -16 -7 -16 -16 0 -9 -5 -14 -12 -12 -18 6 -21 28 -4 28 9 0 16 7
16 16 0 17 22 14 28 -4z"/>
<path d="M2175 873 c13 -12 16 -30 13 -71 -2 -34 1 -57 8 -59 8 -3 10 12 6 47
l-5 50 197 0 196 0 0 -50 c0 -27 5 -50 10 -50 6 0 10 30 10 69 0 46 4 71 13
74 6 3 -95 6 -226 6 -222 1 -237 0 -222 -16z"/>
<path d="M1770 858 c0 -20 21 -38 43 -38 12 0 17 6 15 18 -2 9 -10 16 -17 14
-7 -1 -19 3 -27 9 -11 9 -14 8 -14 -3z"/>
<path d="M564 845 c-4 -9 -2 -20 5 -24 7 -4 11 -14 9 -22 -2 -8 7 -15 22 -17
24 -3 24 -3 6 11 -11 8 -17 21 -13 30 3 8 -1 21 -8 27 -12 10 -16 9 -21 -5z"/>
<path d="M510 800 c0 -11 6 -20 14 -20 20 0 28 27 10 34 -23 9 -24 8 -24 -14z"/>
<path d="M1718 794 c12 -9 22 -27 22 -41 0 -17 7 -27 20 -30 15 -4 19 -11 14
-25 -7 -25 21 -68 45 -68 10 0 46 19 80 41 46 31 63 49 68 70 5 24 8 27 20 17
11 -9 13 -9 11 2 -2 7 3 15 11 18 10 3 13 -1 9 -16 -5 -17 -3 -19 16 -13 11 5
22 16 22 25 2 13 1 13 -3 1 -7 -22 -26 -18 -20 4 4 16 1 18 -23 11 -15 -4 -54
-6 -86 -4 -50 3 -61 0 -82 -21 -29 -29 -39 -31 -39 -10 0 10 6 14 15 10 8 -3
12 0 10 7 -3 7 -27 15 -54 18 -27 3 -56 9 -64 13 -8 4 -5 0 8 -9z m62 -39 c0
-16 -6 -25 -15 -25 -15 0 -21 31 -8 43 13 14 23 6 23 -18z m165 -25 c-4 -6
-14 -9 -22 -6 -8 3 -12 2 -9 -3 7 -10 -16 -30 -66 -59 l-37 -21 -16 25 c-15
23 -14 25 2 31 10 4 33 18 52 30 19 13 41 21 48 18 8 -2 12 -1 8 4 -3 5 1 11
7 14 18 6 42 -18 33 -33z"/>
<path d="M2234 796 c-12 -32 0 -61 28 -64 34 -4 54 27 38 58 -12 23 -58 27
-66 6z m46 -27 c0 -24 -23 -21 -28 4 -2 10 3 17 12 17 10 0 16 -9 16 -21z"/>
<path d="M2492 798 c-29 -29 -3 -72 40 -66 19 2 23 9 23 38 0 30 -4 35 -25 38
-14 2 -31 -3 -38 -10z m48 -22 c0 -20 -19 -31 -32 -18 -6 6 -7 15 -4 21 10 16
36 13 36 -3z"/>
<path d="M1415 772 c-16 -18 -35 -26 -80 -32 -33 -4 -52 -8 -42 -9 24 -2 21
-20 -5 -31 -19 -8 -16 -9 12 -4 47 8 155 84 139 98 -2 2 -13 -8 -24 -22z"/>
<path d="M498 758 c23 -9 132 -10 132 0 0 4 -34 7 -75 7 -41 0 -67 -3 -57 -7z"/>
<path d="M1448 739 c-14 -15 -15 -19 -4 -19 8 0 18 5 21 10 9 15 35 12 35 -5
0 -8 -19 -24 -42 -35 -54 -26 -72 -26 -65 0 3 11 1 17 -4 14 -6 -3 -9 -13 -8
-22 1 -10 1 -21 0 -27 -1 -6 -39 -11 -88 -12 -47 -1 -90 -6 -94 -10 -5 -5 54
-7 129 -5 121 3 135 5 118 18 -19 13 -18 14 13 20 24 5 37 15 47 38 11 27 11
33 -3 44 -22 16 -34 14 -55 -9z"/>
<path d="M2336 739 c3 -6 0 -15 -7 -20 -11 -7 -10 -9 4 -9 9 0 17 5 17 10 0 6
21 9 53 6 41 -3 54 -1 54 10 0 11 -16 14 -64 14 -45 0 -62 -3 -57 -11z"/>
<path d="M1550 685 c0 -18 23 -45 54 -65 l35 -21 30 33 c29 31 38 48 26 48 -3
0 -18 -14 -33 -31 l-27 -30 -42 36 c-24 20 -43 34 -43 30z"/>
<path d="M2055 671 c-10 -33 -69 -77 -141 -105 -102 -39 -146 -67 -167 -106
l-19 -35 26 31 c17 22 60 47 133 79 60 26 119 56 131 68 26 24 56 76 49 84 -3
2 -8 -5 -12 -16z"/>
<path d="M2204 656 c-3 -14 -10 -26 -15 -26 -5 0 -9 -7 -9 -16 0 -20 -24 -13
-28 9 -2 10 3 17 13 17 9 0 13 5 10 10 -8 13 -35 -6 -35 -24 1 -27 18 -38 48
-31 24 5 32 13 37 37 9 39 -11 62 -21 24z"/>
<path d="M1017 654 c4 -11 8 -12 13 -4 4 7 17 9 29 6 11 -3 31 -9 43 -12 20
-6 21 -5 9 10 -19 23 -103 23 -94 0z"/>
<path d="M2405 650 c-3 -6 4 -10 17 -10 13 0 29 -5 36 -12 9 -9 12 -9 12 0 0
12 -31 32 -49 32 -5 0 -13 -4 -16 -10z"/>
<path d="M763 634 c-10 -26 38 -47 53 -22 4 6 -1 17 -11 25 -24 17 -34 17 -42
-3z"/>
<path d="M493 625 c2 -5 21 -8 42 -7 26 3 35 0 30 -8 -4 -6 -12 -9 -19 -7 -6
2 -20 1 -31 -4 -16 -6 -14 -8 12 -8 17 -1 35 4 39 10 4 7 24 9 56 5 34 -5 48
-4 43 4 -3 5 -13 10 -21 10 -8 0 -14 3 -14 8 0 4 -31 7 -70 7 -42 0 -69 -4
-67 -10z"/>
<path d="M1490 622 c-31 -24 -72 -33 -182 -39 -56 -3 -95 0 -110 7 -21 11 -22
11 -7 -4 12 -13 37 -17 105 -19 49 -1 101 2 117 7 24 7 26 6 20 -10 -5 -14 -3
-16 12 -11 39 15 105 29 117 24 7 -2 18 1 25 8 9 10 3 14 -27 19 -24 4 -40 12
-42 22 -3 14 -6 13 -28 -4z"/>
<path d="M1024 622 c8 -13 92 -42 100 -34 3 3 6 12 6 21 0 14 -2 14 -10 1 -5
-8 -10 -10 -10 -5 0 6 -8 11 -17 12 -10 1 -31 5 -47 9 -19 5 -27 3 -22 -4z"/>
<path d="M2340 596 c0 -15 7 -26 20 -29 23 -6 24 -6 8 28 -14 32 -28 32 -28 1z"/>
<path d="M2394 607 c3 -23 17 -37 37 -37 29 0 23 27 -10 38 -21 8 -29 7 -27
-1z"/>
<path d="M1755 601 c-3 -5 0 -13 6 -17 8 -4 9 -3 5 4 -4 7 12 12 51 15 l58 3
-57 2 c-31 1 -59 -2 -63 -7z"/>
<path d="M970 595 c0 -3 32 -37 70 -75 39 -38 70 -77 71 -87 0 -10 3 -13 5 -6
7 16 -65 110 -111 146 -19 15 -35 25 -35 22z"/>
<path d="M2202 578 c-22 -22 -13 -25 71 -26 66 -1 76 1 52 9 -16 5 -45 8 -63
7 -18 -1 -36 3 -41 10 -5 9 -10 9 -19 0z"/>
<path d="M1665 572 c-15 -11 -36 -62 -25 -62 5 0 20 12 34 26 24 26 46 26 46
-1 0 -15 -58 -47 -71 -39 -5 3 -9 1 -9 -5 0 -34 73 -7 92 34 6 14 15 25 20 25
5 0 4 6 -3 13 -13 14 -69 20 -84 9z"/>
<path d="M1120 550 c-11 -7 1 -10 40 -10 39 0 51 3 40 10 -8 5 -26 10 -40 10
-14 0 -32 -5 -40 -10z"/>
<path d="M1577 546 c-7 -17 -83 -36 -122 -30 -29 5 -29 5 -11 -10 11 -9 29
-16 40 -16 28 0 106 30 135 52 l24 18 -31 0 c-16 0 -32 -6 -35 -14z"/>
<path d="M850 519 c0 -15 5 -19 15 -15 8 3 15 1 15 -4 0 -16 17 -11 24 6 8 20
8 19 -26 28 -24 5 -28 3 -28 -15z"/>
<path d="M2023 518 c-49 -16 -40 -28 17 -21 40 5 51 3 56 -11 3 -9 17 -16 31
-16 20 0 24 4 20 20 -4 16 0 20 22 20 15 0 32 -5 38 -11 8 -8 19 -6 39 5 l29
16 -30 0 c-16 1 -66 3 -110 5 -44 2 -95 -1 -112 -7z"/>
<path d="M1143 508 c35 -8 52 -7 60 1 8 8 -5 11 -48 10 l-60 -1 48 -10z"/>
<path d="M2261 494 c-13 -12 -49 -30 -80 -38 -42 -12 -46 -14 -16 -10 22 3 53
7 68 9 29 3 51 15 28 15 -7 0 -3 9 10 19 13 11 22 21 19 24 -3 2 -16 -6 -29
-19z"/>
<path d="M1250 493 c0 -11 117 -36 130 -28 16 10 12 21 -7 21 -10 1 -42 5 -70
9 -32 4 -53 4 -53 -2z"/>
<path d="M1965 480 c20 -23 20 -23 0 -16 -11 4 -16 3 -11 -1 8 -8 16 -10 111
-17 l60 -5 -58 8 c-35 5 -72 18 -90 31 l-32 23 20 -23z"/>
<path d="M1488 452 c-54 -1 -98 -7 -98 -12 0 -13 170 -13 190 0 22 14 13 15
-92 12z"/>
<path d="M1234 395 c-18 -13 -16 -14 20 -15 22 0 37 1 35 3 -2 1 -11 8 -20 15
-12 9 -20 9 -35 -3z"/>
<path d="M1420 380 c-8 -5 -23 -7 -32 -4 -12 3 -18 0 -18 -9 0 -21 -30 -30
-47 -15 -13 10 -14 8 -11 -12 1 -13 9 -25 17 -28 8 -3 11 0 7 7 -4 7 0 11 12
11 10 0 23 10 29 23 8 17 9 8 6 -38 -6 -85 -8 -88 -43 -81 -39 7 -39 -9 0 -29
23 -12 35 -13 51 -4 19 10 20 16 14 68 -6 55 -5 59 21 80 24 19 30 20 48 8 25
-17 60 -103 46 -112 -6 -3 -10 -13 -10 -22 0 -12 7 -14 32 -9 36 7 141 84 132
97 -3 5 0 19 7 31 7 14 -5 6 -29 -19 -42 -43 -83 -64 -90 -44 -2 6 -10 11 -18
11 -17 0 -18 12 -2 28 9 9 9 12 -1 12 -7 0 -26 14 -43 30 -31 31 -52 37 -78
20z"/>
<path d="M1515 370 c4 -6 25 -8 53 -4 66 9 65 14 -2 14 -36 0 -55 -4 -51 -10z"/>
<path d="M1248 349 c-23 -13 -23 -46 0 -58 29 -15 74 -17 79 -3 3 7 -1 10 -11
6 -12 -5 -16 0 -16 18 0 22 -16 48 -29 48 -4 0 -14 -5 -23 -11z m37 -29 c0
-22 -29 -18 -33 3 -3 14 1 18 15 15 10 -2 18 -10 18 -18z"/>
<path d="M1213 244 c-8 -23 20 -47 46 -39 23 7 27 25 9 43 -17 17 -48 15 -55
-4z"/>
<path d="M1976 214 c-72 -49 -72 -48 -19 -86 55 -40 69 -42 65 -10 -3 22 -2
22 121 22 102 0 127 3 138 16 11 14 10 18 -6 30 -15 11 -45 13 -143 7 l-124
-6 11 22 c21 38 8 40 -43 5z m45 -40 c10 -13 10 -17 -2 -25 -22 -14 -49 -11
-56 7 -11 30 36 45 58 18z"/>
<path d="M652 198 l-43 -30 20 -22 c11 -11 34 -30 52 -40 l32 -19 -5 27 -5 26
132 0 c98 0 135 3 144 13 23 29 -9 37 -146 37 -131 0 -133 0 -123 20 16 30 -6
25 -58 -12z m63 -27 c8 -15 -35 -35 -47 -23 -6 6 -7 15 -4 21 9 14 43 14 51 2z"/>
<path d="M1624 189 c-8 -14 14 -29 33 -22 7 3 13 11 13 19 0 17 -36 19 -46 3z"/>
</g>
</svg>
